M48
; DRILL file {KiCad (5.1.7-0-10_14)} date Wednesday, November 18, 2020 at 11:56:14 PM
; FORMAT={-:-/ absolute / inch / decimal}
; #@! TF.CreationDate,2020-11-18T23:56:14+08:00
; #@! TF.GenerationSoftware,Kicad,Pcbnew,(5.1.7-0-10_14)
; #@! TF.FileFunction,Plated,1,2,PTH
FMAT,2
INCH
T1C0.0157
T2C0.0197
T3C0.0236
T4C0.0394
T5C0.0400
%
G90
G05
T1
X4.7819Y-2.5489
X4.9378Y-3.7158
X4.9378Y-3.7158
X5.0409Y-2.5489
X5.163Y-3.8863
X5.1654Y-3.6347
X5.1681Y-3.3123
X5.2244Y-3.8804
X5.3571Y-4.5426
X5.4236Y-3.4446
X5.4972Y-3.8367
X5.5963Y-3.4738
X5.6406Y-3.8233
X5.685Y-4.0426
X5.7406Y-4.3025
X6.4685Y-4.8584
T2
X5.4661Y-3.5341
X5.4661Y-3.5841
X5.5161Y-3.5341
X5.5161Y-3.5841
X5.5661Y-3.5341
X5.5661Y-3.5841
X5.6161Y-3.5341
X5.6161Y-3.5841
X5.6661Y-3.5341
X5.6661Y-3.5841
T4
X5.028Y-3.83
X5.028Y-3.93
X5.028Y-4.03
X5.028Y-4.13
X5.028Y-4.23
X5.028Y-4.33
X5.028Y-4.43
X5.028Y-4.53
X5.028Y-4.63
X5.028Y-4.73
X6.0705Y-3.83
X6.0705Y-3.93
X6.0705Y-4.03
X6.0705Y-4.13
X6.0705Y-4.23
X6.0705Y-4.33
X6.0705Y-4.43
X6.0705Y-4.53
X6.0705Y-4.63
X6.0705Y-4.73
X4.8085Y-3.356
X4.8085Y-3.456
X4.8085Y-3.556
X4.8085Y-3.656
X4.8085Y-3.756
X4.8085Y-3.856
T5
X6.4815Y-2.456
X6.4815Y-2.556
X6.4815Y-2.656
X6.4815Y-2.756
X6.4815Y-2.856
X6.4815Y-2.956
X6.4815Y-3.056
X6.4815Y-3.156
X6.4815Y-3.256
X6.4815Y-3.356
X6.4815Y-3.456
X6.4815Y-3.556
X6.4815Y-3.656
X6.4815Y-3.756
X6.4815Y-3.856
X6.4815Y-3.956
X6.4815Y-4.056
X6.4815Y-4.156
X6.4815Y-4.256
X6.4815Y-4.356
X6.4815Y-4.456
X6.4815Y-4.556
X6.4815Y-4.656
X6.5815Y-2.456
X6.5815Y-2.556
X6.5815Y-2.656
X6.5815Y-2.756
X6.5815Y-2.856
X6.5815Y-2.956
X6.5815Y-3.056
X6.5815Y-3.156
X6.5815Y-3.256
X6.5815Y-3.356
X6.5815Y-3.456
X6.5815Y-3.556
X6.5815Y-3.656
X6.5815Y-3.756
X6.5815Y-3.856
X6.5815Y-3.956
X6.5815Y-4.056
X6.5815Y-4.156
X6.5815Y-4.256
X6.5815Y-4.356
X6.5815Y-4.456
X6.5815Y-4.556
X6.5815Y-4.656
X4.5815Y-2.456
X4.5815Y-2.556
X4.5815Y-2.656
X4.5815Y-2.756
X4.5815Y-2.856
X4.5815Y-2.956
X4.5815Y-3.056
X4.5815Y-3.156
X4.5815Y-3.256
X4.5815Y-3.356
X4.5815Y-3.456
X4.5815Y-3.556
X4.5815Y-3.656
X4.5815Y-3.756
X4.5815Y-3.856
X4.5815Y-3.956
X4.5815Y-4.056
X4.5815Y-4.156
X4.5815Y-4.256
X4.5815Y-4.356
X4.5815Y-4.456
X4.5815Y-4.556
X4.5815Y-4.656
X4.6815Y-2.456
X4.6815Y-2.556
X4.6815Y-2.656
X4.6815Y-2.756
X4.6815Y-2.856
X4.6815Y-2.956
X4.6815Y-3.056
X4.6815Y-3.156
X4.6815Y-3.256
X4.6815Y-3.356
X4.6815Y-3.456
X4.6815Y-3.556
X4.6815Y-3.656
X4.6815Y-3.756
X4.6815Y-3.856
X4.6815Y-3.956
X4.6815Y-4.056
X4.6815Y-4.156
X4.6815Y-4.256
X4.6815Y-4.356
X4.6815Y-4.456
X4.6815Y-4.556
X4.6815Y-4.656
T3
G00X6.1689Y-2.0741
M15
G01X6.1689Y-2.0977
M16
G05
G00X6.1689Y-2.2288
M15
G01X6.1689Y-2.2721
M16
G05
G00X6.5091Y-2.0741
M15
G01X6.5091Y-2.0977
M16
G05
G00X6.5091Y-2.2288
M15
G01X6.5091Y-2.2721
M16
G05
T0
M30
