%TF.GenerationSoftware,KiCad,Pcbnew,(5.1.7-0-10_14)*%
%TF.CreationDate,2020-11-05T11:20:50+08:00*%
%TF.ProjectId,bbb_cape,6262625f-6361-4706-952e-6b696361645f,rev?*%
%TF.SameCoordinates,Original*%
%TF.FileFunction,Copper,L2,Bot*%
%TF.FilePolarity,Positive*%
%FSLAX46Y46*%
G04 Gerber Fmt 4.6, Leading zero omitted, Abs format (unit mm)*
G04 Created by KiCad (PCBNEW (5.1.7-0-10_14)) date 2020-11-05 11:20:50*
%MOMM*%
%LPD*%
G01*
G04 APERTURE LIST*
%TA.AperFunction,ComponentPad*%
%ADD10O,1.000000X1.000000*%
%TD*%
%TA.AperFunction,ComponentPad*%
%ADD11R,1.000000X1.000000*%
%TD*%
%TA.AperFunction,SMDPad,CuDef*%
%ADD12R,0.600000X1.450000*%
%TD*%
%TA.AperFunction,SMDPad,CuDef*%
%ADD13R,0.300000X1.450000*%
%TD*%
%TA.AperFunction,ComponentPad*%
%ADD14O,1.000000X2.100000*%
%TD*%
%TA.AperFunction,ComponentPad*%
%ADD15O,1.000000X1.600000*%
%TD*%
%TA.AperFunction,SMDPad,CuDef*%
%ADD16R,0.800001X2.000001*%
%TD*%
%TA.AperFunction,SMDPad,CuDef*%
%ADD17R,2.000001X0.800001*%
%TD*%
%TA.AperFunction,ComponentPad*%
%ADD18R,1.727200X1.727200*%
%TD*%
%TA.AperFunction,ComponentPad*%
%ADD19O,1.727200X1.727200*%
%TD*%
%TA.AperFunction,ViaPad*%
%ADD20C,0.600000*%
%TD*%
%TA.AperFunction,Conductor*%
%ADD21C,0.250000*%
%TD*%
%TA.AperFunction,Conductor*%
%ADD22C,0.500000*%
%TD*%
G04 APERTURE END LIST*
D10*
%TO.P,CON1,9*%
%TO.N,GND*%
X126485100Y-94222400D03*
%TO.P,CON1,10*%
%TO.N,/nRESET*%
X125215100Y-94222400D03*
%TO.P,CON1,7*%
%TO.N,Net-(CON1-Pad7)*%
X126485100Y-95492400D03*
%TO.P,CON1,8*%
%TO.N,/DIO_17*%
X125215100Y-95492400D03*
%TO.P,CON1,5*%
%TO.N,/TXD*%
X126485100Y-96762400D03*
%TO.P,CON1,6*%
%TO.N,/DIO_16*%
X125215100Y-96762400D03*
%TO.P,CON1,3*%
%TO.N,/RXD*%
X126485100Y-98032400D03*
%TO.P,CON1,4*%
%TO.N,/JTAG_TCK*%
X125215100Y-98032400D03*
%TO.P,CON1,2*%
%TO.N,/JTAG_TMS*%
X125215100Y-99302400D03*
D11*
%TO.P,CON1,1*%
%TO.N,+3V3*%
X126485100Y-99302400D03*
%TD*%
%TO.P,R3,2*%
%TO.N,GND*%
%TA.AperFunction,SMDPad,CuDef*%
G36*
G01*
X141567600Y-79257400D02*
X141092600Y-79257400D01*
G75*
G02*
X140855100Y-79019900I0J237500D01*
G01*
X140855100Y-78519900D01*
G75*
G02*
X141092600Y-78282400I237500J0D01*
G01*
X141567600Y-78282400D01*
G75*
G02*
X141805100Y-78519900I0J-237500D01*
G01*
X141805100Y-79019900D01*
G75*
G02*
X141567600Y-79257400I-237500J0D01*
G01*
G37*
%TD.AperFunction*%
%TO.P,R3,1*%
%TO.N,Net-(OLED1-Pad13)*%
%TA.AperFunction,SMDPad,CuDef*%
G36*
G01*
X141567600Y-81082400D02*
X141092600Y-81082400D01*
G75*
G02*
X140855100Y-80844900I0J237500D01*
G01*
X140855100Y-80344900D01*
G75*
G02*
X141092600Y-80107400I237500J0D01*
G01*
X141567600Y-80107400D01*
G75*
G02*
X141805100Y-80344900I0J-237500D01*
G01*
X141805100Y-80844900D01*
G75*
G02*
X141567600Y-81082400I-237500J0D01*
G01*
G37*
%TD.AperFunction*%
%TD*%
%TO.P,R2,2*%
%TO.N,Net-(C2-Pad1)*%
%TA.AperFunction,SMDPad,CuDef*%
G36*
G01*
X137435100Y-80859900D02*
X137435100Y-80384900D01*
G75*
G02*
X137672600Y-80147400I237500J0D01*
G01*
X138172600Y-80147400D01*
G75*
G02*
X138410100Y-80384900I0J-237500D01*
G01*
X138410100Y-80859900D01*
G75*
G02*
X138172600Y-81097400I-237500J0D01*
G01*
X137672600Y-81097400D01*
G75*
G02*
X137435100Y-80859900I0J237500D01*
G01*
G37*
%TD.AperFunction*%
%TO.P,R2,1*%
%TO.N,+3V3*%
%TA.AperFunction,SMDPad,CuDef*%
G36*
G01*
X135610100Y-80859900D02*
X135610100Y-80384900D01*
G75*
G02*
X135847600Y-80147400I237500J0D01*
G01*
X136347600Y-80147400D01*
G75*
G02*
X136585100Y-80384900I0J-237500D01*
G01*
X136585100Y-80859900D01*
G75*
G02*
X136347600Y-81097400I-237500J0D01*
G01*
X135847600Y-81097400D01*
G75*
G02*
X135610100Y-80859900I0J237500D01*
G01*
G37*
%TD.AperFunction*%
%TD*%
%TO.P,R1,2*%
%TO.N,Net-(OLED1-Pad24)*%
%TA.AperFunction,SMDPad,CuDef*%
G36*
G01*
X149052600Y-79357400D02*
X149527600Y-79357400D01*
G75*
G02*
X149765100Y-79594900I0J-237500D01*
G01*
X149765100Y-80094900D01*
G75*
G02*
X149527600Y-80332400I-237500J0D01*
G01*
X149052600Y-80332400D01*
G75*
G02*
X148815100Y-80094900I0J237500D01*
G01*
X148815100Y-79594900D01*
G75*
G02*
X149052600Y-79357400I237500J0D01*
G01*
G37*
%TD.AperFunction*%
%TO.P,R1,1*%
%TO.N,GND*%
%TA.AperFunction,SMDPad,CuDef*%
G36*
G01*
X149052600Y-77532400D02*
X149527600Y-77532400D01*
G75*
G02*
X149765100Y-77769900I0J-237500D01*
G01*
X149765100Y-78269900D01*
G75*
G02*
X149527600Y-78507400I-237500J0D01*
G01*
X149052600Y-78507400D01*
G75*
G02*
X148815100Y-78269900I0J237500D01*
G01*
X148815100Y-77769900D01*
G75*
G02*
X149052600Y-77532400I237500J0D01*
G01*
G37*
%TD.AperFunction*%
%TD*%
%TO.P,C6,2*%
%TO.N,Net-(C6-Pad2)*%
%TA.AperFunction,SMDPad,CuDef*%
G36*
G01*
X152945100Y-79322400D02*
X153895100Y-79322400D01*
G75*
G02*
X154145100Y-79572400I0J-250000D01*
G01*
X154145100Y-80247400D01*
G75*
G02*
X153895100Y-80497400I-250000J0D01*
G01*
X152945100Y-80497400D01*
G75*
G02*
X152695100Y-80247400I0J250000D01*
G01*
X152695100Y-79572400D01*
G75*
G02*
X152945100Y-79322400I250000J0D01*
G01*
G37*
%TD.AperFunction*%
%TO.P,C6,1*%
%TO.N,GND*%
%TA.AperFunction,SMDPad,CuDef*%
G36*
G01*
X152945100Y-77247400D02*
X153895100Y-77247400D01*
G75*
G02*
X154145100Y-77497400I0J-250000D01*
G01*
X154145100Y-78172400D01*
G75*
G02*
X153895100Y-78422400I-250000J0D01*
G01*
X152945100Y-78422400D01*
G75*
G02*
X152695100Y-78172400I0J250000D01*
G01*
X152695100Y-77497400D01*
G75*
G02*
X152945100Y-77247400I250000J0D01*
G01*
G37*
%TD.AperFunction*%
%TD*%
%TO.P,C5,2*%
%TO.N,Net-(C5-Pad2)*%
%TA.AperFunction,SMDPad,CuDef*%
G36*
G01*
X150875100Y-79322400D02*
X151825100Y-79322400D01*
G75*
G02*
X152075100Y-79572400I0J-250000D01*
G01*
X152075100Y-80247400D01*
G75*
G02*
X151825100Y-80497400I-250000J0D01*
G01*
X150875100Y-80497400D01*
G75*
G02*
X150625100Y-80247400I0J250000D01*
G01*
X150625100Y-79572400D01*
G75*
G02*
X150875100Y-79322400I250000J0D01*
G01*
G37*
%TD.AperFunction*%
%TO.P,C5,1*%
%TO.N,GND*%
%TA.AperFunction,SMDPad,CuDef*%
G36*
G01*
X150875100Y-77247400D02*
X151825100Y-77247400D01*
G75*
G02*
X152075100Y-77497400I0J-250000D01*
G01*
X152075100Y-78172400D01*
G75*
G02*
X151825100Y-78422400I-250000J0D01*
G01*
X150875100Y-78422400D01*
G75*
G02*
X150625100Y-78172400I0J250000D01*
G01*
X150625100Y-77497400D01*
G75*
G02*
X150875100Y-77247400I250000J0D01*
G01*
G37*
%TD.AperFunction*%
%TD*%
%TO.P,C4,2*%
%TO.N,Net-(C4-Pad2)*%
%TA.AperFunction,SMDPad,CuDef*%
G36*
G01*
X133925100Y-78202400D02*
X132975100Y-78202400D01*
G75*
G02*
X132725100Y-77952400I0J250000D01*
G01*
X132725100Y-77277400D01*
G75*
G02*
X132975100Y-77027400I250000J0D01*
G01*
X133925100Y-77027400D01*
G75*
G02*
X134175100Y-77277400I0J-250000D01*
G01*
X134175100Y-77952400D01*
G75*
G02*
X133925100Y-78202400I-250000J0D01*
G01*
G37*
%TD.AperFunction*%
%TO.P,C4,1*%
%TO.N,Net-(C4-Pad1)*%
%TA.AperFunction,SMDPad,CuDef*%
G36*
G01*
X133925100Y-80277400D02*
X132975100Y-80277400D01*
G75*
G02*
X132725100Y-80027400I0J250000D01*
G01*
X132725100Y-79352400D01*
G75*
G02*
X132975100Y-79102400I250000J0D01*
G01*
X133925100Y-79102400D01*
G75*
G02*
X134175100Y-79352400I0J-250000D01*
G01*
X134175100Y-80027400D01*
G75*
G02*
X133925100Y-80277400I-250000J0D01*
G01*
G37*
%TD.AperFunction*%
%TD*%
%TO.P,C3,2*%
%TO.N,Net-(C3-Pad2)*%
%TA.AperFunction,SMDPad,CuDef*%
G36*
G01*
X131735100Y-80922400D02*
X130785100Y-80922400D01*
G75*
G02*
X130535100Y-80672400I0J250000D01*
G01*
X130535100Y-79997400D01*
G75*
G02*
X130785100Y-79747400I250000J0D01*
G01*
X131735100Y-79747400D01*
G75*
G02*
X131985100Y-79997400I0J-250000D01*
G01*
X131985100Y-80672400D01*
G75*
G02*
X131735100Y-80922400I-250000J0D01*
G01*
G37*
%TD.AperFunction*%
%TO.P,C3,1*%
%TO.N,Net-(C3-Pad1)*%
%TA.AperFunction,SMDPad,CuDef*%
G36*
G01*
X131735100Y-82997400D02*
X130785100Y-82997400D01*
G75*
G02*
X130535100Y-82747400I0J250000D01*
G01*
X130535100Y-82072400D01*
G75*
G02*
X130785100Y-81822400I250000J0D01*
G01*
X131735100Y-81822400D01*
G75*
G02*
X131985100Y-82072400I0J-250000D01*
G01*
X131985100Y-82747400D01*
G75*
G02*
X131735100Y-82997400I-250000J0D01*
G01*
G37*
%TD.AperFunction*%
%TD*%
%TO.P,C2,2*%
%TO.N,GND*%
%TA.AperFunction,SMDPad,CuDef*%
G36*
G01*
X139847600Y-79377400D02*
X139372600Y-79377400D01*
G75*
G02*
X139135100Y-79139900I0J237500D01*
G01*
X139135100Y-78539900D01*
G75*
G02*
X139372600Y-78302400I237500J0D01*
G01*
X139847600Y-78302400D01*
G75*
G02*
X140085100Y-78539900I0J-237500D01*
G01*
X140085100Y-79139900D01*
G75*
G02*
X139847600Y-79377400I-237500J0D01*
G01*
G37*
%TD.AperFunction*%
%TO.P,C2,1*%
%TO.N,Net-(C2-Pad1)*%
%TA.AperFunction,SMDPad,CuDef*%
G36*
G01*
X139847600Y-81102400D02*
X139372600Y-81102400D01*
G75*
G02*
X139135100Y-80864900I0J237500D01*
G01*
X139135100Y-80264900D01*
G75*
G02*
X139372600Y-80027400I237500J0D01*
G01*
X139847600Y-80027400D01*
G75*
G02*
X140085100Y-80264900I0J-237500D01*
G01*
X140085100Y-80864900D01*
G75*
G02*
X139847600Y-81102400I-237500J0D01*
G01*
G37*
%TD.AperFunction*%
%TD*%
D12*
%TO.P,J1,B1*%
%TO.N,GND*%
X164190100Y-58167400D03*
%TO.P,J1,A9*%
%TO.N,+5V*%
X163390100Y-58167400D03*
%TO.P,J1,B9*%
X158490100Y-58167400D03*
%TO.P,J1,B12*%
%TO.N,GND*%
X157690100Y-58167400D03*
%TO.P,J1,A1*%
X157690100Y-58167400D03*
%TO.P,J1,A4*%
%TO.N,+5V*%
X158490100Y-58167400D03*
%TO.P,J1,B4*%
X163390100Y-58167400D03*
%TO.P,J1,A12*%
%TO.N,GND*%
X164190100Y-58167400D03*
D13*
%TO.P,J1,B8*%
%TO.N,Net-(J1-PadB8)*%
X159190100Y-58167400D03*
%TO.P,J1,A5*%
%TO.N,Net-(J1-PadA5)*%
X159690100Y-58167400D03*
%TO.P,J1,B7*%
%TO.N,Net-(J1-PadB7)*%
X160190100Y-58167400D03*
%TO.P,J1,A7*%
%TO.N,Net-(J1-PadA7)*%
X161190100Y-58167400D03*
%TO.P,J1,B6*%
%TO.N,Net-(J1-PadB6)*%
X161690100Y-58167400D03*
%TO.P,J1,A8*%
%TO.N,Net-(J1-PadA8)*%
X162190100Y-58167400D03*
%TO.P,J1,B5*%
%TO.N,Net-(J1-PadB5)*%
X162690100Y-58167400D03*
%TO.P,J1,A6*%
%TO.N,Net-(J1-PadA6)*%
X160690100Y-58167400D03*
D14*
%TO.P,J1,S1*%
%TO.N,GND*%
X165260100Y-57252400D03*
X156620100Y-57252400D03*
D15*
X156620100Y-53072400D03*
X165260100Y-53072400D03*
%TD*%
D16*
%TO.P,U1,13*%
%TO.N,/JTAG_TMS*%
X135815054Y-99372400D03*
%TO.P,U1,14*%
%TO.N,/JTAG_TCK*%
X137085054Y-99372400D03*
%TO.P,U1,15*%
%TO.N,/DIO_16*%
X138355054Y-99372400D03*
%TO.P,U1,16*%
%TO.N,/DIO_17*%
X139625054Y-99372400D03*
D17*
%TO.P,U1,1*%
%TO.N,GND*%
X132780008Y-116377446D03*
%TO.P,U1,2*%
%TO.N,/DIO_7*%
X132780008Y-115107446D03*
%TO.P,U1,3*%
%TO.N,/DIO_8*%
X132780008Y-113837446D03*
%TO.P,U1,4*%
%TO.N,/DIO_9*%
X132780008Y-112567446D03*
%TO.P,U1,5*%
%TO.N,/DIO_10*%
X132780008Y-111297446D03*
%TO.P,U1,6*%
%TO.N,/DIO_11*%
X132780008Y-110027446D03*
%TO.P,U1,7*%
%TO.N,/RXD*%
X132780008Y-108757446D03*
%TO.P,U1,8*%
%TO.N,/TXD*%
X132780008Y-107487446D03*
%TO.P,U1,9*%
%TO.N,/DIO_14*%
X132780008Y-106217446D03*
%TO.P,U1,10*%
%TO.N,/DIO_15*%
X132780008Y-104947446D03*
%TO.P,U1,11*%
%TO.N,GND*%
X132780008Y-103677446D03*
%TO.P,U1,12*%
X132780008Y-102407446D03*
%TO.P,U1,23*%
X150280100Y-102407446D03*
%TO.P,U1,24*%
%TO.N,/nRESET*%
X150280100Y-103677446D03*
%TO.P,U1,25*%
%TO.N,/DIO_22*%
X150280100Y-104947446D03*
%TO.P,U1,26*%
%TO.N,/DIO_23*%
X150280100Y-106217446D03*
%TO.P,U1,27*%
%TO.N,/DIO_24*%
X150280100Y-107487446D03*
%TO.P,U1,28*%
%TO.N,/DIO_25*%
X150280100Y-108757446D03*
%TO.P,U1,29*%
%TO.N,/DIO_26*%
X150280100Y-110027446D03*
%TO.P,U1,30*%
%TO.N,/DIO_27*%
X150280100Y-111297446D03*
%TO.P,U1,31*%
%TO.N,/DIO_28*%
X150280100Y-112567446D03*
%TO.P,U1,32*%
%TO.N,/DIO_29*%
X150280100Y-113837446D03*
%TO.P,U1,33*%
%TO.N,/DIO_30*%
X150280100Y-115107446D03*
%TO.P,U1,34*%
%TO.N,GND*%
X150280100Y-116377446D03*
D16*
%TO.P,U1,17*%
%TO.N,/DIO_18*%
X140895054Y-99372400D03*
%TO.P,U1,18*%
%TO.N,/DIO_19*%
X142165054Y-99372400D03*
%TO.P,U1,19*%
%TO.N,GND*%
X143435054Y-99372400D03*
%TO.P,U1,20*%
%TO.N,+3V3*%
X144705054Y-99372400D03*
%TO.P,U1,21*%
%TO.N,/DIO_20*%
X145975054Y-99372400D03*
%TO.P,U1,22*%
%TO.N,/DIO_21*%
X147245054Y-99372400D03*
%TD*%
D18*
%TO.P,P8,1*%
%TO.N,GND*%
X164630100Y-62382400D03*
D19*
%TO.P,P8,2*%
X167170100Y-62382400D03*
%TO.P,P8,3*%
%TO.N,Net-(P8-Pad3)*%
X164630100Y-64922400D03*
%TO.P,P8,4*%
%TO.N,Net-(P8-Pad4)*%
X167170100Y-64922400D03*
%TO.P,P8,5*%
%TO.N,Net-(P8-Pad5)*%
X164630100Y-67462400D03*
%TO.P,P8,6*%
%TO.N,Net-(P8-Pad6)*%
X167170100Y-67462400D03*
%TO.P,P8,7*%
%TO.N,Net-(P8-Pad7)*%
X164630100Y-70002400D03*
%TO.P,P8,8*%
%TO.N,Net-(P8-Pad8)*%
X167170100Y-70002400D03*
%TO.P,P8,9*%
%TO.N,Net-(P8-Pad9)*%
X164630100Y-72542400D03*
%TO.P,P8,10*%
%TO.N,Net-(P8-Pad10)*%
X167170100Y-72542400D03*
%TO.P,P8,11*%
%TO.N,Net-(P8-Pad11)*%
X164630100Y-75082400D03*
%TO.P,P8,12*%
%TO.N,Net-(P8-Pad12)*%
X167170100Y-75082400D03*
%TO.P,P8,13*%
%TO.N,Net-(P8-Pad13)*%
X164630100Y-77622400D03*
%TO.P,P8,14*%
%TO.N,Net-(P8-Pad14)*%
X167170100Y-77622400D03*
%TO.P,P8,15*%
%TO.N,Net-(P8-Pad15)*%
X164630100Y-80162400D03*
%TO.P,P8,16*%
%TO.N,Net-(P8-Pad16)*%
X167170100Y-80162400D03*
%TO.P,P8,17*%
%TO.N,Net-(P8-Pad17)*%
X164630100Y-82702400D03*
%TO.P,P8,18*%
%TO.N,Net-(P8-Pad18)*%
X167170100Y-82702400D03*
%TO.P,P8,19*%
%TO.N,Net-(P8-Pad19)*%
X164630100Y-85242400D03*
%TO.P,P8,20*%
%TO.N,Net-(P8-Pad20)*%
X167170100Y-85242400D03*
%TO.P,P8,21*%
%TO.N,Net-(P8-Pad21)*%
X164630100Y-87782400D03*
%TO.P,P8,22*%
%TO.N,Net-(P8-Pad22)*%
X167170100Y-87782400D03*
%TO.P,P8,23*%
%TO.N,Net-(P8-Pad23)*%
X164630100Y-90322400D03*
%TO.P,P8,24*%
%TO.N,Net-(P8-Pad24)*%
X167170100Y-90322400D03*
%TO.P,P8,25*%
%TO.N,Net-(P8-Pad25)*%
X164630100Y-92862400D03*
%TO.P,P8,26*%
%TO.N,Net-(P8-Pad26)*%
X167170100Y-92862400D03*
%TO.P,P8,27*%
%TO.N,Net-(P8-Pad27)*%
X164630100Y-95402400D03*
%TO.P,P8,28*%
%TO.N,Net-(P8-Pad28)*%
X167170100Y-95402400D03*
%TO.P,P8,29*%
%TO.N,Net-(P8-Pad29)*%
X164630100Y-97942400D03*
%TO.P,P8,30*%
%TO.N,Net-(P8-Pad30)*%
X167170100Y-97942400D03*
%TO.P,P8,31*%
%TO.N,Net-(P8-Pad31)*%
X164630100Y-100482400D03*
%TO.P,P8,32*%
%TO.N,Net-(P8-Pad32)*%
X167170100Y-100482400D03*
%TO.P,P8,33*%
%TO.N,Net-(P8-Pad33)*%
X164630100Y-103022400D03*
%TO.P,P8,34*%
%TO.N,Net-(P8-Pad34)*%
X167170100Y-103022400D03*
%TO.P,P8,35*%
%TO.N,Net-(P8-Pad35)*%
X164630100Y-105562400D03*
%TO.P,P8,36*%
%TO.N,Net-(P8-Pad36)*%
X167170100Y-105562400D03*
%TO.P,P8,37*%
%TO.N,Net-(P8-Pad37)*%
X164630100Y-108102400D03*
%TO.P,P8,38*%
%TO.N,Net-(P8-Pad38)*%
X167170100Y-108102400D03*
%TO.P,P8,39*%
%TO.N,Net-(P8-Pad39)*%
X164630100Y-110642400D03*
%TO.P,P8,40*%
%TO.N,Net-(P8-Pad40)*%
X167170100Y-110642400D03*
%TO.P,P8,41*%
%TO.N,Net-(P8-Pad41)*%
X164630100Y-113182400D03*
%TO.P,P8,42*%
%TO.N,Net-(P8-Pad42)*%
X167170100Y-113182400D03*
%TO.P,P8,43*%
%TO.N,Net-(P8-Pad43)*%
X164630100Y-115722400D03*
%TO.P,P8,44*%
%TO.N,Net-(P8-Pad44)*%
X167170100Y-115722400D03*
%TO.P,P8,45*%
%TO.N,Net-(P8-Pad45)*%
X164630100Y-118262400D03*
%TO.P,P8,46*%
%TO.N,Net-(P8-Pad46)*%
X167170100Y-118262400D03*
%TD*%
D18*
%TO.P,P9,1*%
%TO.N,GND*%
X116370100Y-62382400D03*
D19*
%TO.P,P9,2*%
X118910100Y-62382400D03*
%TO.P,P9,3*%
%TO.N,+3V3*%
X116370100Y-64922400D03*
%TO.P,P9,4*%
X118910100Y-64922400D03*
%TO.P,P9,5*%
%TO.N,+5V*%
X116370100Y-67462400D03*
%TO.P,P9,6*%
X118910100Y-67462400D03*
%TO.P,P9,7*%
%TO.N,SYS_5V*%
X116370100Y-70002400D03*
%TO.P,P9,8*%
X118910100Y-70002400D03*
%TO.P,P9,9*%
%TO.N,PWR_BUT*%
X116370100Y-72542400D03*
%TO.P,P9,10*%
%TO.N,SYS_RESETN*%
X118910100Y-72542400D03*
%TO.P,P9,11*%
%TO.N,Net-(P9-Pad11)*%
X116370100Y-75082400D03*
%TO.P,P9,12*%
%TO.N,Net-(P9-Pad12)*%
X118910100Y-75082400D03*
%TO.P,P9,13*%
%TO.N,Net-(P9-Pad13)*%
X116370100Y-77622400D03*
%TO.P,P9,14*%
%TO.N,Net-(P9-Pad14)*%
X118910100Y-77622400D03*
%TO.P,P9,15*%
%TO.N,Net-(P9-Pad15)*%
X116370100Y-80162400D03*
%TO.P,P9,16*%
%TO.N,Net-(P9-Pad16)*%
X118910100Y-80162400D03*
%TO.P,P9,17*%
%TO.N,Net-(P9-Pad17)*%
X116370100Y-82702400D03*
%TO.P,P9,18*%
%TO.N,Net-(P9-Pad18)*%
X118910100Y-82702400D03*
%TO.P,P9,19*%
%TO.N,/I2C2_SCL*%
X116370100Y-85242400D03*
%TO.P,P9,20*%
%TO.N,/I2C2_SDA*%
X118910100Y-85242400D03*
%TO.P,P9,21*%
%TO.N,Net-(P9-Pad21)*%
X116370100Y-87782400D03*
%TO.P,P9,22*%
%TO.N,Net-(P9-Pad22)*%
X118910100Y-87782400D03*
%TO.P,P9,23*%
%TO.N,Net-(P9-Pad23)*%
X116370100Y-90322400D03*
%TO.P,P9,24*%
%TO.N,/RXD*%
X118910100Y-90322400D03*
%TO.P,P9,25*%
%TO.N,Net-(P9-Pad25)*%
X116370100Y-92862400D03*
%TO.P,P9,26*%
%TO.N,/TXD*%
X118910100Y-92862400D03*
%TO.P,P9,27*%
%TO.N,Net-(P9-Pad27)*%
X116370100Y-95402400D03*
%TO.P,P9,28*%
%TO.N,Net-(P9-Pad28)*%
X118910100Y-95402400D03*
%TO.P,P9,29*%
%TO.N,Net-(P9-Pad29)*%
X116370100Y-97942400D03*
%TO.P,P9,30*%
%TO.N,Net-(P9-Pad30)*%
X118910100Y-97942400D03*
%TO.P,P9,31*%
%TO.N,Net-(P9-Pad31)*%
X116370100Y-100482400D03*
%TO.P,P9,32*%
%TO.N,VDD_ADC*%
X118910100Y-100482400D03*
%TO.P,P9,33*%
%TO.N,Net-(P9-Pad33)*%
X116370100Y-103022400D03*
%TO.P,P9,34*%
%TO.N,GNDA_ADC*%
X118910100Y-103022400D03*
%TO.P,P9,35*%
%TO.N,Net-(P9-Pad35)*%
X116370100Y-105562400D03*
%TO.P,P9,36*%
%TO.N,Net-(P9-Pad36)*%
X118910100Y-105562400D03*
%TO.P,P9,37*%
%TO.N,Net-(P9-Pad37)*%
X116370100Y-108102400D03*
%TO.P,P9,38*%
%TO.N,Net-(P9-Pad38)*%
X118910100Y-108102400D03*
%TO.P,P9,39*%
%TO.N,Net-(P9-Pad39)*%
X116370100Y-110642400D03*
%TO.P,P9,40*%
%TO.N,Net-(P9-Pad40)*%
X118910100Y-110642400D03*
%TO.P,P9,41*%
%TO.N,Net-(P9-Pad41)*%
X116370100Y-113182400D03*
%TO.P,P9,42*%
%TO.N,Net-(P9-Pad42)*%
X118910100Y-113182400D03*
%TO.P,P9,43*%
%TO.N,GND*%
X116370100Y-115722400D03*
%TO.P,P9,44*%
X118910100Y-115722400D03*
%TO.P,P9,45*%
X116370100Y-118262400D03*
%TO.P,P9,46*%
X118910100Y-118262400D03*
%TD*%
D20*
%TO.N,+3V3*%
X135840100Y-81922400D03*
X131480100Y-94672400D03*
X133280100Y-89882400D03*
X137590100Y-83432400D03*
%TO.N,+5V*%
X134100100Y-67962400D03*
X123500100Y-70342400D03*
%TO.N,/nRESET*%
X153510100Y-103972400D03*
%TO.N,GND*%
X145380100Y-79262400D03*
X143350100Y-97742400D03*
X142320100Y-94932400D03*
X132160100Y-59622400D03*
X153280100Y-121622400D03*
%TO.N,/RXD*%
X129330100Y-103672400D03*
%TO.N,/TXD*%
X130290100Y-103702400D03*
%TO.N,Net-(C2-Pad1)*%
X139950100Y-81832400D03*
%TO.N,Net-(C3-Pad2)*%
X132770100Y-82432400D03*
%TO.N,Net-(C3-Pad1)*%
X131210100Y-83642400D03*
%TO.N,Net-(C4-Pad2)*%
X134580100Y-81172400D03*
%TO.N,Net-(C4-Pad1)*%
X133640100Y-81702400D03*
%TO.N,Net-(C5-Pad2)*%
X151230100Y-81362400D03*
%TO.N,Net-(C6-Pad2)*%
X153270100Y-81462400D03*
%TO.N,Net-(OLED1-Pad13)*%
X141410100Y-81922400D03*
%TO.N,Net-(OLED1-Pad24)*%
X149050100Y-81262400D03*
%TD*%
D21*
%TO.N,+3V3*%
X135840100Y-80879900D02*
X136097600Y-80622400D01*
X135840100Y-81922400D02*
X135840100Y-80879900D01*
X126485100Y-99302400D02*
X129415100Y-96372400D01*
X144705054Y-97317354D02*
X144705054Y-99372400D01*
X143760100Y-96372400D02*
X144705054Y-97317354D01*
X131280100Y-96372400D02*
X131280100Y-94872400D01*
X131280100Y-94872400D02*
X131480100Y-94672400D01*
X129415100Y-96372400D02*
X131280100Y-96372400D01*
X131280100Y-96372400D02*
X143760100Y-96372400D01*
X133280100Y-89882400D02*
X133310100Y-89912400D01*
X135840100Y-87382400D02*
X135840100Y-81922400D01*
X133310100Y-89912400D02*
X135840100Y-87382400D01*
X122383290Y-64922400D02*
X118910100Y-64922400D01*
X136097600Y-78636710D02*
X122383290Y-64922400D01*
X136097600Y-80622400D02*
X136097600Y-78636710D01*
D22*
X118910100Y-64922400D02*
X116370100Y-64922400D01*
D21*
X137350100Y-83432400D02*
X135840100Y-81922400D01*
X137590100Y-83432400D02*
X137350100Y-83432400D01*
D22*
%TO.N,+5V*%
X118910100Y-67462400D02*
X116370100Y-67462400D01*
X158490100Y-59635606D02*
X150163306Y-67962400D01*
X158490100Y-58167400D02*
X158490100Y-59635606D01*
X150163306Y-67962400D02*
X134100100Y-67962400D01*
X120620100Y-67462400D02*
X118910100Y-67462400D01*
X123500100Y-70342400D02*
X120620100Y-67462400D01*
X163146894Y-59635606D02*
X158490100Y-59635606D01*
X163390100Y-59392400D02*
X163146894Y-59635606D01*
X163390100Y-58167400D02*
X163390100Y-59392400D01*
%TO.N,SYS_5V*%
X116370100Y-70002400D02*
X118910100Y-70002400D01*
D21*
%TO.N,/nRESET*%
X150575054Y-103972400D02*
X150280100Y-103677446D01*
X153510100Y-103972400D02*
X150575054Y-103972400D01*
X153510100Y-103548136D02*
X142324364Y-92362400D01*
X153510100Y-103972400D02*
X153510100Y-103548136D01*
X127075100Y-92362400D02*
X125215100Y-94222400D01*
X142324364Y-92362400D02*
X127075100Y-92362400D01*
%TO.N,GND*%
X139680100Y-78769900D02*
X139610100Y-78839900D01*
X141330100Y-78769900D02*
X139680100Y-78769900D01*
X151165100Y-78019900D02*
X151350100Y-77834900D01*
X149290100Y-78019900D02*
X151165100Y-78019900D01*
X151350100Y-77834900D02*
X153420100Y-77834900D01*
X144887600Y-78769900D02*
X141330100Y-78769900D01*
X145380100Y-79262400D02*
X144887600Y-78769900D01*
X148047600Y-79262400D02*
X149290100Y-78019900D01*
X145380100Y-79262400D02*
X148047600Y-79262400D01*
X149030100Y-116377446D02*
X143435054Y-110782400D01*
X150280100Y-116377446D02*
X149030100Y-116377446D01*
X137840008Y-116377446D02*
X143435054Y-110782400D01*
X132780008Y-116377446D02*
X137840008Y-116377446D01*
X142765146Y-102407446D02*
X143435054Y-103077354D01*
X143435054Y-103077354D02*
X143435054Y-99372400D01*
X135045054Y-103677446D02*
X136315054Y-102407446D01*
X136315054Y-102407446D02*
X142765146Y-102407446D01*
X132780008Y-103677446D02*
X135045054Y-103677446D01*
X132780008Y-102407446D02*
X136315054Y-102407446D01*
X150280100Y-102407446D02*
X145815054Y-102407446D01*
X145815054Y-102407446D02*
X143435054Y-104787446D01*
X143435054Y-104787446D02*
X143435054Y-103077354D01*
X143435054Y-110782400D02*
X143435054Y-104787446D01*
X143350100Y-99287446D02*
X143435054Y-99372400D01*
X143350100Y-97742400D02*
X143350100Y-99287446D01*
X126660101Y-94047399D02*
X141605099Y-94047399D01*
X126485100Y-94222400D02*
X126660101Y-94047399D01*
X142320100Y-94762400D02*
X142320100Y-94932400D01*
X141605099Y-94047399D02*
X142320100Y-94762400D01*
X132160100Y-71389900D02*
X132160100Y-59622400D01*
X139610100Y-78839900D02*
X132160100Y-71389900D01*
D22*
X156620100Y-57252400D02*
X156620100Y-53072400D01*
X165260100Y-57252400D02*
X165260100Y-53072400D01*
X164345100Y-58167400D02*
X165260100Y-57252400D01*
X164190100Y-58167400D02*
X164345100Y-58167400D01*
X165260100Y-53072400D02*
X156620100Y-53072400D01*
X157535100Y-58167400D02*
X156620100Y-57252400D01*
X157690100Y-58167400D02*
X157535100Y-58167400D01*
X164190100Y-61942400D02*
X164630100Y-62382400D01*
X164190100Y-58167400D02*
X164190100Y-61942400D01*
D21*
X153420100Y-73592400D02*
X164630100Y-62382400D01*
X153420100Y-77834900D02*
X153420100Y-73592400D01*
D22*
X116370100Y-62382400D02*
X118910100Y-62382400D01*
X129400100Y-62382400D02*
X132160100Y-59622400D01*
X118910100Y-62382400D02*
X129400100Y-62382400D01*
D21*
X150280100Y-116377446D02*
X151595146Y-116377446D01*
X153280100Y-118062400D02*
X153280100Y-121622400D01*
X151595146Y-116377446D02*
X153280100Y-118062400D01*
D22*
X119565146Y-116377446D02*
X118910100Y-115722400D01*
X132780008Y-116377446D02*
X119565146Y-116377446D01*
D21*
%TO.N,/RXD*%
X129330100Y-106557538D02*
X129330100Y-103672400D01*
X131530008Y-108757446D02*
X129330100Y-106557538D01*
X132780008Y-108757446D02*
X131530008Y-108757446D01*
%TO.N,/TXD*%
X130290100Y-106247538D02*
X130290100Y-103702400D01*
X131530008Y-107487446D02*
X130290100Y-106247538D01*
X132780008Y-107487446D02*
X131530008Y-107487446D01*
%TO.N,/JTAG_TMS*%
X135815054Y-99372400D02*
X135750100Y-99372400D01*
X125215100Y-100009506D02*
X125215100Y-99302400D01*
X125332995Y-100127401D02*
X125215100Y-100009506D01*
X134995099Y-100127401D02*
X125332995Y-100127401D01*
X135750100Y-99372400D02*
X134995099Y-100127401D01*
%TO.N,/JTAG_TCK*%
X124390099Y-98857401D02*
X125215100Y-98032400D01*
X125266586Y-100697402D02*
X124390099Y-99820915D01*
X124390099Y-99820915D02*
X124390099Y-98857401D01*
X136475056Y-100697402D02*
X125266586Y-100697402D01*
X137085054Y-100087404D02*
X136475056Y-100697402D01*
X137085054Y-99372400D02*
X137085054Y-100087404D01*
%TO.N,/DIO_16*%
X123940089Y-98037411D02*
X125215100Y-96762400D01*
X123940089Y-100007315D02*
X123940089Y-98037411D01*
X125080185Y-101147411D02*
X123940089Y-100007315D01*
X138355054Y-100622400D02*
X137830042Y-101147412D01*
X137830042Y-101147412D02*
X125080185Y-101147411D01*
X138355054Y-99372400D02*
X138355054Y-100622400D01*
%TO.N,/DIO_17*%
X123490079Y-97217421D02*
X125215100Y-95492400D01*
X123490079Y-100193715D02*
X123490079Y-97217421D01*
X124893784Y-101597420D02*
X123490079Y-100193715D01*
X138650034Y-101597420D02*
X124893784Y-101597420D01*
X139625054Y-100622400D02*
X138650034Y-101597420D01*
X139625054Y-99372400D02*
X139625054Y-100622400D01*
%TO.N,Net-(C2-Pad1)*%
X139950100Y-80904900D02*
X139610100Y-80564900D01*
X139950100Y-81832400D02*
X139950100Y-80904900D01*
X137980100Y-80564900D02*
X137922600Y-80622400D01*
X139610100Y-80564900D02*
X137980100Y-80564900D01*
%TO.N,Net-(C3-Pad2)*%
X132770100Y-81844900D02*
X131260100Y-80334900D01*
X132770100Y-82432400D02*
X132770100Y-81844900D01*
%TO.N,Net-(C3-Pad1)*%
X131210100Y-82459900D02*
X131260100Y-82409900D01*
X131210100Y-83642400D02*
X131210100Y-82459900D01*
%TO.N,Net-(C4-Pad2)*%
X134580100Y-78744900D02*
X133450100Y-77614900D01*
X134580100Y-81172400D02*
X134580100Y-78744900D01*
%TO.N,Net-(C4-Pad1)*%
X133640100Y-79879900D02*
X133450100Y-79689900D01*
X133640100Y-81702400D02*
X133640100Y-79879900D01*
%TO.N,Net-(C5-Pad2)*%
X151230100Y-80029900D02*
X151350100Y-79909900D01*
X151230100Y-81362400D02*
X151230100Y-80029900D01*
%TO.N,Net-(C6-Pad2)*%
X153270100Y-80059900D02*
X153420100Y-79909900D01*
X153270100Y-81462400D02*
X153270100Y-80059900D01*
%TO.N,Net-(OLED1-Pad13)*%
X141410100Y-80674900D02*
X141330100Y-80594900D01*
X141410100Y-81922400D02*
X141410100Y-80674900D01*
%TO.N,Net-(OLED1-Pad24)*%
X149050100Y-80084900D02*
X149290100Y-79844900D01*
X149050100Y-81262400D02*
X149050100Y-80084900D01*
%TD*%
M02*
