%TF.GenerationSoftware,KiCad,Pcbnew,(5.1.7-0-10_14)*%
%TF.CreationDate,2020-11-05T11:20:50+08:00*%
%TF.ProjectId,bbb_cape,6262625f-6361-4706-952e-6b696361645f,rev?*%
%TF.SameCoordinates,Original*%
%TF.FileFunction,Legend,Bot*%
%TF.FilePolarity,Positive*%
%FSLAX46Y46*%
G04 Gerber Fmt 4.6, Leading zero omitted, Abs format (unit mm)*
G04 Created by KiCad (PCBNEW (5.1.7-0-10_14)) date 2020-11-05 11:20:50*
%MOMM*%
%LPD*%
G01*
G04 APERTURE LIST*
%ADD10C,0.120000*%
%ADD11C,0.200000*%
%ADD12C,0.100000*%
%ADD13C,0.150000*%
G04 APERTURE END LIST*
D10*
%TO.C,R3*%
X141852600Y-79937124D02*
X141852600Y-79427676D01*
X140807600Y-79937124D02*
X140807600Y-79427676D01*
%TO.C,R2*%
X136755376Y-81144900D02*
X137264824Y-81144900D01*
X136755376Y-80099900D02*
X137264824Y-80099900D01*
%TO.C,R1*%
X148767600Y-78677676D02*
X148767600Y-79187124D01*
X149812600Y-78677676D02*
X149812600Y-79187124D01*
%TO.C,C6*%
X152685100Y-78611148D02*
X152685100Y-79133652D01*
X154155100Y-78611148D02*
X154155100Y-79133652D01*
%TO.C,C5*%
X150615100Y-78611148D02*
X150615100Y-79133652D01*
X152085100Y-78611148D02*
X152085100Y-79133652D01*
%TO.C,C4*%
X134185100Y-78913652D02*
X134185100Y-78391148D01*
X132715100Y-78913652D02*
X132715100Y-78391148D01*
%TO.C,C3*%
X131995100Y-81633652D02*
X131995100Y-81111148D01*
X130525100Y-81633652D02*
X130525100Y-81111148D01*
%TO.C,C2*%
X140120100Y-79848667D02*
X140120100Y-79556133D01*
X139100100Y-79848667D02*
X139100100Y-79556133D01*
%TO.C,J1*%
X156240100Y-52122400D02*
X156240100Y-50222400D01*
X156240100Y-56022400D02*
X156240100Y-54022400D01*
X165640100Y-52122400D02*
X165640100Y-50222400D01*
X165640100Y-56022400D02*
X165640100Y-54022400D01*
X156240100Y-50222400D02*
X165640100Y-50222400D01*
D11*
%TO.C,U1*%
X141298381Y-116225706D02*
X141298381Y-115819154D01*
X141298381Y-115819154D02*
X141445116Y-115819154D01*
X141445116Y-115819154D02*
X141445116Y-115672444D01*
X141445116Y-115672444D02*
X141445116Y-115819154D01*
X141445116Y-115819154D02*
X141745116Y-116119153D01*
X141745116Y-116119153D02*
X141745116Y-115972443D01*
X141745116Y-115972443D02*
X141594519Y-115821846D01*
X141594519Y-115821846D02*
X141297212Y-116119153D01*
X141297212Y-116119153D02*
X141291853Y-116119153D01*
X141291853Y-116119153D02*
X141145117Y-115972443D01*
X141145117Y-115972443D02*
X141298381Y-115819154D01*
X141298381Y-115819154D02*
X141145117Y-115972443D01*
X141145117Y-115972443D02*
X141045117Y-116072443D01*
X141045117Y-116072443D02*
X141045117Y-116172443D01*
X141045117Y-116172443D02*
X141145117Y-116272442D01*
X141145117Y-116272442D02*
X142045115Y-116272442D01*
X142045115Y-116272442D02*
X142145115Y-116372442D01*
X142145115Y-116372442D02*
X141998379Y-116372442D01*
X141998379Y-116372442D02*
X141745116Y-116119153D01*
X141745116Y-116119153D02*
X141291853Y-116119153D01*
X141291853Y-116119153D02*
X141145117Y-116265889D01*
X140745118Y-116672442D02*
X140210092Y-116672442D01*
X140210092Y-116672442D02*
X141410090Y-115472444D01*
X141410090Y-115472444D02*
X141445116Y-115472444D01*
X141445116Y-115472444D02*
X141594519Y-115621847D01*
X141594519Y-115621847D02*
X141594519Y-115821846D01*
X141594519Y-115821846D02*
X142345115Y-116572442D01*
X142345115Y-116572442D02*
X142045115Y-116572442D01*
X142045115Y-116572442D02*
X141945115Y-116472442D01*
X141945115Y-116472442D02*
X140845118Y-116472442D01*
X140845118Y-116472442D02*
X140645118Y-116472442D01*
X140645118Y-116472442D02*
X140845118Y-116272442D01*
X140845118Y-116272442D02*
X141145117Y-116272442D01*
X141145117Y-116272442D02*
X141145117Y-116172392D01*
X142645114Y-116672442D02*
X140445118Y-116672442D01*
X140445118Y-116672442D02*
X141445116Y-115672444D01*
X141445116Y-115672444D02*
X141445116Y-115472444D01*
X141445116Y-115472444D02*
X142645114Y-116672442D01*
X135463416Y-117063094D02*
X147879165Y-117063094D01*
D12*
X132780110Y-99372400D02*
X150280100Y-99372400D01*
X150280100Y-99372400D02*
X150280100Y-128072393D01*
X150280100Y-128072393D02*
X132780110Y-128072393D01*
X132780110Y-128072393D02*
X132780110Y-99372400D01*
%TO.C,R3*%
D13*
X141782480Y-76885733D02*
X141306290Y-76552400D01*
X141782480Y-76314304D02*
X140782480Y-76314304D01*
X140782480Y-76695257D01*
X140830100Y-76790495D01*
X140877719Y-76838114D01*
X140972957Y-76885733D01*
X141115814Y-76885733D01*
X141211052Y-76838114D01*
X141258671Y-76790495D01*
X141306290Y-76695257D01*
X141306290Y-76314304D01*
X140782480Y-77219066D02*
X140782480Y-77838114D01*
X141163433Y-77504780D01*
X141163433Y-77647638D01*
X141211052Y-77742876D01*
X141258671Y-77790495D01*
X141353909Y-77838114D01*
X141592004Y-77838114D01*
X141687242Y-77790495D01*
X141734861Y-77742876D01*
X141782480Y-77647638D01*
X141782480Y-77361923D01*
X141734861Y-77266685D01*
X141687242Y-77219066D01*
%TO.C,R2*%
X137442480Y-78495733D02*
X136966290Y-78162400D01*
X137442480Y-77924304D02*
X136442480Y-77924304D01*
X136442480Y-78305257D01*
X136490100Y-78400495D01*
X136537719Y-78448114D01*
X136632957Y-78495733D01*
X136775814Y-78495733D01*
X136871052Y-78448114D01*
X136918671Y-78400495D01*
X136966290Y-78305257D01*
X136966290Y-77924304D01*
X136537719Y-78876685D02*
X136490100Y-78924304D01*
X136442480Y-79019542D01*
X136442480Y-79257638D01*
X136490100Y-79352876D01*
X136537719Y-79400495D01*
X136632957Y-79448114D01*
X136728195Y-79448114D01*
X136871052Y-79400495D01*
X137442480Y-78829066D01*
X137442480Y-79448114D01*
%TO.C,R1*%
X149762480Y-75695733D02*
X149286290Y-75362400D01*
X149762480Y-75124304D02*
X148762480Y-75124304D01*
X148762480Y-75505257D01*
X148810100Y-75600495D01*
X148857719Y-75648114D01*
X148952957Y-75695733D01*
X149095814Y-75695733D01*
X149191052Y-75648114D01*
X149238671Y-75600495D01*
X149286290Y-75505257D01*
X149286290Y-75124304D01*
X149762480Y-76648114D02*
X149762480Y-76076685D01*
X149762480Y-76362400D02*
X148762480Y-76362400D01*
X148905338Y-76267161D01*
X149000576Y-76171923D01*
X149048195Y-76076685D01*
%TO.C,C6*%
X153837242Y-75635733D02*
X153884861Y-75588114D01*
X153932480Y-75445257D01*
X153932480Y-75350019D01*
X153884861Y-75207161D01*
X153789623Y-75111923D01*
X153694385Y-75064304D01*
X153503909Y-75016685D01*
X153361052Y-75016685D01*
X153170576Y-75064304D01*
X153075338Y-75111923D01*
X152980100Y-75207161D01*
X152932480Y-75350019D01*
X152932480Y-75445257D01*
X152980100Y-75588114D01*
X153027719Y-75635733D01*
X152932480Y-76492876D02*
X152932480Y-76302400D01*
X152980100Y-76207161D01*
X153027719Y-76159542D01*
X153170576Y-76064304D01*
X153361052Y-76016685D01*
X153742004Y-76016685D01*
X153837242Y-76064304D01*
X153884861Y-76111923D01*
X153932480Y-76207161D01*
X153932480Y-76397638D01*
X153884861Y-76492876D01*
X153837242Y-76540495D01*
X153742004Y-76588114D01*
X153503909Y-76588114D01*
X153408671Y-76540495D01*
X153361052Y-76492876D01*
X153313433Y-76397638D01*
X153313433Y-76207161D01*
X153361052Y-76111923D01*
X153408671Y-76064304D01*
X153503909Y-76016685D01*
%TO.C,C5*%
X151887242Y-75575733D02*
X151934861Y-75528114D01*
X151982480Y-75385257D01*
X151982480Y-75290019D01*
X151934861Y-75147161D01*
X151839623Y-75051923D01*
X151744385Y-75004304D01*
X151553909Y-74956685D01*
X151411052Y-74956685D01*
X151220576Y-75004304D01*
X151125338Y-75051923D01*
X151030100Y-75147161D01*
X150982480Y-75290019D01*
X150982480Y-75385257D01*
X151030100Y-75528114D01*
X151077719Y-75575733D01*
X150982480Y-76480495D02*
X150982480Y-76004304D01*
X151458671Y-75956685D01*
X151411052Y-76004304D01*
X151363433Y-76099542D01*
X151363433Y-76337638D01*
X151411052Y-76432876D01*
X151458671Y-76480495D01*
X151553909Y-76528114D01*
X151792004Y-76528114D01*
X151887242Y-76480495D01*
X151934861Y-76432876D01*
X151982480Y-76337638D01*
X151982480Y-76099542D01*
X151934861Y-76004304D01*
X151887242Y-75956685D01*
%TO.C,C4*%
X133777242Y-75505733D02*
X133824861Y-75458114D01*
X133872480Y-75315257D01*
X133872480Y-75220019D01*
X133824861Y-75077161D01*
X133729623Y-74981923D01*
X133634385Y-74934304D01*
X133443909Y-74886685D01*
X133301052Y-74886685D01*
X133110576Y-74934304D01*
X133015338Y-74981923D01*
X132920100Y-75077161D01*
X132872480Y-75220019D01*
X132872480Y-75315257D01*
X132920100Y-75458114D01*
X132967719Y-75505733D01*
X133205814Y-76362876D02*
X133872480Y-76362876D01*
X132824861Y-76124780D02*
X133539147Y-75886685D01*
X133539147Y-76505733D01*
%TO.C,C3*%
X131547242Y-78325733D02*
X131594861Y-78278114D01*
X131642480Y-78135257D01*
X131642480Y-78040019D01*
X131594861Y-77897161D01*
X131499623Y-77801923D01*
X131404385Y-77754304D01*
X131213909Y-77706685D01*
X131071052Y-77706685D01*
X130880576Y-77754304D01*
X130785338Y-77801923D01*
X130690100Y-77897161D01*
X130642480Y-78040019D01*
X130642480Y-78135257D01*
X130690100Y-78278114D01*
X130737719Y-78325733D01*
X130642480Y-78659066D02*
X130642480Y-79278114D01*
X131023433Y-78944780D01*
X131023433Y-79087638D01*
X131071052Y-79182876D01*
X131118671Y-79230495D01*
X131213909Y-79278114D01*
X131452004Y-79278114D01*
X131547242Y-79230495D01*
X131594861Y-79182876D01*
X131642480Y-79087638D01*
X131642480Y-78801923D01*
X131594861Y-78706685D01*
X131547242Y-78659066D01*
%TO.C,C2*%
X139987242Y-76755733D02*
X140034861Y-76708114D01*
X140082480Y-76565257D01*
X140082480Y-76470019D01*
X140034861Y-76327161D01*
X139939623Y-76231923D01*
X139844385Y-76184304D01*
X139653909Y-76136685D01*
X139511052Y-76136685D01*
X139320576Y-76184304D01*
X139225338Y-76231923D01*
X139130100Y-76327161D01*
X139082480Y-76470019D01*
X139082480Y-76565257D01*
X139130100Y-76708114D01*
X139177719Y-76755733D01*
X139177719Y-77136685D02*
X139130100Y-77184304D01*
X139082480Y-77279542D01*
X139082480Y-77517638D01*
X139130100Y-77612876D01*
X139177719Y-77660495D01*
X139272957Y-77708114D01*
X139368195Y-77708114D01*
X139511052Y-77660495D01*
X140082480Y-77089066D01*
X140082480Y-77708114D01*
%TO.C,J1*%
X161273433Y-59219780D02*
X161273433Y-59934066D01*
X161321052Y-60076923D01*
X161416290Y-60172161D01*
X161559147Y-60219780D01*
X161654385Y-60219780D01*
X160273433Y-60219780D02*
X160844861Y-60219780D01*
X160559147Y-60219780D02*
X160559147Y-59219780D01*
X160654385Y-59362638D01*
X160749623Y-59457876D01*
X160844861Y-59505495D01*
%TO.C,U1*%
X137832480Y-107770495D02*
X138642004Y-107770495D01*
X138737242Y-107818114D01*
X138784861Y-107865733D01*
X138832480Y-107960971D01*
X138832480Y-108151447D01*
X138784861Y-108246685D01*
X138737242Y-108294304D01*
X138642004Y-108341923D01*
X137832480Y-108341923D01*
X138832480Y-109341923D02*
X138832480Y-108770495D01*
X138832480Y-109056209D02*
X137832480Y-109056209D01*
X137975338Y-108960971D01*
X138070576Y-108865733D01*
X138118195Y-108770495D01*
D12*
X144714941Y-115987485D02*
X144714941Y-115287484D01*
X144548274Y-115287484D01*
X144448274Y-115320817D01*
X144381607Y-115387484D01*
X144348273Y-115454151D01*
X144314940Y-115587484D01*
X144314940Y-115687484D01*
X144348273Y-115820818D01*
X144381607Y-115887484D01*
X144448274Y-115954151D01*
X144548274Y-115987485D01*
X144714941Y-115987485D01*
X144014940Y-115987485D02*
X144014940Y-115287484D01*
X143548272Y-115287484D02*
X143414939Y-115287484D01*
X143348272Y-115320817D01*
X143281605Y-115387484D01*
X143248272Y-115520817D01*
X143248272Y-115754151D01*
X143281605Y-115887484D01*
X143348272Y-115954151D01*
X143414939Y-115987485D01*
X143548272Y-115987485D01*
X143614939Y-115954151D01*
X143681606Y-115887484D01*
X143714939Y-115754151D01*
X143714939Y-115520817D01*
X143681606Y-115387484D01*
X143614939Y-115320817D01*
X143548272Y-115287484D01*
X143114938Y-116054151D02*
X142581604Y-116054151D01*
X142481604Y-115287484D02*
X142048270Y-115287484D01*
X142281604Y-115554151D01*
X142181604Y-115554151D01*
X142114937Y-115587484D01*
X142081604Y-115620817D01*
X142048270Y-115687484D01*
X142048270Y-115854151D01*
X142081604Y-115920818D01*
X142114937Y-115954151D01*
X142181604Y-115987485D01*
X142381604Y-115987485D01*
X142448271Y-115954151D01*
X142481604Y-115920818D01*
X141614936Y-115287484D02*
X141548269Y-115287484D01*
X141481603Y-115320817D01*
X141448269Y-115354150D01*
X141414936Y-115420817D01*
X141381603Y-115554151D01*
X141381603Y-115720818D01*
X141414936Y-115854151D01*
X141448269Y-115920818D01*
X141481603Y-115954151D01*
X141548269Y-115987485D01*
X141614936Y-115987485D01*
X141681603Y-115954151D01*
X141714936Y-115920818D01*
X141748270Y-115854151D01*
X141781603Y-115720818D01*
X141781603Y-115554151D01*
X141748270Y-115420817D01*
X141714936Y-115354150D01*
X141681603Y-115320817D01*
X141614936Y-115287484D01*
X144648139Y-108367485D02*
X144648139Y-107667484D01*
X144481472Y-107667484D01*
X144381472Y-107700817D01*
X144314805Y-107767484D01*
X144281471Y-107834151D01*
X144248138Y-107967484D01*
X144248138Y-108067484D01*
X144281471Y-108200818D01*
X144314805Y-108267484D01*
X144381472Y-108334151D01*
X144481472Y-108367485D01*
X144648139Y-108367485D01*
X143948138Y-108367485D02*
X143948138Y-107667484D01*
X143481470Y-107667484D02*
X143348137Y-107667484D01*
X143281470Y-107700817D01*
X143214803Y-107767484D01*
X143181470Y-107900817D01*
X143181470Y-108134151D01*
X143214803Y-108267484D01*
X143281470Y-108334151D01*
X143348137Y-108367485D01*
X143481470Y-108367485D01*
X143548137Y-108334151D01*
X143614804Y-108267484D01*
X143648137Y-108134151D01*
X143648137Y-107900817D01*
X143614804Y-107767484D01*
X143548137Y-107700817D01*
X143481470Y-107667484D01*
X143048136Y-108434151D02*
X142514802Y-108434151D01*
X142381469Y-107734150D02*
X142348135Y-107700817D01*
X142281469Y-107667484D01*
X142114802Y-107667484D01*
X142048135Y-107700817D01*
X142014802Y-107734150D01*
X141981468Y-107800817D01*
X141981468Y-107867484D01*
X142014802Y-107967484D01*
X142414802Y-108367485D01*
X141981468Y-108367485D01*
X141381467Y-107900817D02*
X141381467Y-108367485D01*
X141548134Y-107634150D02*
X141714801Y-108134151D01*
X141281467Y-108134151D01*
X144714941Y-112177485D02*
X144714941Y-111477484D01*
X144548274Y-111477484D01*
X144448274Y-111510817D01*
X144381607Y-111577484D01*
X144348273Y-111644151D01*
X144314940Y-111777484D01*
X144314940Y-111877484D01*
X144348273Y-112010818D01*
X144381607Y-112077484D01*
X144448274Y-112144151D01*
X144548274Y-112177485D01*
X144714941Y-112177485D01*
X144014940Y-112177485D02*
X144014940Y-111477484D01*
X143548272Y-111477484D02*
X143414939Y-111477484D01*
X143348272Y-111510817D01*
X143281605Y-111577484D01*
X143248272Y-111710817D01*
X143248272Y-111944151D01*
X143281605Y-112077484D01*
X143348272Y-112144151D01*
X143414939Y-112177485D01*
X143548272Y-112177485D01*
X143614939Y-112144151D01*
X143681606Y-112077484D01*
X143714939Y-111944151D01*
X143714939Y-111710817D01*
X143681606Y-111577484D01*
X143614939Y-111510817D01*
X143548272Y-111477484D01*
X143114938Y-112244151D02*
X142581604Y-112244151D01*
X142448271Y-111544150D02*
X142414937Y-111510817D01*
X142348271Y-111477484D01*
X142181604Y-111477484D01*
X142114937Y-111510817D01*
X142081604Y-111544150D01*
X142048270Y-111610817D01*
X142048270Y-111677484D01*
X142081604Y-111777484D01*
X142481604Y-112177485D01*
X142048270Y-112177485D01*
X141814936Y-111477484D02*
X141348269Y-111477484D01*
X141648270Y-112177485D01*
X144714941Y-114717485D02*
X144714941Y-114017484D01*
X144548274Y-114017484D01*
X144448274Y-114050817D01*
X144381607Y-114117484D01*
X144348273Y-114184151D01*
X144314940Y-114317484D01*
X144314940Y-114417484D01*
X144348273Y-114550818D01*
X144381607Y-114617484D01*
X144448274Y-114684151D01*
X144548274Y-114717485D01*
X144714941Y-114717485D01*
X144014940Y-114717485D02*
X144014940Y-114017484D01*
X143548272Y-114017484D02*
X143414939Y-114017484D01*
X143348272Y-114050817D01*
X143281605Y-114117484D01*
X143248272Y-114250817D01*
X143248272Y-114484151D01*
X143281605Y-114617484D01*
X143348272Y-114684151D01*
X143414939Y-114717485D01*
X143548272Y-114717485D01*
X143614939Y-114684151D01*
X143681606Y-114617484D01*
X143714939Y-114484151D01*
X143714939Y-114250817D01*
X143681606Y-114117484D01*
X143614939Y-114050817D01*
X143548272Y-114017484D01*
X143114938Y-114784151D02*
X142581604Y-114784151D01*
X142448271Y-114084150D02*
X142414937Y-114050817D01*
X142348271Y-114017484D01*
X142181604Y-114017484D01*
X142114937Y-114050817D01*
X142081604Y-114084150D01*
X142048270Y-114150817D01*
X142048270Y-114217484D01*
X142081604Y-114317484D01*
X142481604Y-114717485D01*
X142048270Y-114717485D01*
X141714936Y-114717485D02*
X141581603Y-114717485D01*
X141514936Y-114684151D01*
X141481603Y-114650818D01*
X141414936Y-114550818D01*
X141381603Y-114417484D01*
X141381603Y-114150817D01*
X141414936Y-114084150D01*
X141448269Y-114050817D01*
X141514936Y-114017484D01*
X141648270Y-114017484D01*
X141714936Y-114050817D01*
X141748270Y-114084150D01*
X141781603Y-114150817D01*
X141781603Y-114317484D01*
X141748270Y-114384151D01*
X141714936Y-114417484D01*
X141648270Y-114450818D01*
X141514936Y-114450818D01*
X141448269Y-114417484D01*
X141414936Y-114384151D01*
X141381603Y-114317484D01*
X144714941Y-105827485D02*
X144714941Y-105127484D01*
X144548274Y-105127484D01*
X144448274Y-105160817D01*
X144381607Y-105227484D01*
X144348273Y-105294151D01*
X144314940Y-105427484D01*
X144314940Y-105527484D01*
X144348273Y-105660818D01*
X144381607Y-105727484D01*
X144448274Y-105794151D01*
X144548274Y-105827485D01*
X144714941Y-105827485D01*
X144014940Y-105827485D02*
X144014940Y-105127484D01*
X143548272Y-105127484D02*
X143414939Y-105127484D01*
X143348272Y-105160817D01*
X143281605Y-105227484D01*
X143248272Y-105360817D01*
X143248272Y-105594151D01*
X143281605Y-105727484D01*
X143348272Y-105794151D01*
X143414939Y-105827485D01*
X143548272Y-105827485D01*
X143614939Y-105794151D01*
X143681606Y-105727484D01*
X143714939Y-105594151D01*
X143714939Y-105360817D01*
X143681606Y-105227484D01*
X143614939Y-105160817D01*
X143548272Y-105127484D01*
X143114938Y-105894151D02*
X142581604Y-105894151D01*
X142448271Y-105194150D02*
X142414937Y-105160817D01*
X142348271Y-105127484D01*
X142181604Y-105127484D01*
X142114937Y-105160817D01*
X142081604Y-105194150D01*
X142048270Y-105260817D01*
X142048270Y-105327484D01*
X142081604Y-105427484D01*
X142481604Y-105827485D01*
X142048270Y-105827485D01*
X141781603Y-105194150D02*
X141748270Y-105160817D01*
X141681603Y-105127484D01*
X141514936Y-105127484D01*
X141448269Y-105160817D01*
X141414936Y-105194150D01*
X141381603Y-105260817D01*
X141381603Y-105327484D01*
X141414936Y-105427484D01*
X141814936Y-105827485D01*
X141381603Y-105827485D01*
X143248394Y-104557485D02*
X143481728Y-104224151D01*
X143648395Y-104557485D02*
X143648395Y-103857484D01*
X143381728Y-103857484D01*
X143315061Y-103890817D01*
X143281727Y-103924150D01*
X143248394Y-103990817D01*
X143248394Y-104090817D01*
X143281727Y-104157484D01*
X143315061Y-104190817D01*
X143381728Y-104224151D01*
X143648395Y-104224151D01*
X142948394Y-104190817D02*
X142715060Y-104190817D01*
X142615060Y-104557485D02*
X142948394Y-104557485D01*
X142948394Y-103857484D01*
X142615060Y-103857484D01*
X142348393Y-104524151D02*
X142248393Y-104557485D01*
X142081726Y-104557485D01*
X142015059Y-104524151D01*
X141981726Y-104490818D01*
X141948392Y-104424151D01*
X141948392Y-104357484D01*
X141981726Y-104290818D01*
X142015059Y-104257484D01*
X142081726Y-104224151D01*
X142215059Y-104190817D01*
X142281726Y-104157484D01*
X142315059Y-104124151D01*
X142348393Y-104057484D01*
X142348393Y-103990817D01*
X142315059Y-103924150D01*
X142281726Y-103890817D01*
X142215059Y-103857484D01*
X142048392Y-103857484D01*
X141948392Y-103890817D01*
X141648392Y-104190817D02*
X141415058Y-104190817D01*
X141315058Y-104557485D02*
X141648392Y-104557485D01*
X141648392Y-103857484D01*
X141315058Y-103857484D01*
X141115058Y-103857484D02*
X140715057Y-103857484D01*
X140915057Y-104557485D02*
X140915057Y-103857484D01*
X140648390Y-104624151D02*
X140115056Y-104624151D01*
X139948389Y-104557485D02*
X139948389Y-103857484D01*
X139548389Y-104557485D01*
X139548389Y-103857484D01*
X145747813Y-116357645D02*
X145814480Y-116324312D01*
X145914480Y-116324312D01*
X146014480Y-116357645D01*
X146081147Y-116424312D01*
X146114481Y-116490979D01*
X146147814Y-116624312D01*
X146147814Y-116724312D01*
X146114481Y-116857646D01*
X146081147Y-116924312D01*
X146014480Y-116990979D01*
X145914480Y-117024313D01*
X145847814Y-117024313D01*
X145747813Y-116990979D01*
X145714480Y-116957646D01*
X145714480Y-116724312D01*
X145847814Y-116724312D01*
X145414480Y-117024313D02*
X145414480Y-116324312D01*
X145014479Y-117024313D01*
X145014479Y-116324312D01*
X144681145Y-117024313D02*
X144681145Y-116324312D01*
X144514478Y-116324312D01*
X144414478Y-116357645D01*
X144347811Y-116424312D01*
X144314478Y-116490979D01*
X144281145Y-116624312D01*
X144281145Y-116724312D01*
X144314478Y-116857646D01*
X144347811Y-116924312D01*
X144414478Y-116990979D01*
X144514478Y-117024313D01*
X144681145Y-117024313D01*
X144714941Y-113447485D02*
X144714941Y-112747484D01*
X144548274Y-112747484D01*
X144448274Y-112780817D01*
X144381607Y-112847484D01*
X144348273Y-112914151D01*
X144314940Y-113047484D01*
X144314940Y-113147484D01*
X144348273Y-113280818D01*
X144381607Y-113347484D01*
X144448274Y-113414151D01*
X144548274Y-113447485D01*
X144714941Y-113447485D01*
X144014940Y-113447485D02*
X144014940Y-112747484D01*
X143548272Y-112747484D02*
X143414939Y-112747484D01*
X143348272Y-112780817D01*
X143281605Y-112847484D01*
X143248272Y-112980817D01*
X143248272Y-113214151D01*
X143281605Y-113347484D01*
X143348272Y-113414151D01*
X143414939Y-113447485D01*
X143548272Y-113447485D01*
X143614939Y-113414151D01*
X143681606Y-113347484D01*
X143714939Y-113214151D01*
X143714939Y-112980817D01*
X143681606Y-112847484D01*
X143614939Y-112780817D01*
X143548272Y-112747484D01*
X143114938Y-113514151D02*
X142581604Y-113514151D01*
X142448271Y-112814150D02*
X142414937Y-112780817D01*
X142348271Y-112747484D01*
X142181604Y-112747484D01*
X142114937Y-112780817D01*
X142081604Y-112814150D01*
X142048270Y-112880817D01*
X142048270Y-112947484D01*
X142081604Y-113047484D01*
X142481604Y-113447485D01*
X142048270Y-113447485D01*
X141648270Y-113047484D02*
X141714936Y-113014151D01*
X141748270Y-112980817D01*
X141781603Y-112914151D01*
X141781603Y-112880817D01*
X141748270Y-112814150D01*
X141714936Y-112780817D01*
X141648270Y-112747484D01*
X141514936Y-112747484D01*
X141448269Y-112780817D01*
X141414936Y-112814150D01*
X141381603Y-112880817D01*
X141381603Y-112914151D01*
X141414936Y-112980817D01*
X141448269Y-113014151D01*
X141514936Y-113047484D01*
X141648270Y-113047484D01*
X141714936Y-113080817D01*
X141748270Y-113114151D01*
X141781603Y-113180818D01*
X141781603Y-113314151D01*
X141748270Y-113380818D01*
X141714936Y-113414151D01*
X141648270Y-113447485D01*
X141514936Y-113447485D01*
X141448269Y-113414151D01*
X141414936Y-113380818D01*
X141381603Y-113314151D01*
X141381603Y-113180818D01*
X141414936Y-113114151D01*
X141448269Y-113080817D01*
X141514936Y-113047484D01*
X144714941Y-110907485D02*
X144714941Y-110207484D01*
X144548274Y-110207484D01*
X144448274Y-110240817D01*
X144381607Y-110307484D01*
X144348273Y-110374151D01*
X144314940Y-110507484D01*
X144314940Y-110607484D01*
X144348273Y-110740818D01*
X144381607Y-110807484D01*
X144448274Y-110874151D01*
X144548274Y-110907485D01*
X144714941Y-110907485D01*
X144014940Y-110907485D02*
X144014940Y-110207484D01*
X143548272Y-110207484D02*
X143414939Y-110207484D01*
X143348272Y-110240817D01*
X143281605Y-110307484D01*
X143248272Y-110440817D01*
X143248272Y-110674151D01*
X143281605Y-110807484D01*
X143348272Y-110874151D01*
X143414939Y-110907485D01*
X143548272Y-110907485D01*
X143614939Y-110874151D01*
X143681606Y-110807484D01*
X143714939Y-110674151D01*
X143714939Y-110440817D01*
X143681606Y-110307484D01*
X143614939Y-110240817D01*
X143548272Y-110207484D01*
X143114938Y-110974151D02*
X142581604Y-110974151D01*
X142448271Y-110274150D02*
X142414937Y-110240817D01*
X142348271Y-110207484D01*
X142181604Y-110207484D01*
X142114937Y-110240817D01*
X142081604Y-110274150D01*
X142048270Y-110340817D01*
X142048270Y-110407484D01*
X142081604Y-110507484D01*
X142481604Y-110907485D01*
X142048270Y-110907485D01*
X141448269Y-110207484D02*
X141581603Y-110207484D01*
X141648270Y-110240817D01*
X141681603Y-110274150D01*
X141748270Y-110374151D01*
X141781603Y-110507484D01*
X141781603Y-110774151D01*
X141748270Y-110840818D01*
X141714936Y-110874151D01*
X141648270Y-110907485D01*
X141514936Y-110907485D01*
X141448269Y-110874151D01*
X141414936Y-110840818D01*
X141381603Y-110774151D01*
X141381603Y-110607484D01*
X141414936Y-110540817D01*
X141448269Y-110507484D01*
X141514936Y-110474151D01*
X141648270Y-110474151D01*
X141714936Y-110507484D01*
X141748270Y-110540817D01*
X141781603Y-110607484D01*
X144714941Y-109637485D02*
X144714941Y-108937484D01*
X144548274Y-108937484D01*
X144448274Y-108970817D01*
X144381607Y-109037484D01*
X144348273Y-109104151D01*
X144314940Y-109237484D01*
X144314940Y-109337484D01*
X144348273Y-109470818D01*
X144381607Y-109537484D01*
X144448274Y-109604151D01*
X144548274Y-109637485D01*
X144714941Y-109637485D01*
X144014940Y-109637485D02*
X144014940Y-108937484D01*
X143548272Y-108937484D02*
X143414939Y-108937484D01*
X143348272Y-108970817D01*
X143281605Y-109037484D01*
X143248272Y-109170817D01*
X143248272Y-109404151D01*
X143281605Y-109537484D01*
X143348272Y-109604151D01*
X143414939Y-109637485D01*
X143548272Y-109637485D01*
X143614939Y-109604151D01*
X143681606Y-109537484D01*
X143714939Y-109404151D01*
X143714939Y-109170817D01*
X143681606Y-109037484D01*
X143614939Y-108970817D01*
X143548272Y-108937484D01*
X143114938Y-109704151D02*
X142581604Y-109704151D01*
X142448271Y-109004150D02*
X142414937Y-108970817D01*
X142348271Y-108937484D01*
X142181604Y-108937484D01*
X142114937Y-108970817D01*
X142081604Y-109004150D01*
X142048270Y-109070817D01*
X142048270Y-109137484D01*
X142081604Y-109237484D01*
X142481604Y-109637485D01*
X142048270Y-109637485D01*
X141414936Y-108937484D02*
X141748270Y-108937484D01*
X141781603Y-109270817D01*
X141748270Y-109237484D01*
X141681603Y-109204151D01*
X141514936Y-109204151D01*
X141448269Y-109237484D01*
X141414936Y-109270817D01*
X141381603Y-109337484D01*
X141381603Y-109504151D01*
X141414936Y-109570818D01*
X141448269Y-109604151D01*
X141514936Y-109637485D01*
X141681603Y-109637485D01*
X141748270Y-109604151D01*
X141781603Y-109570818D01*
X144714941Y-107097485D02*
X144714941Y-106397484D01*
X144548274Y-106397484D01*
X144448274Y-106430817D01*
X144381607Y-106497484D01*
X144348273Y-106564151D01*
X144314940Y-106697484D01*
X144314940Y-106797484D01*
X144348273Y-106930818D01*
X144381607Y-106997484D01*
X144448274Y-107064151D01*
X144548274Y-107097485D01*
X144714941Y-107097485D01*
X144014940Y-107097485D02*
X144014940Y-106397484D01*
X143548272Y-106397484D02*
X143414939Y-106397484D01*
X143348272Y-106430817D01*
X143281605Y-106497484D01*
X143248272Y-106630817D01*
X143248272Y-106864151D01*
X143281605Y-106997484D01*
X143348272Y-107064151D01*
X143414939Y-107097485D01*
X143548272Y-107097485D01*
X143614939Y-107064151D01*
X143681606Y-106997484D01*
X143714939Y-106864151D01*
X143714939Y-106630817D01*
X143681606Y-106497484D01*
X143614939Y-106430817D01*
X143548272Y-106397484D01*
X143114938Y-107164151D02*
X142581604Y-107164151D01*
X142448271Y-106464150D02*
X142414937Y-106430817D01*
X142348271Y-106397484D01*
X142181604Y-106397484D01*
X142114937Y-106430817D01*
X142081604Y-106464150D01*
X142048270Y-106530817D01*
X142048270Y-106597484D01*
X142081604Y-106697484D01*
X142481604Y-107097485D01*
X142048270Y-107097485D01*
X141814936Y-106397484D02*
X141381603Y-106397484D01*
X141614936Y-106664151D01*
X141514936Y-106664151D01*
X141448269Y-106697484D01*
X141414936Y-106730817D01*
X141381603Y-106797484D01*
X141381603Y-106964151D01*
X141414936Y-107030818D01*
X141448269Y-107064151D01*
X141514936Y-107097485D01*
X141714936Y-107097485D01*
X141781603Y-107064151D01*
X141814936Y-107030818D01*
X145747813Y-102387645D02*
X145814480Y-102354312D01*
X145914480Y-102354312D01*
X146014480Y-102387645D01*
X146081147Y-102454312D01*
X146114481Y-102520979D01*
X146147814Y-102654312D01*
X146147814Y-102754312D01*
X146114481Y-102887646D01*
X146081147Y-102954312D01*
X146014480Y-103020979D01*
X145914480Y-103054313D01*
X145847814Y-103054313D01*
X145747813Y-103020979D01*
X145714480Y-102987646D01*
X145714480Y-102754312D01*
X145847814Y-102754312D01*
X145414480Y-103054313D02*
X145414480Y-102354312D01*
X145014479Y-103054313D01*
X145014479Y-102354312D01*
X144681145Y-103054313D02*
X144681145Y-102354312D01*
X144514478Y-102354312D01*
X144414478Y-102387645D01*
X144347811Y-102454312D01*
X144314478Y-102520979D01*
X144281145Y-102654312D01*
X144281145Y-102754312D01*
X144314478Y-102887646D01*
X144347811Y-102954312D01*
X144414478Y-103020979D01*
X144514478Y-103054313D01*
X144681145Y-103054313D01*
X134548337Y-115987485D02*
X134548337Y-115287484D01*
X134381670Y-115287484D01*
X134281670Y-115320817D01*
X134215003Y-115387484D01*
X134181669Y-115454151D01*
X134148336Y-115587484D01*
X134148336Y-115687484D01*
X134181669Y-115820818D01*
X134215003Y-115887484D01*
X134281670Y-115954151D01*
X134381670Y-115987485D01*
X134548337Y-115987485D01*
X133848336Y-115987485D02*
X133848336Y-115287484D01*
X133381668Y-115287484D02*
X133248335Y-115287484D01*
X133181668Y-115320817D01*
X133115001Y-115387484D01*
X133081668Y-115520817D01*
X133081668Y-115754151D01*
X133115001Y-115887484D01*
X133181668Y-115954151D01*
X133248335Y-115987485D01*
X133381668Y-115987485D01*
X133448335Y-115954151D01*
X133515002Y-115887484D01*
X133548335Y-115754151D01*
X133548335Y-115520817D01*
X133515002Y-115387484D01*
X133448335Y-115320817D01*
X133381668Y-115287484D01*
X132948334Y-116054151D02*
X132415000Y-116054151D01*
X132315000Y-115287484D02*
X131848333Y-115287484D01*
X132148333Y-115987485D01*
X134548337Y-114717485D02*
X134548337Y-114017484D01*
X134381670Y-114017484D01*
X134281670Y-114050817D01*
X134215003Y-114117484D01*
X134181669Y-114184151D01*
X134148336Y-114317484D01*
X134148336Y-114417484D01*
X134181669Y-114550818D01*
X134215003Y-114617484D01*
X134281670Y-114684151D01*
X134381670Y-114717485D01*
X134548337Y-114717485D01*
X133848336Y-114717485D02*
X133848336Y-114017484D01*
X133381668Y-114017484D02*
X133248335Y-114017484D01*
X133181668Y-114050817D01*
X133115001Y-114117484D01*
X133081668Y-114250817D01*
X133081668Y-114484151D01*
X133115001Y-114617484D01*
X133181668Y-114684151D01*
X133248335Y-114717485D01*
X133381668Y-114717485D01*
X133448335Y-114684151D01*
X133515002Y-114617484D01*
X133548335Y-114484151D01*
X133548335Y-114250817D01*
X133515002Y-114117484D01*
X133448335Y-114050817D01*
X133381668Y-114017484D01*
X132948334Y-114784151D02*
X132415000Y-114784151D01*
X132148333Y-114317484D02*
X132215000Y-114284151D01*
X132248333Y-114250817D01*
X132281667Y-114184151D01*
X132281667Y-114150817D01*
X132248333Y-114084150D01*
X132215000Y-114050817D01*
X132148333Y-114017484D01*
X132015000Y-114017484D01*
X131948333Y-114050817D01*
X131915000Y-114084150D01*
X131881666Y-114150817D01*
X131881666Y-114184151D01*
X131915000Y-114250817D01*
X131948333Y-114284151D01*
X132015000Y-114317484D01*
X132148333Y-114317484D01*
X132215000Y-114350817D01*
X132248333Y-114384151D01*
X132281667Y-114450818D01*
X132281667Y-114584151D01*
X132248333Y-114650818D01*
X132215000Y-114684151D01*
X132148333Y-114717485D01*
X132015000Y-114717485D01*
X131948333Y-114684151D01*
X131915000Y-114650818D01*
X131881666Y-114584151D01*
X131881666Y-114450818D01*
X131915000Y-114384151D01*
X131948333Y-114350817D01*
X132015000Y-114317484D01*
X134548337Y-112177485D02*
X134548337Y-111477484D01*
X134381670Y-111477484D01*
X134281670Y-111510817D01*
X134215003Y-111577484D01*
X134181669Y-111644151D01*
X134148336Y-111777484D01*
X134148336Y-111877484D01*
X134181669Y-112010818D01*
X134215003Y-112077484D01*
X134281670Y-112144151D01*
X134381670Y-112177485D01*
X134548337Y-112177485D01*
X133848336Y-112177485D02*
X133848336Y-111477484D01*
X133381668Y-111477484D02*
X133248335Y-111477484D01*
X133181668Y-111510817D01*
X133115001Y-111577484D01*
X133081668Y-111710817D01*
X133081668Y-111944151D01*
X133115001Y-112077484D01*
X133181668Y-112144151D01*
X133248335Y-112177485D01*
X133381668Y-112177485D01*
X133448335Y-112144151D01*
X133515002Y-112077484D01*
X133548335Y-111944151D01*
X133548335Y-111710817D01*
X133515002Y-111577484D01*
X133448335Y-111510817D01*
X133381668Y-111477484D01*
X132948334Y-112244151D02*
X132415000Y-112244151D01*
X131881666Y-112177485D02*
X132281667Y-112177485D01*
X132081666Y-112177485D02*
X132081666Y-111477484D01*
X132148333Y-111577484D01*
X132215000Y-111644151D01*
X132281667Y-111677484D01*
X131448332Y-111477484D02*
X131381665Y-111477484D01*
X131314999Y-111510817D01*
X131281665Y-111544150D01*
X131248332Y-111610817D01*
X131214999Y-111744151D01*
X131214999Y-111910818D01*
X131248332Y-112044151D01*
X131281665Y-112110818D01*
X131314999Y-112144151D01*
X131381665Y-112177485D01*
X131448332Y-112177485D01*
X131514999Y-112144151D01*
X131548332Y-112110818D01*
X131581666Y-112044151D01*
X131614999Y-111910818D01*
X131614999Y-111744151D01*
X131581666Y-111610817D01*
X131548332Y-111544150D01*
X131514999Y-111510817D01*
X131448332Y-111477484D01*
X134548337Y-108367485D02*
X134548337Y-107667484D01*
X134381670Y-107667484D01*
X134281670Y-107700817D01*
X134215003Y-107767484D01*
X134181669Y-107834151D01*
X134148336Y-107967484D01*
X134148336Y-108067484D01*
X134181669Y-108200818D01*
X134215003Y-108267484D01*
X134281670Y-108334151D01*
X134381670Y-108367485D01*
X134548337Y-108367485D01*
X133848336Y-108367485D02*
X133848336Y-107667484D01*
X133381668Y-107667484D02*
X133248335Y-107667484D01*
X133181668Y-107700817D01*
X133115001Y-107767484D01*
X133081668Y-107900817D01*
X133081668Y-108134151D01*
X133115001Y-108267484D01*
X133181668Y-108334151D01*
X133248335Y-108367485D01*
X133381668Y-108367485D01*
X133448335Y-108334151D01*
X133515002Y-108267484D01*
X133548335Y-108134151D01*
X133548335Y-107900817D01*
X133515002Y-107767484D01*
X133448335Y-107700817D01*
X133381668Y-107667484D01*
X132948334Y-108434151D02*
X132415000Y-108434151D01*
X131881666Y-108367485D02*
X132281667Y-108367485D01*
X132081666Y-108367485D02*
X132081666Y-107667484D01*
X132148333Y-107767484D01*
X132215000Y-107834151D01*
X132281667Y-107867484D01*
X131648332Y-107667484D02*
X131214999Y-107667484D01*
X131448332Y-107934151D01*
X131348332Y-107934151D01*
X131281665Y-107967484D01*
X131248332Y-108000817D01*
X131214999Y-108067484D01*
X131214999Y-108234151D01*
X131248332Y-108300818D01*
X131281665Y-108334151D01*
X131348332Y-108367485D01*
X131548332Y-108367485D01*
X131614999Y-108334151D01*
X131648332Y-108300818D01*
X134548337Y-105827485D02*
X134548337Y-105127484D01*
X134381670Y-105127484D01*
X134281670Y-105160817D01*
X134215003Y-105227484D01*
X134181669Y-105294151D01*
X134148336Y-105427484D01*
X134148336Y-105527484D01*
X134181669Y-105660818D01*
X134215003Y-105727484D01*
X134281670Y-105794151D01*
X134381670Y-105827485D01*
X134548337Y-105827485D01*
X133848336Y-105827485D02*
X133848336Y-105127484D01*
X133381668Y-105127484D02*
X133248335Y-105127484D01*
X133181668Y-105160817D01*
X133115001Y-105227484D01*
X133081668Y-105360817D01*
X133081668Y-105594151D01*
X133115001Y-105727484D01*
X133181668Y-105794151D01*
X133248335Y-105827485D01*
X133381668Y-105827485D01*
X133448335Y-105794151D01*
X133515002Y-105727484D01*
X133548335Y-105594151D01*
X133548335Y-105360817D01*
X133515002Y-105227484D01*
X133448335Y-105160817D01*
X133381668Y-105127484D01*
X132948334Y-105894151D02*
X132415000Y-105894151D01*
X131881666Y-105827485D02*
X132281667Y-105827485D01*
X132081666Y-105827485D02*
X132081666Y-105127484D01*
X132148333Y-105227484D01*
X132215000Y-105294151D01*
X132281667Y-105327484D01*
X131248332Y-105127484D02*
X131581666Y-105127484D01*
X131614999Y-105460817D01*
X131581666Y-105427484D01*
X131514999Y-105394151D01*
X131348332Y-105394151D01*
X131281665Y-105427484D01*
X131248332Y-105460817D01*
X131214999Y-105527484D01*
X131214999Y-105694151D01*
X131248332Y-105760818D01*
X131281665Y-105794151D01*
X131348332Y-105827485D01*
X131514999Y-105827485D01*
X131581666Y-105794151D01*
X131614999Y-105760818D01*
X134181669Y-103657645D02*
X134248336Y-103624312D01*
X134348336Y-103624312D01*
X134448336Y-103657645D01*
X134515003Y-103724312D01*
X134548337Y-103790979D01*
X134581670Y-103924312D01*
X134581670Y-104024312D01*
X134548337Y-104157646D01*
X134515003Y-104224312D01*
X134448336Y-104290979D01*
X134348336Y-104324313D01*
X134281670Y-104324313D01*
X134181669Y-104290979D01*
X134148336Y-104257646D01*
X134148336Y-104024312D01*
X134281670Y-104024312D01*
X133848336Y-104324313D02*
X133848336Y-103624312D01*
X133448335Y-104324313D01*
X133448335Y-103624312D01*
X133115001Y-104324313D02*
X133115001Y-103624312D01*
X132948334Y-103624312D01*
X132848334Y-103657645D01*
X132781667Y-103724312D01*
X132748334Y-103790979D01*
X132715001Y-103924312D01*
X132715001Y-104024312D01*
X132748334Y-104157646D01*
X132781667Y-104224312D01*
X132848334Y-104290979D01*
X132948334Y-104324313D01*
X133115001Y-104324313D01*
X134181669Y-116357645D02*
X134248336Y-116324312D01*
X134348336Y-116324312D01*
X134448336Y-116357645D01*
X134515003Y-116424312D01*
X134548337Y-116490979D01*
X134581670Y-116624312D01*
X134581670Y-116724312D01*
X134548337Y-116857646D01*
X134515003Y-116924312D01*
X134448336Y-116990979D01*
X134348336Y-117024313D01*
X134281670Y-117024313D01*
X134181669Y-116990979D01*
X134148336Y-116957646D01*
X134148336Y-116724312D01*
X134281670Y-116724312D01*
X133848336Y-117024313D02*
X133848336Y-116324312D01*
X133448335Y-117024313D01*
X133448335Y-116324312D01*
X133115001Y-117024313D02*
X133115001Y-116324312D01*
X132948334Y-116324312D01*
X132848334Y-116357645D01*
X132781667Y-116424312D01*
X132748334Y-116490979D01*
X132715001Y-116624312D01*
X132715001Y-116724312D01*
X132748334Y-116857646D01*
X132781667Y-116924312D01*
X132848334Y-116990979D01*
X132948334Y-117024313D01*
X133115001Y-117024313D01*
X134548337Y-113447485D02*
X134548337Y-112747484D01*
X134381670Y-112747484D01*
X134281670Y-112780817D01*
X134215003Y-112847484D01*
X134181669Y-112914151D01*
X134148336Y-113047484D01*
X134148336Y-113147484D01*
X134181669Y-113280818D01*
X134215003Y-113347484D01*
X134281670Y-113414151D01*
X134381670Y-113447485D01*
X134548337Y-113447485D01*
X133848336Y-113447485D02*
X133848336Y-112747484D01*
X133381668Y-112747484D02*
X133248335Y-112747484D01*
X133181668Y-112780817D01*
X133115001Y-112847484D01*
X133081668Y-112980817D01*
X133081668Y-113214151D01*
X133115001Y-113347484D01*
X133181668Y-113414151D01*
X133248335Y-113447485D01*
X133381668Y-113447485D01*
X133448335Y-113414151D01*
X133515002Y-113347484D01*
X133548335Y-113214151D01*
X133548335Y-112980817D01*
X133515002Y-112847484D01*
X133448335Y-112780817D01*
X133381668Y-112747484D01*
X132948334Y-113514151D02*
X132415000Y-113514151D01*
X132215000Y-113447485D02*
X132081666Y-113447485D01*
X132015000Y-113414151D01*
X131981666Y-113380818D01*
X131915000Y-113280818D01*
X131881666Y-113147484D01*
X131881666Y-112880817D01*
X131915000Y-112814150D01*
X131948333Y-112780817D01*
X132015000Y-112747484D01*
X132148333Y-112747484D01*
X132215000Y-112780817D01*
X132248333Y-112814150D01*
X132281667Y-112880817D01*
X132281667Y-113047484D01*
X132248333Y-113114151D01*
X132215000Y-113147484D01*
X132148333Y-113180818D01*
X132015000Y-113180818D01*
X131948333Y-113147484D01*
X131915000Y-113114151D01*
X131881666Y-113047484D01*
X134548337Y-110907485D02*
X134548337Y-110207484D01*
X134381670Y-110207484D01*
X134281670Y-110240817D01*
X134215003Y-110307484D01*
X134181669Y-110374151D01*
X134148336Y-110507484D01*
X134148336Y-110607484D01*
X134181669Y-110740818D01*
X134215003Y-110807484D01*
X134281670Y-110874151D01*
X134381670Y-110907485D01*
X134548337Y-110907485D01*
X133848336Y-110907485D02*
X133848336Y-110207484D01*
X133381668Y-110207484D02*
X133248335Y-110207484D01*
X133181668Y-110240817D01*
X133115001Y-110307484D01*
X133081668Y-110440817D01*
X133081668Y-110674151D01*
X133115001Y-110807484D01*
X133181668Y-110874151D01*
X133248335Y-110907485D01*
X133381668Y-110907485D01*
X133448335Y-110874151D01*
X133515002Y-110807484D01*
X133548335Y-110674151D01*
X133548335Y-110440817D01*
X133515002Y-110307484D01*
X133448335Y-110240817D01*
X133381668Y-110207484D01*
X132948334Y-110974151D02*
X132415000Y-110974151D01*
X131881666Y-110907485D02*
X132281667Y-110907485D01*
X132081666Y-110907485D02*
X132081666Y-110207484D01*
X132148333Y-110307484D01*
X132215000Y-110374151D01*
X132281667Y-110407484D01*
X131214999Y-110907485D02*
X131614999Y-110907485D01*
X131414999Y-110907485D02*
X131414999Y-110207484D01*
X131481666Y-110307484D01*
X131548332Y-110374151D01*
X131614999Y-110407484D01*
X134548337Y-109637485D02*
X134548337Y-108937484D01*
X134381670Y-108937484D01*
X134281670Y-108970817D01*
X134215003Y-109037484D01*
X134181669Y-109104151D01*
X134148336Y-109237484D01*
X134148336Y-109337484D01*
X134181669Y-109470818D01*
X134215003Y-109537484D01*
X134281670Y-109604151D01*
X134381670Y-109637485D01*
X134548337Y-109637485D01*
X133848336Y-109637485D02*
X133848336Y-108937484D01*
X133381668Y-108937484D02*
X133248335Y-108937484D01*
X133181668Y-108970817D01*
X133115001Y-109037484D01*
X133081668Y-109170817D01*
X133081668Y-109404151D01*
X133115001Y-109537484D01*
X133181668Y-109604151D01*
X133248335Y-109637485D01*
X133381668Y-109637485D01*
X133448335Y-109604151D01*
X133515002Y-109537484D01*
X133548335Y-109404151D01*
X133548335Y-109170817D01*
X133515002Y-109037484D01*
X133448335Y-108970817D01*
X133381668Y-108937484D01*
X132948334Y-109704151D02*
X132415000Y-109704151D01*
X131881666Y-109637485D02*
X132281667Y-109637485D01*
X132081666Y-109637485D02*
X132081666Y-108937484D01*
X132148333Y-109037484D01*
X132215000Y-109104151D01*
X132281667Y-109137484D01*
X131614999Y-109004150D02*
X131581666Y-108970817D01*
X131514999Y-108937484D01*
X131348332Y-108937484D01*
X131281665Y-108970817D01*
X131248332Y-109004150D01*
X131214999Y-109070817D01*
X131214999Y-109137484D01*
X131248332Y-109237484D01*
X131648332Y-109637485D01*
X131214999Y-109637485D01*
X134548337Y-107097485D02*
X134548337Y-106397484D01*
X134381670Y-106397484D01*
X134281670Y-106430817D01*
X134215003Y-106497484D01*
X134181669Y-106564151D01*
X134148336Y-106697484D01*
X134148336Y-106797484D01*
X134181669Y-106930818D01*
X134215003Y-106997484D01*
X134281670Y-107064151D01*
X134381670Y-107097485D01*
X134548337Y-107097485D01*
X133848336Y-107097485D02*
X133848336Y-106397484D01*
X133381668Y-106397484D02*
X133248335Y-106397484D01*
X133181668Y-106430817D01*
X133115001Y-106497484D01*
X133081668Y-106630817D01*
X133081668Y-106864151D01*
X133115001Y-106997484D01*
X133181668Y-107064151D01*
X133248335Y-107097485D01*
X133381668Y-107097485D01*
X133448335Y-107064151D01*
X133515002Y-106997484D01*
X133548335Y-106864151D01*
X133548335Y-106630817D01*
X133515002Y-106497484D01*
X133448335Y-106430817D01*
X133381668Y-106397484D01*
X132948334Y-107164151D02*
X132415000Y-107164151D01*
X131881666Y-107097485D02*
X132281667Y-107097485D01*
X132081666Y-107097485D02*
X132081666Y-106397484D01*
X132148333Y-106497484D01*
X132215000Y-106564151D01*
X132281667Y-106597484D01*
X131281665Y-106630817D02*
X131281665Y-107097485D01*
X131448332Y-106364150D02*
X131614999Y-106864151D01*
X131181665Y-106864151D01*
X134181669Y-102387645D02*
X134248336Y-102354312D01*
X134348336Y-102354312D01*
X134448336Y-102387645D01*
X134515003Y-102454312D01*
X134548337Y-102520979D01*
X134581670Y-102654312D01*
X134581670Y-102754312D01*
X134548337Y-102887646D01*
X134515003Y-102954312D01*
X134448336Y-103020979D01*
X134348336Y-103054313D01*
X134281670Y-103054313D01*
X134181669Y-103020979D01*
X134148336Y-102987646D01*
X134148336Y-102754312D01*
X134281670Y-102754312D01*
X133848336Y-103054313D02*
X133848336Y-102354312D01*
X133448335Y-103054313D01*
X133448335Y-102354312D01*
X133115001Y-103054313D02*
X133115001Y-102354312D01*
X132948334Y-102354312D01*
X132848334Y-102387645D01*
X132781667Y-102454312D01*
X132748334Y-102520979D01*
X132715001Y-102654312D01*
X132715001Y-102754312D01*
X132748334Y-102887646D01*
X132781667Y-102954312D01*
X132848334Y-103020979D01*
X132948334Y-103054313D01*
X133115001Y-103054313D01*
X140946561Y-90735950D02*
X140946561Y-91069284D01*
X141470371Y-91212141D02*
X141470371Y-90735950D01*
X140470370Y-90735950D01*
X140470370Y-91212141D01*
X140470370Y-91545475D02*
X140470370Y-92212142D01*
X141470371Y-91783570D01*
X140565608Y-92545476D02*
X140517989Y-92593095D01*
X140470370Y-92688333D01*
X140470370Y-92926429D01*
X140517989Y-93021667D01*
X140565608Y-93069286D01*
X140660846Y-93116905D01*
X140756084Y-93116905D01*
X140898942Y-93069286D01*
X141470371Y-92497857D01*
X141470371Y-93116905D01*
X141089418Y-93545477D02*
X141089418Y-94307383D01*
X140565608Y-94735954D02*
X140517989Y-94783573D01*
X140470370Y-94878812D01*
X140470370Y-95116907D01*
X140517989Y-95212145D01*
X140565608Y-95259764D01*
X140660846Y-95307384D01*
X140756084Y-95307384D01*
X140898942Y-95259764D01*
X141470371Y-94688335D01*
X141470371Y-95307384D01*
X140517989Y-96259765D02*
X140470370Y-96164527D01*
X140470370Y-96021670D01*
X140517989Y-95878813D01*
X140613227Y-95783574D01*
X140708465Y-95735955D01*
X140898942Y-95688336D01*
X141041799Y-95688336D01*
X141232275Y-95735955D01*
X141327514Y-95783574D01*
X141422752Y-95878813D01*
X141470371Y-96021670D01*
X141470371Y-96116908D01*
X141422752Y-96259765D01*
X141375133Y-96307385D01*
X141041799Y-96307385D01*
X141041799Y-96116908D01*
X140803704Y-97164528D02*
X141470371Y-97164528D01*
X140422751Y-96926433D02*
X141137037Y-96688337D01*
X141137037Y-97307386D01*
X141470371Y-97688338D02*
X140470370Y-97688338D01*
X141184656Y-98021672D01*
X140470370Y-98355006D01*
X141470371Y-98355006D01*
X140565608Y-98783577D02*
X140517989Y-98831197D01*
X140470370Y-98926435D01*
X140470370Y-99164530D01*
X140517989Y-99259768D01*
X140565608Y-99307388D01*
X140660846Y-99355007D01*
X140756084Y-99355007D01*
X140898942Y-99307388D01*
X141470371Y-98735958D01*
X141470371Y-99355007D01*
X140470370Y-99974055D02*
X140470370Y-100069293D01*
X140517989Y-100164531D01*
X140565608Y-100212150D01*
X140660846Y-100259769D01*
X140851323Y-100307389D01*
X141089418Y-100307389D01*
X141279895Y-100259769D01*
X141375133Y-100212150D01*
X141422752Y-100164531D01*
X141470371Y-100069293D01*
X141470371Y-99974055D01*
X141422752Y-99878817D01*
X141375133Y-99831198D01*
X141279895Y-99783578D01*
X141089418Y-99735959D01*
X140851323Y-99735959D01*
X140660846Y-99783578D01*
X140565608Y-99831198D01*
X140517989Y-99878817D01*
X140470370Y-99974055D01*
X141422752Y-100688341D02*
X141470371Y-100831199D01*
X141470371Y-101069294D01*
X141422752Y-101164532D01*
X141375133Y-101212151D01*
X141279895Y-101259770D01*
X141184656Y-101259770D01*
X141089418Y-101212151D01*
X141041799Y-101164532D01*
X140994180Y-101069294D01*
X140946561Y-100878818D01*
X140898942Y-100783579D01*
X140851323Y-100735960D01*
X140756084Y-100688341D01*
X140660846Y-100688341D01*
X140565608Y-100735960D01*
X140517989Y-100783579D01*
X140470370Y-100878818D01*
X140470370Y-101116913D01*
X140517989Y-101259770D01*
X141470371Y-102212152D02*
X141470371Y-101640723D01*
X141470371Y-101926438D02*
X140470370Y-101926438D01*
X140613227Y-101831200D01*
X140708465Y-101735961D01*
X140756084Y-101640723D01*
X140946561Y-102640724D02*
X140946561Y-102974058D01*
X141470371Y-103116915D02*
X141470371Y-102640724D01*
X140470370Y-102640724D01*
X140470370Y-103116915D01*
X146875921Y-114349962D02*
X146175920Y-114349962D01*
X146175920Y-114516629D01*
X146209253Y-114616629D01*
X146275920Y-114683296D01*
X146342587Y-114716629D01*
X146475920Y-114749962D01*
X146575920Y-114749962D01*
X146709254Y-114716629D01*
X146775920Y-114683296D01*
X146842587Y-114616629D01*
X146875921Y-114516629D01*
X146875921Y-114349962D01*
X146875921Y-115049963D02*
X146175920Y-115049963D01*
X146175920Y-115516630D02*
X146175920Y-115649964D01*
X146209253Y-115716631D01*
X146275920Y-115783297D01*
X146409253Y-115816631D01*
X146642587Y-115816631D01*
X146775920Y-115783297D01*
X146842587Y-115716631D01*
X146875921Y-115649964D01*
X146875921Y-115516630D01*
X146842587Y-115449963D01*
X146775920Y-115383297D01*
X146642587Y-115349963D01*
X146409253Y-115349963D01*
X146275920Y-115383297D01*
X146209253Y-115449963D01*
X146175920Y-115516630D01*
X146942587Y-115949964D02*
X146942587Y-116483298D01*
X146242586Y-116616632D02*
X146209253Y-116649965D01*
X146175920Y-116716632D01*
X146175920Y-116883299D01*
X146209253Y-116949966D01*
X146242586Y-116983299D01*
X146309253Y-117016632D01*
X146375920Y-117016632D01*
X146475920Y-116983299D01*
X146875921Y-116583298D01*
X146875921Y-117016632D01*
X146875921Y-117683300D02*
X146875921Y-117283299D01*
X146875921Y-117483300D02*
X146175920Y-117483300D01*
X146275920Y-117416633D01*
X146342587Y-117349966D01*
X146375920Y-117283299D01*
X143817530Y-115883297D02*
X144517531Y-116116631D01*
X143817530Y-116349965D01*
X144450864Y-116983299D02*
X144484197Y-116949966D01*
X144517531Y-116849965D01*
X144517531Y-116783299D01*
X144484197Y-116683299D01*
X144417530Y-116616632D01*
X144350864Y-116583298D01*
X144217530Y-116549965D01*
X144117530Y-116549965D01*
X143984197Y-116583298D01*
X143917530Y-116616632D01*
X143850863Y-116683299D01*
X143817530Y-116783299D01*
X143817530Y-116849965D01*
X143850863Y-116949966D01*
X143884196Y-116983299D01*
X144450864Y-117683300D02*
X144484197Y-117649967D01*
X144517531Y-117549966D01*
X144517531Y-117483300D01*
X144484197Y-117383300D01*
X144417530Y-117316633D01*
X144350864Y-117283299D01*
X144217530Y-117249966D01*
X144117530Y-117249966D01*
X143984197Y-117283299D01*
X143917530Y-117316633D01*
X143850863Y-117383300D01*
X143817530Y-117483300D01*
X143817530Y-117549966D01*
X143850863Y-117649967D01*
X143884196Y-117683300D01*
X142554955Y-116216631D02*
X142521622Y-116149964D01*
X142521622Y-116049964D01*
X142554955Y-115949964D01*
X142621622Y-115883297D01*
X142688289Y-115849964D01*
X142821622Y-115816631D01*
X142921622Y-115816631D01*
X143054956Y-115849964D01*
X143121622Y-115883297D01*
X143188289Y-115949964D01*
X143221623Y-116049964D01*
X143221623Y-116116631D01*
X143188289Y-116216631D01*
X143154956Y-116249965D01*
X142921622Y-116249965D01*
X142921622Y-116116631D01*
X143221623Y-116549965D02*
X142521622Y-116549965D01*
X143221623Y-116949966D01*
X142521622Y-116949966D01*
X143221623Y-117283299D02*
X142521622Y-117283299D01*
X142521622Y-117449966D01*
X142554955Y-117549966D01*
X142621622Y-117616633D01*
X142688289Y-117649967D01*
X142821622Y-117683300D01*
X142921622Y-117683300D01*
X143054956Y-117649967D01*
X143121622Y-117616633D01*
X143188289Y-117549966D01*
X143221623Y-117449966D01*
X143221623Y-117283299D01*
X140396381Y-114349962D02*
X139696380Y-114349962D01*
X139696380Y-114516629D01*
X139729713Y-114616629D01*
X139796380Y-114683296D01*
X139863047Y-114716629D01*
X139996380Y-114749962D01*
X140096380Y-114749962D01*
X140229714Y-114716629D01*
X140296380Y-114683296D01*
X140363047Y-114616629D01*
X140396381Y-114516629D01*
X140396381Y-114349962D01*
X140396381Y-115049963D02*
X139696380Y-115049963D01*
X139696380Y-115516630D02*
X139696380Y-115649964D01*
X139729713Y-115716631D01*
X139796380Y-115783297D01*
X139929713Y-115816631D01*
X140163047Y-115816631D01*
X140296380Y-115783297D01*
X140363047Y-115716631D01*
X140396381Y-115649964D01*
X140396381Y-115516630D01*
X140363047Y-115449963D01*
X140296380Y-115383297D01*
X140163047Y-115349963D01*
X139929713Y-115349963D01*
X139796380Y-115383297D01*
X139729713Y-115449963D01*
X139696380Y-115516630D01*
X140463047Y-115949964D02*
X140463047Y-116483298D01*
X140396381Y-117016632D02*
X140396381Y-116616632D01*
X140396381Y-116816632D02*
X139696380Y-116816632D01*
X139796380Y-116749965D01*
X139863047Y-116683299D01*
X139896380Y-116616632D01*
X139996380Y-117416633D02*
X139963047Y-117349966D01*
X139929713Y-117316633D01*
X139863047Y-117283299D01*
X139829713Y-117283299D01*
X139763046Y-117316633D01*
X139729713Y-117349966D01*
X139696380Y-117416633D01*
X139696380Y-117549966D01*
X139729713Y-117616633D01*
X139763046Y-117649967D01*
X139829713Y-117683300D01*
X139863047Y-117683300D01*
X139929713Y-117649967D01*
X139963047Y-117616633D01*
X139996380Y-117549966D01*
X139996380Y-117416633D01*
X140029713Y-117349966D01*
X140063047Y-117316633D01*
X140129714Y-117283299D01*
X140263047Y-117283299D01*
X140329714Y-117316633D01*
X140363047Y-117349966D01*
X140396381Y-117416633D01*
X140396381Y-117549966D01*
X140363047Y-117616633D01*
X140329714Y-117649967D01*
X140263047Y-117683300D01*
X140129714Y-117683300D01*
X140063047Y-117649967D01*
X140029713Y-117616633D01*
X139996380Y-117549966D01*
X136041828Y-115249963D02*
X136041828Y-115649964D01*
X136741829Y-115449963D02*
X136041828Y-115449963D01*
X136675162Y-116283298D02*
X136708495Y-116249965D01*
X136741829Y-116149964D01*
X136741829Y-116083298D01*
X136708495Y-115983298D01*
X136641828Y-115916631D01*
X136575162Y-115883297D01*
X136441828Y-115849964D01*
X136341828Y-115849964D01*
X136208495Y-115883297D01*
X136141828Y-115916631D01*
X136075161Y-115983298D01*
X136041828Y-116083298D01*
X136041828Y-116149964D01*
X136075161Y-116249965D01*
X136108494Y-116283298D01*
X136741829Y-116583298D02*
X136041828Y-116583298D01*
X136741829Y-116983299D02*
X136341828Y-116683299D01*
X136041828Y-116983299D02*
X136441828Y-116583298D01*
X136675162Y-117683300D02*
X136708495Y-117649967D01*
X136741829Y-117549966D01*
X136741829Y-117483300D01*
X136708495Y-117383300D01*
X136641828Y-117316633D01*
X136575162Y-117283299D01*
X136441828Y-117249966D01*
X136341828Y-117249966D01*
X136208495Y-117283299D01*
X136141828Y-117316633D01*
X136075161Y-117383300D01*
X136041828Y-117483300D01*
X136041828Y-117549966D01*
X136075161Y-117649967D01*
X136108494Y-117683300D01*
X145580013Y-114349962D02*
X144880012Y-114349962D01*
X144880012Y-114516629D01*
X144913345Y-114616629D01*
X144980012Y-114683296D01*
X145046679Y-114716629D01*
X145180012Y-114749962D01*
X145280012Y-114749962D01*
X145413346Y-114716629D01*
X145480012Y-114683296D01*
X145546679Y-114616629D01*
X145580013Y-114516629D01*
X145580013Y-114349962D01*
X145580013Y-115049963D02*
X144880012Y-115049963D01*
X144880012Y-115516630D02*
X144880012Y-115649964D01*
X144913345Y-115716631D01*
X144980012Y-115783297D01*
X145113345Y-115816631D01*
X145346679Y-115816631D01*
X145480012Y-115783297D01*
X145546679Y-115716631D01*
X145580013Y-115649964D01*
X145580013Y-115516630D01*
X145546679Y-115449963D01*
X145480012Y-115383297D01*
X145346679Y-115349963D01*
X145113345Y-115349963D01*
X144980012Y-115383297D01*
X144913345Y-115449963D01*
X144880012Y-115516630D01*
X145646679Y-115949964D02*
X145646679Y-116483298D01*
X144946678Y-116616632D02*
X144913345Y-116649965D01*
X144880012Y-116716632D01*
X144880012Y-116883299D01*
X144913345Y-116949966D01*
X144946678Y-116983299D01*
X145013345Y-117016632D01*
X145080012Y-117016632D01*
X145180012Y-116983299D01*
X145580013Y-116583298D01*
X145580013Y-117016632D01*
X144880012Y-117449966D02*
X144880012Y-117516633D01*
X144913345Y-117583300D01*
X144946678Y-117616633D01*
X145013345Y-117649967D01*
X145146679Y-117683300D01*
X145313346Y-117683300D01*
X145446679Y-117649967D01*
X145513346Y-117616633D01*
X145546679Y-117583300D01*
X145580013Y-117516633D01*
X145580013Y-117449966D01*
X145546679Y-117383300D01*
X145513346Y-117349966D01*
X145446679Y-117316633D01*
X145313346Y-117283299D01*
X145146679Y-117283299D01*
X145013345Y-117316633D01*
X144946678Y-117349966D01*
X144913345Y-117383300D01*
X144880012Y-117449966D01*
X134745920Y-115183296D02*
X134745920Y-115583297D01*
X135445921Y-115383297D02*
X134745920Y-115383297D01*
X135445921Y-115816631D02*
X134745920Y-115816631D01*
X135245920Y-116049964D01*
X134745920Y-116283298D01*
X135445921Y-116283298D01*
X135412587Y-116583298D02*
X135445921Y-116683299D01*
X135445921Y-116849965D01*
X135412587Y-116916632D01*
X135379254Y-116949966D01*
X135312587Y-116983299D01*
X135245920Y-116983299D01*
X135179254Y-116949966D01*
X135145920Y-116916632D01*
X135112587Y-116849965D01*
X135079253Y-116716632D01*
X135045920Y-116649965D01*
X135012587Y-116616632D01*
X134945920Y-116583298D01*
X134879253Y-116583298D01*
X134812586Y-116616632D01*
X134779253Y-116649965D01*
X134745920Y-116716632D01*
X134745920Y-116883299D01*
X134779253Y-116983299D01*
X135379254Y-117683300D02*
X135412587Y-117649967D01*
X135445921Y-117549966D01*
X135445921Y-117483300D01*
X135412587Y-117383300D01*
X135345920Y-117316633D01*
X135279254Y-117283299D01*
X135145920Y-117249966D01*
X135045920Y-117249966D01*
X134912587Y-117283299D01*
X134845920Y-117316633D01*
X134779253Y-117383300D01*
X134745920Y-117483300D01*
X134745920Y-117549966D01*
X134779253Y-117649967D01*
X134812586Y-117683300D01*
X137804565Y-114349962D02*
X137104564Y-114349962D01*
X137104564Y-114516629D01*
X137137897Y-114616629D01*
X137204564Y-114683296D01*
X137271231Y-114716629D01*
X137404564Y-114749962D01*
X137504564Y-114749962D01*
X137637898Y-114716629D01*
X137704564Y-114683296D01*
X137771231Y-114616629D01*
X137804565Y-114516629D01*
X137804565Y-114349962D01*
X137804565Y-115049963D02*
X137104564Y-115049963D01*
X137104564Y-115516630D02*
X137104564Y-115649964D01*
X137137897Y-115716631D01*
X137204564Y-115783297D01*
X137337897Y-115816631D01*
X137571231Y-115816631D01*
X137704564Y-115783297D01*
X137771231Y-115716631D01*
X137804565Y-115649964D01*
X137804565Y-115516630D01*
X137771231Y-115449963D01*
X137704564Y-115383297D01*
X137571231Y-115349963D01*
X137337897Y-115349963D01*
X137204564Y-115383297D01*
X137137897Y-115449963D01*
X137104564Y-115516630D01*
X137871231Y-115949964D02*
X137871231Y-116483298D01*
X137804565Y-117016632D02*
X137804565Y-116616632D01*
X137804565Y-116816632D02*
X137104564Y-116816632D01*
X137204564Y-116749965D01*
X137271231Y-116683299D01*
X137304564Y-116616632D01*
X137104564Y-117616633D02*
X137104564Y-117483300D01*
X137137897Y-117416633D01*
X137171230Y-117383300D01*
X137271231Y-117316633D01*
X137404564Y-117283299D01*
X137671231Y-117283299D01*
X137737898Y-117316633D01*
X137771231Y-117349966D01*
X137804565Y-117416633D01*
X137804565Y-117549966D01*
X137771231Y-117616633D01*
X137737898Y-117649967D01*
X137671231Y-117683300D01*
X137504564Y-117683300D01*
X137437897Y-117649967D01*
X137404564Y-117616633D01*
X137371231Y-117549966D01*
X137371231Y-117416633D01*
X137404564Y-117349966D01*
X137437897Y-117316633D01*
X137504564Y-117283299D01*
X139100473Y-114349962D02*
X138400472Y-114349962D01*
X138400472Y-114516629D01*
X138433805Y-114616629D01*
X138500472Y-114683296D01*
X138567139Y-114716629D01*
X138700472Y-114749962D01*
X138800472Y-114749962D01*
X138933806Y-114716629D01*
X139000472Y-114683296D01*
X139067139Y-114616629D01*
X139100473Y-114516629D01*
X139100473Y-114349962D01*
X139100473Y-115049963D02*
X138400472Y-115049963D01*
X138400472Y-115516630D02*
X138400472Y-115649964D01*
X138433805Y-115716631D01*
X138500472Y-115783297D01*
X138633805Y-115816631D01*
X138867139Y-115816631D01*
X139000472Y-115783297D01*
X139067139Y-115716631D01*
X139100473Y-115649964D01*
X139100473Y-115516630D01*
X139067139Y-115449963D01*
X139000472Y-115383297D01*
X138867139Y-115349963D01*
X138633805Y-115349963D01*
X138500472Y-115383297D01*
X138433805Y-115449963D01*
X138400472Y-115516630D01*
X139167139Y-115949964D02*
X139167139Y-116483298D01*
X139100473Y-117016632D02*
X139100473Y-116616632D01*
X139100473Y-116816632D02*
X138400472Y-116816632D01*
X138500472Y-116749965D01*
X138567139Y-116683299D01*
X138600472Y-116616632D01*
X138400472Y-117249966D02*
X138400472Y-117716633D01*
X139100473Y-117416633D01*
X141692289Y-114349962D02*
X140992288Y-114349962D01*
X140992288Y-114516629D01*
X141025621Y-114616629D01*
X141092288Y-114683296D01*
X141158955Y-114716629D01*
X141292288Y-114749962D01*
X141392288Y-114749962D01*
X141525622Y-114716629D01*
X141592288Y-114683296D01*
X141658955Y-114616629D01*
X141692289Y-114516629D01*
X141692289Y-114349962D01*
X141692289Y-115049963D02*
X140992288Y-115049963D01*
X140992288Y-115516630D02*
X140992288Y-115649964D01*
X141025621Y-115716631D01*
X141092288Y-115783297D01*
X141225621Y-115816631D01*
X141458955Y-115816631D01*
X141592288Y-115783297D01*
X141658955Y-115716631D01*
X141692289Y-115649964D01*
X141692289Y-115516630D01*
X141658955Y-115449963D01*
X141592288Y-115383297D01*
X141458955Y-115349963D01*
X141225621Y-115349963D01*
X141092288Y-115383297D01*
X141025621Y-115449963D01*
X140992288Y-115516630D01*
X141758955Y-115949964D02*
X141758955Y-116483298D01*
X141692289Y-117016632D02*
X141692289Y-116616632D01*
X141692289Y-116816632D02*
X140992288Y-116816632D01*
X141092288Y-116749965D01*
X141158955Y-116683299D01*
X141192288Y-116616632D01*
X141692289Y-117349966D02*
X141692289Y-117483300D01*
X141658955Y-117549966D01*
X141625622Y-117583300D01*
X141525622Y-117649967D01*
X141392288Y-117683300D01*
X141125621Y-117683300D01*
X141058954Y-117649967D01*
X141025621Y-117616633D01*
X140992288Y-117549966D01*
X140992288Y-117416633D01*
X141025621Y-117349966D01*
X141058954Y-117316633D01*
X141125621Y-117283299D01*
X141292288Y-117283299D01*
X141358955Y-117316633D01*
X141392288Y-117349966D01*
X141425622Y-117416633D01*
X141425622Y-117549966D01*
X141392288Y-117616633D01*
X141358955Y-117649967D01*
X141292288Y-117683300D01*
%TD*%
M02*
