%TF.GenerationSoftware,KiCad,Pcbnew,(5.1.7-0-10_14)*%
%TF.CreationDate,2020-11-05T11:20:50+08:00*%
%TF.ProjectId,bbb_cape,6262625f-6361-4706-952e-6b696361645f,rev?*%
%TF.SameCoordinates,Original*%
%TF.FileFunction,Soldermask,Bot*%
%TF.FilePolarity,Negative*%
%FSLAX46Y46*%
G04 Gerber Fmt 4.6, Leading zero omitted, Abs format (unit mm)*
G04 Created by KiCad (PCBNEW (5.1.7-0-10_14)) date 2020-11-05 11:20:50*
%MOMM*%
%LPD*%
G01*
G04 APERTURE LIST*
%ADD10O,1.000000X1.000000*%
%ADD11R,1.000000X1.000000*%
%ADD12R,0.600000X1.450000*%
%ADD13R,0.300000X1.450000*%
%ADD14O,1.000000X2.100000*%
%ADD15C,0.650000*%
%ADD16O,1.000000X1.600000*%
%ADD17R,0.800001X2.000001*%
%ADD18R,2.000001X0.800001*%
%ADD19R,1.727200X1.727200*%
%ADD20O,1.727200X1.727200*%
G04 APERTURE END LIST*
D10*
%TO.C,CON1*%
X126485100Y-94222400D03*
X125215100Y-94222400D03*
X126485100Y-95492400D03*
X125215100Y-95492400D03*
X126485100Y-96762400D03*
X125215100Y-96762400D03*
X126485100Y-98032400D03*
X125215100Y-98032400D03*
X125215100Y-99302400D03*
D11*
X126485100Y-99302400D03*
%TD*%
%TO.C,R3*%
G36*
G01*
X141567600Y-79257400D02*
X141092600Y-79257400D01*
G75*
G02*
X140855100Y-79019900I0J237500D01*
G01*
X140855100Y-78519900D01*
G75*
G02*
X141092600Y-78282400I237500J0D01*
G01*
X141567600Y-78282400D01*
G75*
G02*
X141805100Y-78519900I0J-237500D01*
G01*
X141805100Y-79019900D01*
G75*
G02*
X141567600Y-79257400I-237500J0D01*
G01*
G37*
G36*
G01*
X141567600Y-81082400D02*
X141092600Y-81082400D01*
G75*
G02*
X140855100Y-80844900I0J237500D01*
G01*
X140855100Y-80344900D01*
G75*
G02*
X141092600Y-80107400I237500J0D01*
G01*
X141567600Y-80107400D01*
G75*
G02*
X141805100Y-80344900I0J-237500D01*
G01*
X141805100Y-80844900D01*
G75*
G02*
X141567600Y-81082400I-237500J0D01*
G01*
G37*
%TD*%
%TO.C,R2*%
G36*
G01*
X137435100Y-80859900D02*
X137435100Y-80384900D01*
G75*
G02*
X137672600Y-80147400I237500J0D01*
G01*
X138172600Y-80147400D01*
G75*
G02*
X138410100Y-80384900I0J-237500D01*
G01*
X138410100Y-80859900D01*
G75*
G02*
X138172600Y-81097400I-237500J0D01*
G01*
X137672600Y-81097400D01*
G75*
G02*
X137435100Y-80859900I0J237500D01*
G01*
G37*
G36*
G01*
X135610100Y-80859900D02*
X135610100Y-80384900D01*
G75*
G02*
X135847600Y-80147400I237500J0D01*
G01*
X136347600Y-80147400D01*
G75*
G02*
X136585100Y-80384900I0J-237500D01*
G01*
X136585100Y-80859900D01*
G75*
G02*
X136347600Y-81097400I-237500J0D01*
G01*
X135847600Y-81097400D01*
G75*
G02*
X135610100Y-80859900I0J237500D01*
G01*
G37*
%TD*%
%TO.C,R1*%
G36*
G01*
X149052600Y-79357400D02*
X149527600Y-79357400D01*
G75*
G02*
X149765100Y-79594900I0J-237500D01*
G01*
X149765100Y-80094900D01*
G75*
G02*
X149527600Y-80332400I-237500J0D01*
G01*
X149052600Y-80332400D01*
G75*
G02*
X148815100Y-80094900I0J237500D01*
G01*
X148815100Y-79594900D01*
G75*
G02*
X149052600Y-79357400I237500J0D01*
G01*
G37*
G36*
G01*
X149052600Y-77532400D02*
X149527600Y-77532400D01*
G75*
G02*
X149765100Y-77769900I0J-237500D01*
G01*
X149765100Y-78269900D01*
G75*
G02*
X149527600Y-78507400I-237500J0D01*
G01*
X149052600Y-78507400D01*
G75*
G02*
X148815100Y-78269900I0J237500D01*
G01*
X148815100Y-77769900D01*
G75*
G02*
X149052600Y-77532400I237500J0D01*
G01*
G37*
%TD*%
%TO.C,C6*%
G36*
G01*
X152945100Y-79322400D02*
X153895100Y-79322400D01*
G75*
G02*
X154145100Y-79572400I0J-250000D01*
G01*
X154145100Y-80247400D01*
G75*
G02*
X153895100Y-80497400I-250000J0D01*
G01*
X152945100Y-80497400D01*
G75*
G02*
X152695100Y-80247400I0J250000D01*
G01*
X152695100Y-79572400D01*
G75*
G02*
X152945100Y-79322400I250000J0D01*
G01*
G37*
G36*
G01*
X152945100Y-77247400D02*
X153895100Y-77247400D01*
G75*
G02*
X154145100Y-77497400I0J-250000D01*
G01*
X154145100Y-78172400D01*
G75*
G02*
X153895100Y-78422400I-250000J0D01*
G01*
X152945100Y-78422400D01*
G75*
G02*
X152695100Y-78172400I0J250000D01*
G01*
X152695100Y-77497400D01*
G75*
G02*
X152945100Y-77247400I250000J0D01*
G01*
G37*
%TD*%
%TO.C,C5*%
G36*
G01*
X150875100Y-79322400D02*
X151825100Y-79322400D01*
G75*
G02*
X152075100Y-79572400I0J-250000D01*
G01*
X152075100Y-80247400D01*
G75*
G02*
X151825100Y-80497400I-250000J0D01*
G01*
X150875100Y-80497400D01*
G75*
G02*
X150625100Y-80247400I0J250000D01*
G01*
X150625100Y-79572400D01*
G75*
G02*
X150875100Y-79322400I250000J0D01*
G01*
G37*
G36*
G01*
X150875100Y-77247400D02*
X151825100Y-77247400D01*
G75*
G02*
X152075100Y-77497400I0J-250000D01*
G01*
X152075100Y-78172400D01*
G75*
G02*
X151825100Y-78422400I-250000J0D01*
G01*
X150875100Y-78422400D01*
G75*
G02*
X150625100Y-78172400I0J250000D01*
G01*
X150625100Y-77497400D01*
G75*
G02*
X150875100Y-77247400I250000J0D01*
G01*
G37*
%TD*%
%TO.C,C4*%
G36*
G01*
X133925100Y-78202400D02*
X132975100Y-78202400D01*
G75*
G02*
X132725100Y-77952400I0J250000D01*
G01*
X132725100Y-77277400D01*
G75*
G02*
X132975100Y-77027400I250000J0D01*
G01*
X133925100Y-77027400D01*
G75*
G02*
X134175100Y-77277400I0J-250000D01*
G01*
X134175100Y-77952400D01*
G75*
G02*
X133925100Y-78202400I-250000J0D01*
G01*
G37*
G36*
G01*
X133925100Y-80277400D02*
X132975100Y-80277400D01*
G75*
G02*
X132725100Y-80027400I0J250000D01*
G01*
X132725100Y-79352400D01*
G75*
G02*
X132975100Y-79102400I250000J0D01*
G01*
X133925100Y-79102400D01*
G75*
G02*
X134175100Y-79352400I0J-250000D01*
G01*
X134175100Y-80027400D01*
G75*
G02*
X133925100Y-80277400I-250000J0D01*
G01*
G37*
%TD*%
%TO.C,C3*%
G36*
G01*
X131735100Y-80922400D02*
X130785100Y-80922400D01*
G75*
G02*
X130535100Y-80672400I0J250000D01*
G01*
X130535100Y-79997400D01*
G75*
G02*
X130785100Y-79747400I250000J0D01*
G01*
X131735100Y-79747400D01*
G75*
G02*
X131985100Y-79997400I0J-250000D01*
G01*
X131985100Y-80672400D01*
G75*
G02*
X131735100Y-80922400I-250000J0D01*
G01*
G37*
G36*
G01*
X131735100Y-82997400D02*
X130785100Y-82997400D01*
G75*
G02*
X130535100Y-82747400I0J250000D01*
G01*
X130535100Y-82072400D01*
G75*
G02*
X130785100Y-81822400I250000J0D01*
G01*
X131735100Y-81822400D01*
G75*
G02*
X131985100Y-82072400I0J-250000D01*
G01*
X131985100Y-82747400D01*
G75*
G02*
X131735100Y-82997400I-250000J0D01*
G01*
G37*
%TD*%
%TO.C,C2*%
G36*
G01*
X139847600Y-79377400D02*
X139372600Y-79377400D01*
G75*
G02*
X139135100Y-79139900I0J237500D01*
G01*
X139135100Y-78539900D01*
G75*
G02*
X139372600Y-78302400I237500J0D01*
G01*
X139847600Y-78302400D01*
G75*
G02*
X140085100Y-78539900I0J-237500D01*
G01*
X140085100Y-79139900D01*
G75*
G02*
X139847600Y-79377400I-237500J0D01*
G01*
G37*
G36*
G01*
X139847600Y-81102400D02*
X139372600Y-81102400D01*
G75*
G02*
X139135100Y-80864900I0J237500D01*
G01*
X139135100Y-80264900D01*
G75*
G02*
X139372600Y-80027400I237500J0D01*
G01*
X139847600Y-80027400D01*
G75*
G02*
X140085100Y-80264900I0J-237500D01*
G01*
X140085100Y-80864900D01*
G75*
G02*
X139847600Y-81102400I-237500J0D01*
G01*
G37*
%TD*%
D12*
%TO.C,J1*%
X164190100Y-58167400D03*
X163390100Y-58167400D03*
X158490100Y-58167400D03*
X157690100Y-58167400D03*
X157690100Y-58167400D03*
X158490100Y-58167400D03*
X163390100Y-58167400D03*
X164190100Y-58167400D03*
D13*
X159190100Y-58167400D03*
X159690100Y-58167400D03*
X160190100Y-58167400D03*
X161190100Y-58167400D03*
X161690100Y-58167400D03*
X162190100Y-58167400D03*
X162690100Y-58167400D03*
X160690100Y-58167400D03*
D14*
X165260100Y-57252400D03*
X156620100Y-57252400D03*
D15*
X158050100Y-56722400D03*
D16*
X156620100Y-53072400D03*
D15*
X163830100Y-56722400D03*
D16*
X165260100Y-53072400D03*
%TD*%
D17*
%TO.C,U1*%
X135815054Y-99372400D03*
X137085054Y-99372400D03*
X138355054Y-99372400D03*
X139625054Y-99372400D03*
D18*
X132780008Y-116377446D03*
X132780008Y-115107446D03*
X132780008Y-113837446D03*
X132780008Y-112567446D03*
X132780008Y-111297446D03*
X132780008Y-110027446D03*
X132780008Y-108757446D03*
X132780008Y-107487446D03*
X132780008Y-106217446D03*
X132780008Y-104947446D03*
X132780008Y-103677446D03*
X132780008Y-102407446D03*
X150280100Y-102407446D03*
X150280100Y-103677446D03*
X150280100Y-104947446D03*
X150280100Y-106217446D03*
X150280100Y-107487446D03*
X150280100Y-108757446D03*
X150280100Y-110027446D03*
X150280100Y-111297446D03*
X150280100Y-112567446D03*
X150280100Y-113837446D03*
X150280100Y-115107446D03*
X150280100Y-116377446D03*
D17*
X140895054Y-99372400D03*
X142165054Y-99372400D03*
X143435054Y-99372400D03*
X144705054Y-99372400D03*
X145975054Y-99372400D03*
X147245054Y-99372400D03*
%TD*%
D19*
%TO.C,P8*%
X164630100Y-62382400D03*
D20*
X167170100Y-62382400D03*
X164630100Y-64922400D03*
X167170100Y-64922400D03*
X164630100Y-67462400D03*
X167170100Y-67462400D03*
X164630100Y-70002400D03*
X167170100Y-70002400D03*
X164630100Y-72542400D03*
X167170100Y-72542400D03*
X164630100Y-75082400D03*
X167170100Y-75082400D03*
X164630100Y-77622400D03*
X167170100Y-77622400D03*
X164630100Y-80162400D03*
X167170100Y-80162400D03*
X164630100Y-82702400D03*
X167170100Y-82702400D03*
X164630100Y-85242400D03*
X167170100Y-85242400D03*
X164630100Y-87782400D03*
X167170100Y-87782400D03*
X164630100Y-90322400D03*
X167170100Y-90322400D03*
X164630100Y-92862400D03*
X167170100Y-92862400D03*
X164630100Y-95402400D03*
X167170100Y-95402400D03*
X164630100Y-97942400D03*
X167170100Y-97942400D03*
X164630100Y-100482400D03*
X167170100Y-100482400D03*
X164630100Y-103022400D03*
X167170100Y-103022400D03*
X164630100Y-105562400D03*
X167170100Y-105562400D03*
X164630100Y-108102400D03*
X167170100Y-108102400D03*
X164630100Y-110642400D03*
X167170100Y-110642400D03*
X164630100Y-113182400D03*
X167170100Y-113182400D03*
X164630100Y-115722400D03*
X167170100Y-115722400D03*
X164630100Y-118262400D03*
X167170100Y-118262400D03*
%TD*%
D19*
%TO.C,P9*%
X116370100Y-62382400D03*
D20*
X118910100Y-62382400D03*
X116370100Y-64922400D03*
X118910100Y-64922400D03*
X116370100Y-67462400D03*
X118910100Y-67462400D03*
X116370100Y-70002400D03*
X118910100Y-70002400D03*
X116370100Y-72542400D03*
X118910100Y-72542400D03*
X116370100Y-75082400D03*
X118910100Y-75082400D03*
X116370100Y-77622400D03*
X118910100Y-77622400D03*
X116370100Y-80162400D03*
X118910100Y-80162400D03*
X116370100Y-82702400D03*
X118910100Y-82702400D03*
X116370100Y-85242400D03*
X118910100Y-85242400D03*
X116370100Y-87782400D03*
X118910100Y-87782400D03*
X116370100Y-90322400D03*
X118910100Y-90322400D03*
X116370100Y-92862400D03*
X118910100Y-92862400D03*
X116370100Y-95402400D03*
X118910100Y-95402400D03*
X116370100Y-97942400D03*
X118910100Y-97942400D03*
X116370100Y-100482400D03*
X118910100Y-100482400D03*
X116370100Y-103022400D03*
X118910100Y-103022400D03*
X116370100Y-105562400D03*
X118910100Y-105562400D03*
X116370100Y-108102400D03*
X118910100Y-108102400D03*
X116370100Y-110642400D03*
X118910100Y-110642400D03*
X116370100Y-113182400D03*
X118910100Y-113182400D03*
X116370100Y-115722400D03*
X118910100Y-115722400D03*
X116370100Y-118262400D03*
X118910100Y-118262400D03*
%TD*%
M02*
