%TF.GenerationSoftware,KiCad,Pcbnew,(5.1.7-0-10_14)*%
%TF.CreationDate,2020-11-05T11:20:50+08:00*%
%TF.ProjectId,bbb_cape,6262625f-6361-4706-952e-6b696361645f,rev?*%
%TF.SameCoordinates,Original*%
%TF.FileFunction,Copper,L1,Top*%
%TF.FilePolarity,Positive*%
%FSLAX46Y46*%
G04 Gerber Fmt 4.6, Leading zero omitted, Abs format (unit mm)*
G04 Created by KiCad (PCBNEW (5.1.7-0-10_14)) date 2020-11-05 11:20:50*
%MOMM*%
%LPD*%
G01*
G04 APERTURE LIST*
%TA.AperFunction,ComponentPad*%
%ADD10O,1.000000X1.000000*%
%TD*%
%TA.AperFunction,ComponentPad*%
%ADD11R,1.000000X1.000000*%
%TD*%
%TA.AperFunction,SMDPad,CuDef*%
%ADD12R,0.899998X1.699997*%
%TD*%
%TA.AperFunction,SMDPad,CuDef*%
%ADD13R,0.399999X1.999996*%
%TD*%
%TA.AperFunction,ComponentPad*%
%ADD14O,1.000000X2.100000*%
%TD*%
%TA.AperFunction,ComponentPad*%
%ADD15O,1.000000X1.600000*%
%TD*%
%TA.AperFunction,SMDPad,CuDef*%
%ADD16R,1.699997X0.899998*%
%TD*%
%TA.AperFunction,ComponentPad*%
%ADD17R,1.727200X1.727200*%
%TD*%
%TA.AperFunction,ComponentPad*%
%ADD18O,1.727200X1.727200*%
%TD*%
%TA.AperFunction,ViaPad*%
%ADD19C,0.600000*%
%TD*%
%TA.AperFunction,Conductor*%
%ADD20C,0.250000*%
%TD*%
%TA.AperFunction,Conductor*%
%ADD21C,0.500000*%
%TD*%
G04 APERTURE END LIST*
D10*
%TO.P,CON1,9*%
%TO.N,GND*%
X126485100Y-94222400D03*
%TO.P,CON1,10*%
%TO.N,/nRESET*%
X125215100Y-94222400D03*
%TO.P,CON1,7*%
%TO.N,Net-(CON1-Pad7)*%
X126485100Y-95492400D03*
%TO.P,CON1,8*%
%TO.N,/DIO_17*%
X125215100Y-95492400D03*
%TO.P,CON1,5*%
%TO.N,/TXD*%
X126485100Y-96762400D03*
%TO.P,CON1,6*%
%TO.N,/DIO_16*%
X125215100Y-96762400D03*
%TO.P,CON1,3*%
%TO.N,/RXD*%
X126485100Y-98032400D03*
%TO.P,CON1,4*%
%TO.N,/JTAG_TCK*%
X125215100Y-98032400D03*
%TO.P,CON1,2*%
%TO.N,/JTAG_TMS*%
X125215100Y-99302400D03*
D11*
%TO.P,CON1,1*%
%TO.N,+3V3*%
X126485100Y-99302400D03*
%TD*%
D12*
%TO.P,SW3,1*%
%TO.N,SYS_RESETN*%
X125560130Y-57752400D03*
%TO.P,SW3,2*%
%TO.N,GND*%
X130160070Y-57752400D03*
%TD*%
%TO.P,SW2,1*%
%TO.N,PWR_BUT*%
X125410160Y-50872400D03*
%TO.P,SW2,2*%
%TO.N,GND*%
X130010100Y-50872400D03*
%TD*%
D13*
%TO.P,OLED1,26*%
%TO.N,Net-(C6-Pad2)*%
X150510146Y-84517480D03*
%TO.P,OLED1,25*%
%TO.N,Net-(C5-Pad2)*%
X149810122Y-84517480D03*
%TO.P,OLED1,13*%
%TO.N,Net-(OLED1-Pad13)*%
X141410088Y-84517480D03*
%TO.P,OLED1,14*%
%TO.N,GND*%
X142110112Y-84517480D03*
%TO.P,OLED1,16*%
%TO.N,/I2C2_SCL*%
X143510160Y-84517480D03*
%TO.P,OLED1,15*%
%TO.N,GND*%
X142810136Y-84517480D03*
%TO.P,OLED1,18*%
X144910208Y-84517480D03*
%TO.P,OLED1,17*%
%TO.N,/I2C2_SDA*%
X144210184Y-84517480D03*
%TO.P,OLED1,23*%
%TO.N,GND*%
X148410074Y-84517480D03*
%TO.P,OLED1,24*%
%TO.N,Net-(OLED1-Pad24)*%
X149110098Y-84517480D03*
%TO.P,OLED1,21*%
%TO.N,GND*%
X147010026Y-84517480D03*
%TO.P,OLED1,22*%
X147710050Y-84517480D03*
%TO.P,OLED1,20*%
X146310002Y-84517480D03*
%TO.P,OLED1,19*%
X145609978Y-84517480D03*
%TO.P,OLED1,7*%
%TO.N,+3V3*%
X137210198Y-84507320D03*
%TO.P,OLED1,8*%
X137910222Y-84507320D03*
%TO.P,OLED1,10*%
%TO.N,GND*%
X139310016Y-84507320D03*
%TO.P,OLED1,9*%
X138609992Y-84507320D03*
%TO.P,OLED1,12*%
%TO.N,Net-(C2-Pad1)*%
X140710064Y-84507320D03*
%TO.P,OLED1,11*%
%TO.N,GND*%
X140010040Y-84507320D03*
%TO.P,OLED1,5*%
%TO.N,+3V3*%
X135810150Y-84507320D03*
%TO.P,OLED1,6*%
%TO.N,GND*%
X136510174Y-84507320D03*
%TO.P,OLED1,3*%
%TO.N,Net-(C4-Pad1)*%
X134410102Y-84507320D03*
%TO.P,OLED1,4*%
%TO.N,Net-(C4-Pad2)*%
X135110126Y-84507320D03*
%TO.P,OLED1,2*%
%TO.N,Net-(C3-Pad2)*%
X133710078Y-84507320D03*
%TO.P,OLED1,1*%
%TO.N,Net-(C3-Pad1)*%
X133010054Y-84507320D03*
%TD*%
D14*
%TO.P,J1,S1*%
%TO.N,GND*%
X165260100Y-57252400D03*
X156620100Y-57252400D03*
D15*
X156620100Y-53072400D03*
X165260100Y-53072400D03*
%TD*%
D16*
%TO.P,SW1,1*%
%TO.N,/nRESET*%
X157360100Y-118722430D03*
%TO.P,SW1,2*%
%TO.N,GND*%
X157360100Y-123322370D03*
%TD*%
%TO.P,C1,2*%
%TO.N,/nRESET*%
%TA.AperFunction,SMDPad,CuDef*%
G36*
G01*
X154607600Y-120617400D02*
X154132600Y-120617400D01*
G75*
G02*
X153895100Y-120379900I0J237500D01*
G01*
X153895100Y-119779900D01*
G75*
G02*
X154132600Y-119542400I237500J0D01*
G01*
X154607600Y-119542400D01*
G75*
G02*
X154845100Y-119779900I0J-237500D01*
G01*
X154845100Y-120379900D01*
G75*
G02*
X154607600Y-120617400I-237500J0D01*
G01*
G37*
%TD.AperFunction*%
%TO.P,C1,1*%
%TO.N,GND*%
%TA.AperFunction,SMDPad,CuDef*%
G36*
G01*
X154607600Y-122342400D02*
X154132600Y-122342400D01*
G75*
G02*
X153895100Y-122104900I0J237500D01*
G01*
X153895100Y-121504900D01*
G75*
G02*
X154132600Y-121267400I237500J0D01*
G01*
X154607600Y-121267400D01*
G75*
G02*
X154845100Y-121504900I0J-237500D01*
G01*
X154845100Y-122104900D01*
G75*
G02*
X154607600Y-122342400I-237500J0D01*
G01*
G37*
%TD.AperFunction*%
%TD*%
D17*
%TO.P,P8,1*%
%TO.N,GND*%
X164630100Y-62382400D03*
D18*
%TO.P,P8,2*%
X167170100Y-62382400D03*
%TO.P,P8,3*%
%TO.N,Net-(P8-Pad3)*%
X164630100Y-64922400D03*
%TO.P,P8,4*%
%TO.N,Net-(P8-Pad4)*%
X167170100Y-64922400D03*
%TO.P,P8,5*%
%TO.N,Net-(P8-Pad5)*%
X164630100Y-67462400D03*
%TO.P,P8,6*%
%TO.N,Net-(P8-Pad6)*%
X167170100Y-67462400D03*
%TO.P,P8,7*%
%TO.N,Net-(P8-Pad7)*%
X164630100Y-70002400D03*
%TO.P,P8,8*%
%TO.N,Net-(P8-Pad8)*%
X167170100Y-70002400D03*
%TO.P,P8,9*%
%TO.N,Net-(P8-Pad9)*%
X164630100Y-72542400D03*
%TO.P,P8,10*%
%TO.N,Net-(P8-Pad10)*%
X167170100Y-72542400D03*
%TO.P,P8,11*%
%TO.N,Net-(P8-Pad11)*%
X164630100Y-75082400D03*
%TO.P,P8,12*%
%TO.N,Net-(P8-Pad12)*%
X167170100Y-75082400D03*
%TO.P,P8,13*%
%TO.N,Net-(P8-Pad13)*%
X164630100Y-77622400D03*
%TO.P,P8,14*%
%TO.N,Net-(P8-Pad14)*%
X167170100Y-77622400D03*
%TO.P,P8,15*%
%TO.N,Net-(P8-Pad15)*%
X164630100Y-80162400D03*
%TO.P,P8,16*%
%TO.N,Net-(P8-Pad16)*%
X167170100Y-80162400D03*
%TO.P,P8,17*%
%TO.N,Net-(P8-Pad17)*%
X164630100Y-82702400D03*
%TO.P,P8,18*%
%TO.N,Net-(P8-Pad18)*%
X167170100Y-82702400D03*
%TO.P,P8,19*%
%TO.N,Net-(P8-Pad19)*%
X164630100Y-85242400D03*
%TO.P,P8,20*%
%TO.N,Net-(P8-Pad20)*%
X167170100Y-85242400D03*
%TO.P,P8,21*%
%TO.N,Net-(P8-Pad21)*%
X164630100Y-87782400D03*
%TO.P,P8,22*%
%TO.N,Net-(P8-Pad22)*%
X167170100Y-87782400D03*
%TO.P,P8,23*%
%TO.N,Net-(P8-Pad23)*%
X164630100Y-90322400D03*
%TO.P,P8,24*%
%TO.N,Net-(P8-Pad24)*%
X167170100Y-90322400D03*
%TO.P,P8,25*%
%TO.N,Net-(P8-Pad25)*%
X164630100Y-92862400D03*
%TO.P,P8,26*%
%TO.N,Net-(P8-Pad26)*%
X167170100Y-92862400D03*
%TO.P,P8,27*%
%TO.N,Net-(P8-Pad27)*%
X164630100Y-95402400D03*
%TO.P,P8,28*%
%TO.N,Net-(P8-Pad28)*%
X167170100Y-95402400D03*
%TO.P,P8,29*%
%TO.N,Net-(P8-Pad29)*%
X164630100Y-97942400D03*
%TO.P,P8,30*%
%TO.N,Net-(P8-Pad30)*%
X167170100Y-97942400D03*
%TO.P,P8,31*%
%TO.N,Net-(P8-Pad31)*%
X164630100Y-100482400D03*
%TO.P,P8,32*%
%TO.N,Net-(P8-Pad32)*%
X167170100Y-100482400D03*
%TO.P,P8,33*%
%TO.N,Net-(P8-Pad33)*%
X164630100Y-103022400D03*
%TO.P,P8,34*%
%TO.N,Net-(P8-Pad34)*%
X167170100Y-103022400D03*
%TO.P,P8,35*%
%TO.N,Net-(P8-Pad35)*%
X164630100Y-105562400D03*
%TO.P,P8,36*%
%TO.N,Net-(P8-Pad36)*%
X167170100Y-105562400D03*
%TO.P,P8,37*%
%TO.N,Net-(P8-Pad37)*%
X164630100Y-108102400D03*
%TO.P,P8,38*%
%TO.N,Net-(P8-Pad38)*%
X167170100Y-108102400D03*
%TO.P,P8,39*%
%TO.N,Net-(P8-Pad39)*%
X164630100Y-110642400D03*
%TO.P,P8,40*%
%TO.N,Net-(P8-Pad40)*%
X167170100Y-110642400D03*
%TO.P,P8,41*%
%TO.N,Net-(P8-Pad41)*%
X164630100Y-113182400D03*
%TO.P,P8,42*%
%TO.N,Net-(P8-Pad42)*%
X167170100Y-113182400D03*
%TO.P,P8,43*%
%TO.N,Net-(P8-Pad43)*%
X164630100Y-115722400D03*
%TO.P,P8,44*%
%TO.N,Net-(P8-Pad44)*%
X167170100Y-115722400D03*
%TO.P,P8,45*%
%TO.N,Net-(P8-Pad45)*%
X164630100Y-118262400D03*
%TO.P,P8,46*%
%TO.N,Net-(P8-Pad46)*%
X167170100Y-118262400D03*
%TD*%
D17*
%TO.P,P9,1*%
%TO.N,GND*%
X116370100Y-62382400D03*
D18*
%TO.P,P9,2*%
X118910100Y-62382400D03*
%TO.P,P9,3*%
%TO.N,+3V3*%
X116370100Y-64922400D03*
%TO.P,P9,4*%
X118910100Y-64922400D03*
%TO.P,P9,5*%
%TO.N,+5V*%
X116370100Y-67462400D03*
%TO.P,P9,6*%
X118910100Y-67462400D03*
%TO.P,P9,7*%
%TO.N,SYS_5V*%
X116370100Y-70002400D03*
%TO.P,P9,8*%
X118910100Y-70002400D03*
%TO.P,P9,9*%
%TO.N,PWR_BUT*%
X116370100Y-72542400D03*
%TO.P,P9,10*%
%TO.N,SYS_RESETN*%
X118910100Y-72542400D03*
%TO.P,P9,11*%
%TO.N,Net-(P9-Pad11)*%
X116370100Y-75082400D03*
%TO.P,P9,12*%
%TO.N,Net-(P9-Pad12)*%
X118910100Y-75082400D03*
%TO.P,P9,13*%
%TO.N,Net-(P9-Pad13)*%
X116370100Y-77622400D03*
%TO.P,P9,14*%
%TO.N,Net-(P9-Pad14)*%
X118910100Y-77622400D03*
%TO.P,P9,15*%
%TO.N,Net-(P9-Pad15)*%
X116370100Y-80162400D03*
%TO.P,P9,16*%
%TO.N,Net-(P9-Pad16)*%
X118910100Y-80162400D03*
%TO.P,P9,17*%
%TO.N,Net-(P9-Pad17)*%
X116370100Y-82702400D03*
%TO.P,P9,18*%
%TO.N,Net-(P9-Pad18)*%
X118910100Y-82702400D03*
%TO.P,P9,19*%
%TO.N,/I2C2_SCL*%
X116370100Y-85242400D03*
%TO.P,P9,20*%
%TO.N,/I2C2_SDA*%
X118910100Y-85242400D03*
%TO.P,P9,21*%
%TO.N,Net-(P9-Pad21)*%
X116370100Y-87782400D03*
%TO.P,P9,22*%
%TO.N,Net-(P9-Pad22)*%
X118910100Y-87782400D03*
%TO.P,P9,23*%
%TO.N,Net-(P9-Pad23)*%
X116370100Y-90322400D03*
%TO.P,P9,24*%
%TO.N,/RXD*%
X118910100Y-90322400D03*
%TO.P,P9,25*%
%TO.N,Net-(P9-Pad25)*%
X116370100Y-92862400D03*
%TO.P,P9,26*%
%TO.N,/TXD*%
X118910100Y-92862400D03*
%TO.P,P9,27*%
%TO.N,Net-(P9-Pad27)*%
X116370100Y-95402400D03*
%TO.P,P9,28*%
%TO.N,Net-(P9-Pad28)*%
X118910100Y-95402400D03*
%TO.P,P9,29*%
%TO.N,Net-(P9-Pad29)*%
X116370100Y-97942400D03*
%TO.P,P9,30*%
%TO.N,Net-(P9-Pad30)*%
X118910100Y-97942400D03*
%TO.P,P9,31*%
%TO.N,Net-(P9-Pad31)*%
X116370100Y-100482400D03*
%TO.P,P9,32*%
%TO.N,VDD_ADC*%
X118910100Y-100482400D03*
%TO.P,P9,33*%
%TO.N,Net-(P9-Pad33)*%
X116370100Y-103022400D03*
%TO.P,P9,34*%
%TO.N,GNDA_ADC*%
X118910100Y-103022400D03*
%TO.P,P9,35*%
%TO.N,Net-(P9-Pad35)*%
X116370100Y-105562400D03*
%TO.P,P9,36*%
%TO.N,Net-(P9-Pad36)*%
X118910100Y-105562400D03*
%TO.P,P9,37*%
%TO.N,Net-(P9-Pad37)*%
X116370100Y-108102400D03*
%TO.P,P9,38*%
%TO.N,Net-(P9-Pad38)*%
X118910100Y-108102400D03*
%TO.P,P9,39*%
%TO.N,Net-(P9-Pad39)*%
X116370100Y-110642400D03*
%TO.P,P9,40*%
%TO.N,Net-(P9-Pad40)*%
X118910100Y-110642400D03*
%TO.P,P9,41*%
%TO.N,Net-(P9-Pad41)*%
X116370100Y-113182400D03*
%TO.P,P9,42*%
%TO.N,Net-(P9-Pad42)*%
X118910100Y-113182400D03*
%TO.P,P9,43*%
%TO.N,GND*%
X116370100Y-115722400D03*
%TO.P,P9,44*%
X118910100Y-115722400D03*
%TO.P,P9,45*%
X116370100Y-118262400D03*
%TO.P,P9,46*%
X118910100Y-118262400D03*
%TD*%
D19*
%TO.N,+3V3*%
X135840100Y-81922400D03*
X131480100Y-94672400D03*
X133280100Y-89882400D03*
X137590100Y-83432400D03*
%TO.N,+5V*%
X134100100Y-67962400D03*
X123500100Y-70342400D03*
%TO.N,/nRESET*%
X153510100Y-103972400D03*
%TO.N,GND*%
X145380100Y-79262400D03*
X143350100Y-97742400D03*
X142320100Y-94932400D03*
X132160100Y-59622400D03*
X153280100Y-121622400D03*
%TO.N,/RXD*%
X129330100Y-103672400D03*
%TO.N,/TXD*%
X130290100Y-103702400D03*
%TO.N,Net-(C2-Pad1)*%
X139950100Y-81832400D03*
%TO.N,Net-(C3-Pad2)*%
X132770100Y-82432400D03*
%TO.N,Net-(C3-Pad1)*%
X131210100Y-83642400D03*
%TO.N,Net-(C4-Pad2)*%
X134580100Y-81172400D03*
%TO.N,Net-(C4-Pad1)*%
X133640100Y-81702400D03*
%TO.N,Net-(C5-Pad2)*%
X151230100Y-81362400D03*
%TO.N,Net-(C6-Pad2)*%
X153270100Y-81462400D03*
%TO.N,Net-(OLED1-Pad13)*%
X141410100Y-81922400D03*
%TO.N,Net-(OLED1-Pad24)*%
X149050100Y-81262400D03*
%TD*%
D20*
%TO.N,+3V3*%
X135810150Y-84507320D02*
X135810150Y-83902450D01*
X135840100Y-83872500D02*
X135840100Y-81922400D01*
X135810150Y-83902450D02*
X135840100Y-83872500D01*
X131480100Y-94672400D02*
X131480100Y-91682400D01*
X131480100Y-91682400D02*
X133280100Y-89882400D01*
X137910222Y-83752522D02*
X137590100Y-83432400D01*
X137910222Y-84507320D02*
X137910222Y-83752522D01*
X137210198Y-84507320D02*
X137910222Y-84507320D01*
D21*
%TO.N,+5V*%
X134100100Y-67962400D02*
X125880100Y-67962400D01*
X125880100Y-67962400D02*
X123500100Y-70342400D01*
D20*
%TO.N,PWR_BUT*%
X119317831Y-71353799D02*
X117558701Y-71353799D01*
X117558701Y-71353799D02*
X116370100Y-72542400D01*
X124785130Y-65886500D02*
X119317831Y-71353799D01*
X124785130Y-51497430D02*
X124785130Y-65886500D01*
X125410160Y-50872400D02*
X124785130Y-51497430D01*
%TO.N,SYS_RESETN*%
X125560130Y-65892370D02*
X118910100Y-72542400D01*
X125560130Y-57752400D02*
X125560130Y-65892370D01*
%TO.N,/nRESET*%
X156002630Y-120079900D02*
X157360100Y-118722430D01*
X154370100Y-120079900D02*
X156002630Y-120079900D01*
X157360100Y-107822400D02*
X153510100Y-103972400D01*
X157360100Y-118722430D02*
X157360100Y-107822400D01*
D21*
%TO.N,GND*%
X116370100Y-118262400D02*
X118910100Y-118262400D01*
X116370100Y-115722400D02*
X118910100Y-115722400D01*
X116370100Y-115722400D02*
X116370100Y-118262400D01*
X164630100Y-62382400D02*
X167170100Y-62382400D01*
D20*
X148410074Y-84517480D02*
X148410074Y-85352374D01*
X148410074Y-85352374D02*
X148430100Y-85372400D01*
X148430100Y-85372400D02*
X148430100Y-86442400D01*
X148430100Y-86442400D02*
X147790100Y-87082400D01*
X144910208Y-86552508D02*
X144910208Y-84517480D01*
X145440100Y-87082400D02*
X144910208Y-86552508D01*
X145609978Y-84517480D02*
X145609978Y-85342278D01*
X145440100Y-85512156D02*
X145440100Y-87082400D01*
X145609978Y-85342278D02*
X145440100Y-85512156D01*
X146310002Y-87012498D02*
X146240100Y-87082400D01*
X146310002Y-84517480D02*
X146310002Y-87012498D01*
X146240100Y-87082400D02*
X145440100Y-87082400D01*
X147010026Y-86982474D02*
X146910100Y-87082400D01*
X147010026Y-84517480D02*
X147010026Y-86982474D01*
X146910100Y-87082400D02*
X146240100Y-87082400D01*
X147710050Y-84517480D02*
X147710050Y-86912450D01*
X147540100Y-87082400D02*
X146910100Y-87082400D01*
X147710050Y-86912450D02*
X147540100Y-87082400D01*
X147790100Y-87082400D02*
X147540100Y-87082400D01*
X142110112Y-84517480D02*
X142110112Y-82932388D01*
X142110112Y-82932388D02*
X142890100Y-82152400D01*
X144910208Y-83267482D02*
X144910208Y-84517480D01*
X143795126Y-82152400D02*
X144910208Y-83267482D01*
X142810136Y-84517480D02*
X142810136Y-82482364D01*
X143140100Y-82152400D02*
X143795126Y-82152400D01*
X142810136Y-82482364D02*
X143140100Y-82152400D01*
X142890100Y-82152400D02*
X143140100Y-82152400D01*
X143795126Y-80847374D02*
X145380100Y-79262400D01*
X143795126Y-82152400D02*
X143795126Y-80847374D01*
X140010040Y-84507320D02*
X140010040Y-83222340D01*
X140010040Y-83222340D02*
X139140100Y-82352400D01*
X136510174Y-83257322D02*
X136510174Y-84507320D01*
X137415096Y-82352400D02*
X136510174Y-83257322D01*
X138609992Y-82422508D02*
X138680100Y-82352400D01*
X138609992Y-84507320D02*
X138609992Y-82422508D01*
X139310016Y-82592316D02*
X139070100Y-82352400D01*
X139310016Y-84507320D02*
X139310016Y-82592316D01*
X139070100Y-82352400D02*
X138680100Y-82352400D01*
X139140100Y-82352400D02*
X139070100Y-82352400D01*
X155842630Y-121804900D02*
X157360100Y-123322370D01*
X154370100Y-121804900D02*
X155842630Y-121804900D01*
X145440100Y-87082400D02*
X145440100Y-95782400D01*
X143480100Y-97742400D02*
X143350100Y-97742400D01*
X145440100Y-95782400D02*
X143480100Y-97742400D01*
X142320100Y-96712400D02*
X143350100Y-97742400D01*
X142320100Y-94932400D02*
X142320100Y-96712400D01*
X130290100Y-57752400D02*
X130160070Y-57752400D01*
X132160100Y-59622400D02*
X130290100Y-57752400D01*
X130160070Y-51022370D02*
X130010100Y-50872400D01*
X130160070Y-57752400D02*
X130160070Y-51022370D01*
X154187600Y-121622400D02*
X154370100Y-121804900D01*
X153280100Y-121622400D02*
X154187600Y-121622400D01*
X141360100Y-79262400D02*
X145380100Y-79262400D01*
X138270100Y-82352400D02*
X141360100Y-79262400D01*
X138680100Y-82352400D02*
X138270100Y-82352400D01*
X138270100Y-82352400D02*
X137415096Y-82352400D01*
%TO.N,/I2C2_SCL*%
X119480629Y-84053799D02*
X117558701Y-84053799D01*
X121269309Y-85842479D02*
X119480629Y-84053799D01*
X143270137Y-85842479D02*
X121269309Y-85842479D01*
X117558701Y-84053799D02*
X116370100Y-85242400D01*
X143510160Y-85602456D02*
X143270137Y-85842479D01*
X143510160Y-84517480D02*
X143510160Y-85602456D01*
%TO.N,/I2C2_SDA*%
X119960189Y-86292489D02*
X118910100Y-85242400D01*
X143685173Y-86292489D02*
X119960189Y-86292489D01*
X144210184Y-85767478D02*
X143685173Y-86292489D01*
X144210184Y-84517480D02*
X144210184Y-85767478D01*
%TO.N,/RXD*%
X126800102Y-98032400D02*
X126485100Y-98032400D01*
X129330100Y-100562398D02*
X126800102Y-98032400D01*
X129330100Y-103672400D02*
X129330100Y-100562398D01*
X120098701Y-91511001D02*
X120098701Y-91571001D01*
X118910100Y-90322400D02*
X120098701Y-91511001D01*
X120098701Y-91571001D02*
X122350100Y-93822400D01*
X122350100Y-93822400D02*
X122350100Y-98452400D01*
X122350100Y-98452400D02*
X126600100Y-102702400D01*
X128360100Y-102702400D02*
X129330100Y-103672400D01*
X126600100Y-102702400D02*
X128360100Y-102702400D01*
%TO.N,/TXD*%
X130290100Y-100567400D02*
X126485100Y-96762400D01*
X130290100Y-103702400D02*
X130290100Y-100567400D01*
X129695099Y-104297401D02*
X130290100Y-103702400D01*
X120500100Y-92862400D02*
X121900090Y-94262390D01*
X121900090Y-98638800D02*
X127558691Y-104297401D01*
X121900090Y-94262390D02*
X121900090Y-98638800D01*
X127558691Y-104297401D02*
X129695099Y-104297401D01*
X118910100Y-92862400D02*
X120500100Y-92862400D01*
%TO.N,Net-(C2-Pad1)*%
X140710064Y-82592364D02*
X139950100Y-81832400D01*
X140710064Y-84507320D02*
X140710064Y-82592364D01*
%TO.N,Net-(C3-Pad2)*%
X133710078Y-83372378D02*
X132770100Y-82432400D01*
X133710078Y-84507320D02*
X133710078Y-83372378D01*
%TO.N,Net-(C3-Pad1)*%
X132075020Y-84507320D02*
X131210100Y-83642400D01*
X133010054Y-84507320D02*
X132075020Y-84507320D01*
%TO.N,Net-(C4-Pad2)*%
X135110126Y-81702426D02*
X134580100Y-81172400D01*
X135110126Y-84507320D02*
X135110126Y-81702426D01*
%TO.N,Net-(C4-Pad1)*%
X134410102Y-82472402D02*
X133640100Y-81702400D01*
X134410102Y-84507320D02*
X134410102Y-82472402D01*
%TO.N,Net-(C5-Pad2)*%
X149810122Y-84517480D02*
X149810122Y-82782378D01*
X149810122Y-82782378D02*
X151230100Y-81362400D01*
%TO.N,Net-(C6-Pad2)*%
X150510146Y-84222354D02*
X153270100Y-81462400D01*
X150510146Y-84517480D02*
X150510146Y-84222354D01*
%TO.N,Net-(OLED1-Pad13)*%
X141410088Y-84517480D02*
X141410088Y-83812412D01*
X141410100Y-83812400D02*
X141410100Y-81922400D01*
X141410088Y-83812412D02*
X141410100Y-83812400D01*
%TO.N,Net-(OLED1-Pad24)*%
X149110098Y-81322398D02*
X149050100Y-81262400D01*
X149110098Y-84517480D02*
X149110098Y-81322398D01*
%TD*%
M02*
