M48
; DRILL file {KiCad (5.1.7-0-10_14)} date Thursday, November 05, 2020 at 11:20:54 AM
; FORMAT={-:-/ absolute / inch / decimal}
; #@! TF.CreationDate,2020-11-05T11:20:54+08:00
; #@! TF.GenerationSoftware,Kicad,Pcbnew,(5.1.7-0-10_14)
; #@! TF.FileFunction,Plated,1,2,PTH
FMAT,2
INCH
T1C0.0157
T2C0.0197
T3C0.0236
T4C0.0400
%
G90
G05
T1
X4.8622Y-2.7694
X5.0917Y-4.0816
X5.1295Y-4.0828
X5.1658Y-3.293
X5.1764Y-3.7273
X5.2032Y-2.3473
X5.2272Y-3.2454
X5.2472Y-3.5387
X5.2614Y-3.2166
X5.2795Y-2.6757
X5.2984Y-3.1958
X5.348Y-3.2253
X5.4169Y-3.2847
X5.5098Y-3.2217
X5.5673Y-3.2253
X5.6032Y-3.7375
X5.6437Y-3.8481
X5.7236Y-3.1206
X5.8681Y-3.1993
X5.9539Y-3.2032
X6.0343Y-3.2072
X6.0346Y-4.7883
X6.0437Y-4.0934
T2
X4.9297Y-3.7095
X4.9297Y-3.7595
X4.9297Y-3.8095
X4.9297Y-3.8595
X4.9297Y-3.9095
X4.9797Y-3.7095
X4.9797Y-3.7595
X4.9797Y-3.8095
X4.9797Y-3.8595
X4.9797Y-3.9095
T4
X4.5815Y-2.456
X4.5815Y-2.556
X4.5815Y-2.656
X4.5815Y-2.756
X4.5815Y-2.856
X4.5815Y-2.956
X4.5815Y-3.056
X4.5815Y-3.156
X4.5815Y-3.256
X4.5815Y-3.356
X4.5815Y-3.456
X4.5815Y-3.556
X4.5815Y-3.656
X4.5815Y-3.756
X4.5815Y-3.856
X4.5815Y-3.956
X4.5815Y-4.056
X4.5815Y-4.156
X4.5815Y-4.256
X4.5815Y-4.356
X4.5815Y-4.456
X4.5815Y-4.556
X4.5815Y-4.656
X4.6815Y-2.456
X4.6815Y-2.556
X4.6815Y-2.656
X4.6815Y-2.756
X4.6815Y-2.856
X4.6815Y-2.956
X4.6815Y-3.056
X4.6815Y-3.156
X4.6815Y-3.256
X4.6815Y-3.356
X4.6815Y-3.456
X4.6815Y-3.556
X4.6815Y-3.656
X4.6815Y-3.756
X4.6815Y-3.856
X4.6815Y-3.956
X4.6815Y-4.056
X4.6815Y-4.156
X4.6815Y-4.256
X4.6815Y-4.356
X4.6815Y-4.456
X4.6815Y-4.556
X4.6815Y-4.656
X6.4815Y-2.456
X6.4815Y-2.556
X6.4815Y-2.656
X6.4815Y-2.756
X6.4815Y-2.856
X6.4815Y-2.956
X6.4815Y-3.056
X6.4815Y-3.156
X6.4815Y-3.256
X6.4815Y-3.356
X6.4815Y-3.456
X6.4815Y-3.556
X6.4815Y-3.656
X6.4815Y-3.756
X6.4815Y-3.856
X6.4815Y-3.956
X6.4815Y-4.056
X6.4815Y-4.156
X6.4815Y-4.256
X6.4815Y-4.356
X6.4815Y-4.456
X6.4815Y-4.556
X6.4815Y-4.656
X6.5815Y-2.456
X6.5815Y-2.556
X6.5815Y-2.656
X6.5815Y-2.756
X6.5815Y-2.856
X6.5815Y-2.956
X6.5815Y-3.056
X6.5815Y-3.156
X6.5815Y-3.256
X6.5815Y-3.356
X6.5815Y-3.456
X6.5815Y-3.556
X6.5815Y-3.656
X6.5815Y-3.756
X6.5815Y-3.856
X6.5815Y-3.956
X6.5815Y-4.056
X6.5815Y-4.156
X6.5815Y-4.256
X6.5815Y-4.356
X6.5815Y-4.456
X6.5815Y-4.556
X6.5815Y-4.656
T3
G00X6.1661Y-2.0777
M15
G01X6.1661Y-2.1013
M16
G05
G00X6.1661Y-2.2324
M15
G01X6.1661Y-2.2757
M16
G05
G00X6.5063Y-2.0777
M15
G01X6.5063Y-2.1013
M16
G05
G00X6.5063Y-2.2324
M15
G01X6.5063Y-2.2757
M16
G05
T0
M30
