%TF.GenerationSoftware,KiCad,Pcbnew,(5.1.9-0-10_14)*%
%TF.CreationDate,2021-02-17T21:02:51+08:00*%
%TF.ProjectId,bbb_multirouter,6262625f-6d75-46c7-9469-726f75746572,rev?*%
%TF.SameCoordinates,Original*%
%TF.FileFunction,Soldermask,Top*%
%TF.FilePolarity,Negative*%
%FSLAX46Y46*%
G04 Gerber Fmt 4.6, Leading zero omitted, Abs format (unit mm)*
G04 Created by KiCad (PCBNEW (5.1.9-0-10_14)) date 2021-02-17 21:02:51*
%MOMM*%
%LPD*%
G01*
G04 APERTURE LIST*
%ADD10O,1.700000X1.700000*%
%ADD11R,1.700000X1.700000*%
%ADD12O,1.000000X1.000000*%
%ADD13R,1.000000X1.000000*%
%ADD14R,0.899998X1.699997*%
%ADD15O,1.000000X2.100000*%
%ADD16C,0.650000*%
%ADD17O,1.000000X1.600000*%
%ADD18R,1.727200X1.727200*%
%ADD19O,1.727200X1.727200*%
G04 APERTURE END LIST*
D10*
%TO.C,J5*%
X156870100Y-117862400D03*
X156870100Y-115322400D03*
X156870100Y-112782400D03*
X156870100Y-110242400D03*
X156870100Y-107702400D03*
X156870100Y-105162400D03*
X156870100Y-102622400D03*
X156870100Y-100082400D03*
X156870100Y-97542400D03*
D11*
X156870100Y-95002400D03*
%TD*%
D10*
%TO.C,J4*%
X147320100Y-95282400D03*
X147320100Y-92742400D03*
X147320100Y-90202400D03*
X147320100Y-87662400D03*
X147320100Y-85122400D03*
D11*
X147320100Y-82582400D03*
%TD*%
D12*
%TO.C,CON1*%
X157310100Y-76717400D03*
X157310100Y-75447400D03*
X156040100Y-76717400D03*
X156040100Y-75447400D03*
X154770100Y-76717400D03*
X154770100Y-75447400D03*
X153500100Y-76717400D03*
X153500100Y-75447400D03*
X152230100Y-75447400D03*
D13*
X152230100Y-76717400D03*
%TD*%
D14*
%TO.C,SW3*%
X162390070Y-123712400D03*
X157790130Y-123712400D03*
%TD*%
%TO.C,SW2*%
X124120130Y-54372400D03*
X128720070Y-54372400D03*
%TD*%
%TO.C,SW1*%
X124170130Y-47052400D03*
X128770070Y-47052400D03*
%TD*%
D15*
%TO.C,J3*%
X165330100Y-57162400D03*
X156690100Y-57162400D03*
D16*
X158120100Y-56632400D03*
D17*
X156690100Y-52982400D03*
D16*
X163900100Y-56632400D03*
D17*
X165330100Y-52982400D03*
%TD*%
D10*
%TO.C,J2*%
X132570100Y-116039400D03*
D11*
X130030100Y-116039400D03*
%TD*%
D10*
%TO.C,J1*%
X122137100Y-97942400D03*
X122137100Y-95402400D03*
X122137100Y-92862400D03*
X122137100Y-90322400D03*
X122137100Y-87782400D03*
D11*
X122137100Y-85242400D03*
%TD*%
D18*
%TO.C,P8*%
X164630100Y-62382400D03*
D19*
X167170100Y-62382400D03*
X164630100Y-64922400D03*
X167170100Y-64922400D03*
X164630100Y-67462400D03*
X167170100Y-67462400D03*
X164630100Y-70002400D03*
X167170100Y-70002400D03*
X164630100Y-72542400D03*
X167170100Y-72542400D03*
X164630100Y-75082400D03*
X167170100Y-75082400D03*
X164630100Y-77622400D03*
X167170100Y-77622400D03*
X164630100Y-80162400D03*
X167170100Y-80162400D03*
X164630100Y-82702400D03*
X167170100Y-82702400D03*
X164630100Y-85242400D03*
X167170100Y-85242400D03*
X164630100Y-87782400D03*
X167170100Y-87782400D03*
X164630100Y-90322400D03*
X167170100Y-90322400D03*
X164630100Y-92862400D03*
X167170100Y-92862400D03*
X164630100Y-95402400D03*
X167170100Y-95402400D03*
X164630100Y-97942400D03*
X167170100Y-97942400D03*
X164630100Y-100482400D03*
X167170100Y-100482400D03*
X164630100Y-103022400D03*
X167170100Y-103022400D03*
X164630100Y-105562400D03*
X167170100Y-105562400D03*
X164630100Y-108102400D03*
X167170100Y-108102400D03*
X164630100Y-110642400D03*
X167170100Y-110642400D03*
X164630100Y-113182400D03*
X167170100Y-113182400D03*
X164630100Y-115722400D03*
X167170100Y-115722400D03*
X164630100Y-118262400D03*
X167170100Y-118262400D03*
%TD*%
D18*
%TO.C,P9*%
X116370100Y-62382400D03*
D19*
X118910100Y-62382400D03*
X116370100Y-64922400D03*
X118910100Y-64922400D03*
X116370100Y-67462400D03*
X118910100Y-67462400D03*
X116370100Y-70002400D03*
X118910100Y-70002400D03*
X116370100Y-72542400D03*
X118910100Y-72542400D03*
X116370100Y-75082400D03*
X118910100Y-75082400D03*
X116370100Y-77622400D03*
X118910100Y-77622400D03*
X116370100Y-80162400D03*
X118910100Y-80162400D03*
X116370100Y-82702400D03*
X118910100Y-82702400D03*
X116370100Y-85242400D03*
X118910100Y-85242400D03*
X116370100Y-87782400D03*
X118910100Y-87782400D03*
X116370100Y-90322400D03*
X118910100Y-90322400D03*
X116370100Y-92862400D03*
X118910100Y-92862400D03*
X116370100Y-95402400D03*
X118910100Y-95402400D03*
X116370100Y-97942400D03*
X118910100Y-97942400D03*
X116370100Y-100482400D03*
X118910100Y-100482400D03*
X116370100Y-103022400D03*
X118910100Y-103022400D03*
X116370100Y-105562400D03*
X118910100Y-105562400D03*
X116370100Y-108102400D03*
X118910100Y-108102400D03*
X116370100Y-110642400D03*
X118910100Y-110642400D03*
X116370100Y-113182400D03*
X118910100Y-113182400D03*
X116370100Y-115722400D03*
X118910100Y-115722400D03*
X116370100Y-118262400D03*
X118910100Y-118262400D03*
%TD*%
M02*
