%TF.GenerationSoftware,KiCad,Pcbnew,(5.1.7-0-10_14)*%
%TF.CreationDate,2020-11-18T23:59:02+08:00*%
%TF.ProjectId,bbb_multirouter,6262625f-6d75-46c7-9469-726f75746572,rev?*%
%TF.SameCoordinates,Original*%
%TF.FileFunction,Copper,L2,Bot*%
%TF.FilePolarity,Positive*%
%FSLAX46Y46*%
G04 Gerber Fmt 4.6, Leading zero omitted, Abs format (unit mm)*
G04 Created by KiCad (PCBNEW (5.1.7-0-10_14)) date 2020-11-18 23:59:02*
%MOMM*%
%LPD*%
G01*
G04 APERTURE LIST*
%TA.AperFunction,ComponentPad*%
%ADD10O,1.700000X1.700000*%
%TD*%
%TA.AperFunction,ComponentPad*%
%ADD11R,1.700000X1.700000*%
%TD*%
%TA.AperFunction,SMDPad,CuDef*%
%ADD12R,2.199996X1.199896*%
%TD*%
%TA.AperFunction,SMDPad,CuDef*%
%ADD13R,1.299997X1.299997*%
%TD*%
%TA.AperFunction,SMDPad,CuDef*%
%ADD14R,2.999994X1.500124*%
%TD*%
%TA.AperFunction,SMDPad,CuDef*%
%ADD15R,1.000000X1.500000*%
%TD*%
%TA.AperFunction,ComponentPad*%
%ADD16O,1.000000X1.000000*%
%TD*%
%TA.AperFunction,ComponentPad*%
%ADD17R,1.000000X1.000000*%
%TD*%
%TA.AperFunction,SMDPad,CuDef*%
%ADD18R,8.400034X3.499866*%
%TD*%
%TA.AperFunction,SMDPad,CuDef*%
%ADD19R,1.999996X0.800100*%
%TD*%
%TA.AperFunction,SMDPad,CuDef*%
%ADD20R,3.999992X0.800100*%
%TD*%
%TA.AperFunction,SMDPad,CuDef*%
%ADD21R,0.600000X1.450000*%
%TD*%
%TA.AperFunction,SMDPad,CuDef*%
%ADD22R,0.300000X1.450000*%
%TD*%
%TA.AperFunction,ComponentPad*%
%ADD23O,1.000000X2.100000*%
%TD*%
%TA.AperFunction,ComponentPad*%
%ADD24O,1.000000X1.600000*%
%TD*%
%TA.AperFunction,ComponentPad*%
%ADD25R,1.727200X1.727200*%
%TD*%
%TA.AperFunction,ComponentPad*%
%ADD26O,1.727200X1.727200*%
%TD*%
%TA.AperFunction,ViaPad*%
%ADD27C,0.600000*%
%TD*%
%TA.AperFunction,Conductor*%
%ADD28C,0.508000*%
%TD*%
%TA.AperFunction,Conductor*%
%ADD29C,0.254000*%
%TD*%
%TA.AperFunction,Conductor*%
%ADD30C,0.200000*%
%TD*%
%TA.AperFunction,Conductor*%
%ADD31C,0.250000*%
%TD*%
G04 APERTURE END LIST*
D10*
%TO.P,J5,10*%
%TO.N,RESETn*%
X129460100Y-64962400D03*
%TO.P,J5,9*%
%TO.N,/Sheet5FB19A08/DBG_TDI*%
X129460100Y-67502400D03*
%TO.P,J5,8*%
%TO.N,DBG_SWO*%
X129460100Y-70042400D03*
%TO.P,J5,7*%
%TO.N,DBG_SWDIO*%
X129460100Y-72582400D03*
%TO.P,J5,6*%
%TO.N,DBG_SWCLK*%
X129460100Y-75122400D03*
%TO.P,J5,5*%
%TO.N,/Sheet5FB19A08/PC11*%
X129460100Y-77662400D03*
%TO.P,J5,4*%
%TO.N,/Sheet5FB19A08/PC10*%
X129460100Y-80202400D03*
%TO.P,J5,3*%
%TO.N,UART1_TXD*%
X129460100Y-82742400D03*
%TO.P,J5,2*%
%TO.N,UART1_RXD*%
X129460100Y-85282400D03*
D11*
%TO.P,J5,1*%
%TO.N,GND*%
X129460100Y-87822400D03*
%TD*%
D10*
%TO.P,J4,6*%
%TO.N,/Sheet5FB19A08/I2C_SDA*%
X155570100Y-69942400D03*
%TO.P,J4,5*%
%TO.N,/Sheet5FB19A08/I2C_SCL*%
X155570100Y-72482400D03*
%TO.P,J4,4*%
%TO.N,/Sheet5FB19A08/PB12*%
X155570100Y-75022400D03*
%TO.P,J4,3*%
%TO.N,/Sheet5FB19A08/PB13*%
X155570100Y-77562400D03*
%TO.P,J4,2*%
%TO.N,GND*%
X155570100Y-80102400D03*
D11*
%TO.P,J4,1*%
%TO.N,+3V3*%
X155570100Y-82642400D03*
%TD*%
%TO.P,C1,2*%
%TO.N,Net-(C1-Pad2)*%
%TA.AperFunction,SMDPad,CuDef*%
G36*
G01*
X151897600Y-114727400D02*
X151422600Y-114727400D01*
G75*
G02*
X151185100Y-114489900I0J237500D01*
G01*
X151185100Y-113889900D01*
G75*
G02*
X151422600Y-113652400I237500J0D01*
G01*
X151897600Y-113652400D01*
G75*
G02*
X152135100Y-113889900I0J-237500D01*
G01*
X152135100Y-114489900D01*
G75*
G02*
X151897600Y-114727400I-237500J0D01*
G01*
G37*
%TD.AperFunction*%
%TO.P,C1,1*%
%TO.N,Net-(C1-Pad1)*%
%TA.AperFunction,SMDPad,CuDef*%
G36*
G01*
X151897600Y-116452400D02*
X151422600Y-116452400D01*
G75*
G02*
X151185100Y-116214900I0J237500D01*
G01*
X151185100Y-115614900D01*
G75*
G02*
X151422600Y-115377400I237500J0D01*
G01*
X151897600Y-115377400D01*
G75*
G02*
X152135100Y-115614900I0J-237500D01*
G01*
X152135100Y-116214900D01*
G75*
G02*
X151897600Y-116452400I-237500J0D01*
G01*
G37*
%TD.AperFunction*%
%TD*%
D12*
%TO.P,JP3,3*%
%TO.N,GND*%
X155555054Y-114372492D03*
D13*
%TO.P,JP3,2*%
%TO.N,Net-(C1-Pad1)*%
X154005146Y-115923670D03*
D12*
%TO.P,JP3,1*%
%TO.N,GND*%
X155555054Y-117472308D03*
%TD*%
D14*
%TO.P,U2,6*%
%TO.N,Net-(C1-Pad2)*%
X149452100Y-111656400D03*
%TO.P,U2,5*%
%TO.N,GND*%
X149452100Y-109624400D03*
%TO.P,U2,4*%
X137260100Y-110132400D03*
%TO.P,U2,3*%
%TO.N,USB_DM*%
X137260100Y-112672400D03*
%TO.P,U2,2*%
%TO.N,USB_DP*%
X137260100Y-116228400D03*
%TO.P,U2,1*%
%TO.N,+3V3*%
X137260100Y-118768400D03*
%TD*%
D15*
%TO.P,JP2,1*%
%TO.N,DBG_SWCLK*%
X157100100Y-98552400D03*
%TO.P,JP2,2*%
%TO.N,LCD_DATA1*%
X158400100Y-98552400D03*
%TD*%
%TO.P,JP1,1*%
%TO.N,DBG_SWDIO*%
X157100100Y-102742400D03*
%TO.P,JP1,2*%
%TO.N,LCD_DATA0*%
X158400100Y-102742400D03*
%TD*%
D16*
%TO.P,CON1,9*%
%TO.N,GND*%
X139050100Y-90587400D03*
%TO.P,CON1,10*%
%TO.N,UART0_TX*%
X139050100Y-91857400D03*
%TO.P,CON1,7*%
%TO.N,DBG_SWCLK*%
X140320100Y-90587400D03*
%TO.P,CON1,8*%
%TO.N,UART0_RX*%
X140320100Y-91857400D03*
%TO.P,CON1,5*%
%TO.N,DBG_SWDIO*%
X141590100Y-90587400D03*
%TO.P,CON1,6*%
%TO.N,GND*%
X141590100Y-91857400D03*
%TO.P,CON1,3*%
%TO.N,+3V3*%
X142860100Y-90587400D03*
%TO.P,CON1,4*%
%TO.N,DBG_SWO*%
X142860100Y-91857400D03*
%TO.P,CON1,2*%
%TO.N,RESETn*%
X144130100Y-91857400D03*
D17*
%TO.P,CON1,1*%
%TO.N,Net-(CON1-Pad1)*%
X144130100Y-90587400D03*
%TD*%
D18*
%TO.P,U1,18*%
%TO.N,GND*%
X143410150Y-67142348D03*
D19*
%TO.P,U1,17*%
%TO.N,Net-(U1-Pad17)*%
X137810212Y-65392542D03*
D20*
%TO.P,U1,16*%
%TO.N,/Sheet5FB19A08/I2C_SDA*%
X149960048Y-71392276D03*
%TO.P,U1,15*%
%TO.N,/Sheet5FB19A08/I2C_SCL*%
X149960048Y-73292450D03*
%TO.P,U1,14*%
%TO.N,/Sheet5FB19A08/PB12*%
X149960048Y-75192370D03*
%TO.P,U1,13*%
%TO.N,/Sheet5FB19A08/PB13*%
X149960048Y-77092290D03*
%TO.P,U1,12*%
%TO.N,GND*%
X149960048Y-78992464D03*
%TO.P,U1,11*%
%TO.N,+3V3*%
X149960048Y-80892384D03*
D19*
%TO.P,U1,1*%
%TO.N,GND*%
X133960080Y-83832434D03*
%TO.P,U1,2*%
%TO.N,UART1_RXD*%
X133960080Y-82122506D03*
%TO.P,U1,3*%
%TO.N,UART1_TXD*%
X133960080Y-80412324D03*
%TO.P,U1,4*%
%TO.N,/Sheet5FB19A08/PC10*%
X133960080Y-78702396D03*
%TO.P,U1,5*%
%TO.N,/Sheet5FB19A08/PC11*%
X133960080Y-76992468D03*
%TO.P,U1,6*%
%TO.N,DBG_SWCLK*%
X133960080Y-75282286D03*
%TO.P,U1,7*%
%TO.N,DBG_SWDIO*%
X133960080Y-73572358D03*
%TO.P,U1,8*%
%TO.N,DBG_SWO*%
X133960080Y-71862430D03*
%TO.P,U1,9*%
%TO.N,/Sheet5FB19A08/DBG_TDI*%
X133960080Y-70152502D03*
%TO.P,U1,10*%
%TO.N,RESETn*%
X133960080Y-68442320D03*
%TD*%
D21*
%TO.P,J3,B1*%
%TO.N,GND*%
X164260100Y-58077400D03*
%TO.P,J3,A9*%
%TO.N,+5V*%
X163460100Y-58077400D03*
%TO.P,J3,B9*%
X158560100Y-58077400D03*
%TO.P,J3,B12*%
%TO.N,GND*%
X157760100Y-58077400D03*
%TO.P,J3,A1*%
X157760100Y-58077400D03*
%TO.P,J3,A4*%
%TO.N,+5V*%
X158560100Y-58077400D03*
%TO.P,J3,B4*%
X163460100Y-58077400D03*
%TO.P,J3,A12*%
%TO.N,GND*%
X164260100Y-58077400D03*
D22*
%TO.P,J3,B8*%
%TO.N,Net-(J3-PadB8)*%
X159260100Y-58077400D03*
%TO.P,J3,A5*%
%TO.N,Net-(J3-PadA5)*%
X159760100Y-58077400D03*
%TO.P,J3,B7*%
%TO.N,Net-(J3-PadB7)*%
X160260100Y-58077400D03*
%TO.P,J3,A7*%
%TO.N,Net-(J3-PadA7)*%
X161260100Y-58077400D03*
%TO.P,J3,B6*%
%TO.N,Net-(J3-PadB6)*%
X161760100Y-58077400D03*
%TO.P,J3,A8*%
%TO.N,Net-(J3-PadA8)*%
X162260100Y-58077400D03*
%TO.P,J3,B5*%
%TO.N,Net-(J3-PadB5)*%
X162760100Y-58077400D03*
%TO.P,J3,A6*%
%TO.N,Net-(J3-PadA6)*%
X160760100Y-58077400D03*
D23*
%TO.P,J3,S1*%
%TO.N,GND*%
X165330100Y-57162400D03*
X156690100Y-57162400D03*
D24*
X156690100Y-52982400D03*
X165330100Y-52982400D03*
%TD*%
D10*
%TO.P,J2,2*%
%TO.N,USB_DP*%
X132570100Y-116039400D03*
D11*
%TO.P,J2,1*%
%TO.N,USB_DM*%
X130030100Y-116039400D03*
%TD*%
D10*
%TO.P,J1,6*%
%TO.N,Net-(J1-Pad6)*%
X122137100Y-97942400D03*
%TO.P,J1,5*%
%TO.N,UART0_TX*%
X122137100Y-95402400D03*
%TO.P,J1,4*%
%TO.N,UART0_RX*%
X122137100Y-92862400D03*
%TO.P,J1,3*%
%TO.N,Net-(J1-Pad3)*%
X122137100Y-90322400D03*
%TO.P,J1,2*%
%TO.N,Net-(J1-Pad2)*%
X122137100Y-87782400D03*
D11*
%TO.P,J1,1*%
%TO.N,GND*%
X122137100Y-85242400D03*
%TD*%
D25*
%TO.P,P8,1*%
%TO.N,GND*%
X164630100Y-62382400D03*
D26*
%TO.P,P8,2*%
X167170100Y-62382400D03*
%TO.P,P8,3*%
%TO.N,MMC1_DAT6*%
X164630100Y-64922400D03*
%TO.P,P8,4*%
%TO.N,MMC1_DAT7*%
X167170100Y-64922400D03*
%TO.P,P8,5*%
%TO.N,MMC1_DAT2*%
X164630100Y-67462400D03*
%TO.P,P8,6*%
%TO.N,MMC1_DAT3*%
X167170100Y-67462400D03*
%TO.P,P8,7*%
%TO.N,GPIO_66*%
X164630100Y-70002400D03*
%TO.P,P8,8*%
%TO.N,GPIO_67*%
X167170100Y-70002400D03*
%TO.P,P8,9*%
%TO.N,GPIO_69*%
X164630100Y-72542400D03*
%TO.P,P8,10*%
%TO.N,GPIO_68*%
X167170100Y-72542400D03*
%TO.P,P8,11*%
%TO.N,GPIO_45*%
X164630100Y-75082400D03*
%TO.P,P8,12*%
%TO.N,GPIO_44*%
X167170100Y-75082400D03*
%TO.P,P8,13*%
%TO.N,EHRPWM2B*%
X164630100Y-77622400D03*
%TO.P,P8,14*%
%TO.N,GPIO_26*%
X167170100Y-77622400D03*
%TO.P,P8,15*%
%TO.N,GPIO_47*%
X164630100Y-80162400D03*
%TO.P,P8,16*%
%TO.N,GPIO_46*%
X167170100Y-80162400D03*
%TO.P,P8,17*%
%TO.N,GPIO_27*%
X164630100Y-82702400D03*
%TO.P,P8,18*%
%TO.N,GPIO_65*%
X167170100Y-82702400D03*
%TO.P,P8,19*%
%TO.N,EHRPWM2A*%
X164630100Y-85242400D03*
%TO.P,P8,20*%
%TO.N,MMC1_CMD*%
X167170100Y-85242400D03*
%TO.P,P8,21*%
%TO.N,MMC1_CLK*%
X164630100Y-87782400D03*
%TO.P,P8,22*%
%TO.N,MMC1_DAT5*%
X167170100Y-87782400D03*
%TO.P,P8,23*%
%TO.N,MMC1_DAT4*%
X164630100Y-90322400D03*
%TO.P,P8,24*%
%TO.N,MMC1_DAT1*%
X167170100Y-90322400D03*
%TO.P,P8,25*%
%TO.N,MMC1_DAT0*%
X164630100Y-92862400D03*
%TO.P,P8,26*%
%TO.N,GPIO_61*%
X167170100Y-92862400D03*
%TO.P,P8,27*%
%TO.N,LCD_VSYNC*%
X164630100Y-95402400D03*
%TO.P,P8,28*%
%TO.N,LCD_PCLK*%
X167170100Y-95402400D03*
%TO.P,P8,29*%
%TO.N,LCD_HSYNC*%
X164630100Y-97942400D03*
%TO.P,P8,30*%
%TO.N,LCD_AC_BIAS*%
X167170100Y-97942400D03*
%TO.P,P8,31*%
%TO.N,LCD_DATA14*%
X164630100Y-100482400D03*
%TO.P,P8,32*%
%TO.N,LCD_DATA15*%
X167170100Y-100482400D03*
%TO.P,P8,33*%
%TO.N,LCD_DATA13*%
X164630100Y-103022400D03*
%TO.P,P8,34*%
%TO.N,LCD_DATA11*%
X167170100Y-103022400D03*
%TO.P,P8,35*%
%TO.N,LCD_DATA12*%
X164630100Y-105562400D03*
%TO.P,P8,36*%
%TO.N,LCD_DATA10*%
X167170100Y-105562400D03*
%TO.P,P8,37*%
%TO.N,LCD_DATA8*%
X164630100Y-108102400D03*
%TO.P,P8,38*%
%TO.N,LCD_DATA9*%
X167170100Y-108102400D03*
%TO.P,P8,39*%
%TO.N,LCD_DATA6*%
X164630100Y-110642400D03*
%TO.P,P8,40*%
%TO.N,LCD_DATA7*%
X167170100Y-110642400D03*
%TO.P,P8,41*%
%TO.N,LCD_DATA4*%
X164630100Y-113182400D03*
%TO.P,P8,42*%
%TO.N,LCD_DATA5*%
X167170100Y-113182400D03*
%TO.P,P8,43*%
%TO.N,LCD_DATA2*%
X164630100Y-115722400D03*
%TO.P,P8,44*%
%TO.N,LCD_DATA3*%
X167170100Y-115722400D03*
%TO.P,P8,45*%
%TO.N,LCD_DATA0*%
X164630100Y-118262400D03*
%TO.P,P8,46*%
%TO.N,LCD_DATA1*%
X167170100Y-118262400D03*
%TD*%
D25*
%TO.P,P9,1*%
%TO.N,GND*%
X116370100Y-62382400D03*
D26*
%TO.P,P9,2*%
X118910100Y-62382400D03*
%TO.P,P9,3*%
%TO.N,+3V3*%
X116370100Y-64922400D03*
%TO.P,P9,4*%
X118910100Y-64922400D03*
%TO.P,P9,5*%
%TO.N,+5V*%
X116370100Y-67462400D03*
%TO.P,P9,6*%
X118910100Y-67462400D03*
%TO.P,P9,7*%
%TO.N,SYS_5V*%
X116370100Y-70002400D03*
%TO.P,P9,8*%
X118910100Y-70002400D03*
%TO.P,P9,9*%
%TO.N,PWR_BUT*%
X116370100Y-72542400D03*
%TO.P,P9,10*%
%TO.N,SYS_RESETN*%
X118910100Y-72542400D03*
%TO.P,P9,11*%
%TO.N,UART4_RXD*%
X116370100Y-75082400D03*
%TO.P,P9,12*%
%TO.N,GPIO_60*%
X118910100Y-75082400D03*
%TO.P,P9,13*%
%TO.N,UART4_TXD*%
X116370100Y-77622400D03*
%TO.P,P9,14*%
%TO.N,EHRPWM1A*%
X118910100Y-77622400D03*
%TO.P,P9,15*%
%TO.N,GPIO_48*%
X116370100Y-80162400D03*
%TO.P,P9,16*%
%TO.N,EHRPWM1B*%
X118910100Y-80162400D03*
%TO.P,P9,17*%
%TO.N,SPI0_CS0*%
X116370100Y-82702400D03*
%TO.P,P9,18*%
%TO.N,SPI0_D1*%
X118910100Y-82702400D03*
%TO.P,P9,19*%
%TO.N,I2C2_SCL*%
X116370100Y-85242400D03*
%TO.P,P9,20*%
%TO.N,I2C2_SDA*%
X118910100Y-85242400D03*
%TO.P,P9,21*%
%TO.N,SPI0_D0*%
X116370100Y-87782400D03*
%TO.P,P9,22*%
%TO.N,SPI0_SCLK*%
X118910100Y-87782400D03*
%TO.P,P9,23*%
%TO.N,GPIO_49*%
X116370100Y-90322400D03*
%TO.P,P9,24*%
%TO.N,UART1_TXD*%
X118910100Y-90322400D03*
%TO.P,P9,25*%
%TO.N,GPIO_117*%
X116370100Y-92862400D03*
%TO.P,P9,26*%
%TO.N,UART1_RXD*%
X118910100Y-92862400D03*
%TO.P,P9,27*%
%TO.N,GPIO_115*%
X116370100Y-95402400D03*
%TO.P,P9,28*%
%TO.N,SPI1_CS0*%
X118910100Y-95402400D03*
%TO.P,P9,29*%
%TO.N,SPI1_D0*%
X116370100Y-97942400D03*
%TO.P,P9,30*%
%TO.N,GPIO_112*%
X118910100Y-97942400D03*
%TO.P,P9,31*%
%TO.N,SPI1_SCLK*%
X116370100Y-100482400D03*
%TO.P,P9,32*%
%TO.N,VDD_ADC*%
X118910100Y-100482400D03*
%TO.P,P9,33*%
%TO.N,AIN4*%
X116370100Y-103022400D03*
%TO.P,P9,34*%
%TO.N,GNDA_ADC*%
X118910100Y-103022400D03*
%TO.P,P9,35*%
%TO.N,AIN6*%
X116370100Y-105562400D03*
%TO.P,P9,36*%
%TO.N,AIN5*%
X118910100Y-105562400D03*
%TO.P,P9,37*%
%TO.N,AIN2*%
X116370100Y-108102400D03*
%TO.P,P9,38*%
%TO.N,AIN3*%
X118910100Y-108102400D03*
%TO.P,P9,39*%
%TO.N,AIN0*%
X116370100Y-110642400D03*
%TO.P,P9,40*%
%TO.N,AIN1*%
X118910100Y-110642400D03*
%TO.P,P9,41*%
%TO.N,GPIO_20*%
X116370100Y-113182400D03*
%TO.P,P9,42*%
%TO.N,ECAPPWM0*%
X118910100Y-113182400D03*
%TO.P,P9,43*%
%TO.N,GND*%
X116370100Y-115722400D03*
%TO.P,P9,44*%
X118910100Y-115722400D03*
%TO.P,P9,45*%
X116370100Y-118262400D03*
%TO.P,P9,46*%
X118910100Y-118262400D03*
%TD*%
D27*
%TO.N,+3V3*%
X121320100Y-67242400D03*
X125830100Y-83852400D03*
X140200100Y-118642400D03*
%TO.N,+5V*%
X150750100Y-69772400D03*
X126830100Y-62992400D03*
%TO.N,GND*%
X142600100Y-81702400D03*
X142780100Y-78692400D03*
X157100100Y-123292400D03*
%TO.N,DBG_SWCLK*%
X140320100Y-82162400D03*
X154710100Y-94392400D03*
%TO.N,DBG_SWDIO*%
X141600100Y-85332400D03*
X151240100Y-95402400D03*
%TO.N,DBG_SWO*%
X148390100Y-84062400D03*
%TO.N,RESETn*%
X145280100Y-84252400D03*
X143750100Y-82802400D03*
%TD*%
D28*
%TO.N,+3V3*%
X153820084Y-80892384D02*
X155570100Y-82642400D01*
X149960048Y-80892384D02*
X153820084Y-80892384D01*
D29*
X142860100Y-90587400D02*
X142860100Y-85062400D01*
X147030116Y-80892384D02*
X149960048Y-80892384D01*
X142860100Y-85062400D02*
X147030116Y-80892384D01*
D28*
X121320100Y-67242400D02*
X125830100Y-71752400D01*
X125830100Y-71752400D02*
X125830100Y-83852400D01*
X137386100Y-118642400D02*
X137260100Y-118768400D01*
X140200100Y-118642400D02*
X137386100Y-118642400D01*
%TO.N,+5V*%
X158560100Y-60702400D02*
X158560100Y-58077400D01*
X159170100Y-61312400D02*
X158560100Y-60702400D01*
X163460100Y-60592400D02*
X162740100Y-61312400D01*
X162740100Y-61312400D02*
X159170100Y-61312400D01*
X163460100Y-58077400D02*
X163460100Y-60592400D01*
X159170100Y-61312400D02*
X159170100Y-61352400D01*
X159170100Y-61352400D02*
X150750100Y-69772400D01*
X123380100Y-62992400D02*
X118910100Y-67462400D01*
X126830100Y-62992400D02*
X123380100Y-62992400D01*
D29*
%TO.N,UART0_TX*%
X125682100Y-91857400D02*
X122137100Y-95402400D01*
X139050100Y-91857400D02*
X125682100Y-91857400D01*
D28*
%TO.N,USB_DP*%
X132759100Y-116228400D02*
X132570100Y-116039400D01*
X137260100Y-116228400D02*
X132759100Y-116228400D01*
D30*
%TO.N,LCD_DATA0*%
X164630100Y-118262400D02*
X160800100Y-114432400D01*
X160800100Y-105142400D02*
X158400100Y-102742400D01*
X160800100Y-114432400D02*
X160800100Y-105142400D01*
%TO.N,LCD_DATA1*%
X164284369Y-114558799D02*
X161960100Y-112234530D01*
X165401427Y-114558799D02*
X164284369Y-114558799D01*
X165793701Y-114951073D02*
X165401427Y-114558799D01*
X165793701Y-116886001D02*
X165793701Y-114951073D01*
X167170100Y-118262400D02*
X165793701Y-116886001D01*
X161960100Y-102112400D02*
X158400100Y-98552400D01*
X161960100Y-112234530D02*
X161960100Y-102112400D01*
D28*
%TO.N,UART1_TXD*%
X131790176Y-80412324D02*
X129460100Y-82742400D01*
X133960080Y-80412324D02*
X131790176Y-80412324D01*
D30*
X129460100Y-82742400D02*
X123140100Y-89062400D01*
X120170100Y-89062400D02*
X118910100Y-90322400D01*
X123140100Y-89062400D02*
X120170100Y-89062400D01*
D28*
%TO.N,UART1_RXD*%
X129460100Y-85114488D02*
X129460100Y-85282400D01*
X132452082Y-82122506D02*
X129460100Y-85114488D01*
X133960080Y-82122506D02*
X132452082Y-82122506D01*
D30*
X129460100Y-85282400D02*
X123140100Y-91602400D01*
X120170100Y-91602400D02*
X118910100Y-92862400D01*
X123140100Y-91602400D02*
X120170100Y-91602400D01*
D28*
%TO.N,USB_DM*%
X137260100Y-112672400D02*
X131790100Y-112672400D01*
X130030100Y-114432400D02*
X130030100Y-116039400D01*
X131790100Y-112672400D02*
X130030100Y-114432400D01*
%TO.N,GND*%
X157605100Y-58077400D02*
X156690100Y-57162400D01*
X157760100Y-58077400D02*
X157605100Y-58077400D01*
X164415100Y-58077400D02*
X165330100Y-57162400D01*
X164260100Y-58077400D02*
X164415100Y-58077400D01*
X164260100Y-62012400D02*
X164630100Y-62382400D01*
X164260100Y-58077400D02*
X164260100Y-62012400D01*
X154460164Y-78992464D02*
X155570100Y-80102400D01*
X149960048Y-78992464D02*
X154460164Y-78992464D01*
X133450066Y-83832434D02*
X129460100Y-87822400D01*
X133960080Y-83832434D02*
X133450066Y-83832434D01*
D29*
X139050100Y-90587400D02*
X139050100Y-87472400D01*
X135410134Y-83832434D02*
X133960080Y-83832434D01*
X139050100Y-87472400D02*
X135410134Y-83832434D01*
D28*
X150989015Y-67142348D02*
X156690100Y-61441263D01*
X156690100Y-61441263D02*
X156690100Y-57162400D01*
X143410150Y-67142348D02*
X150989015Y-67142348D01*
X119054101Y-62238399D02*
X118910100Y-62382400D01*
X128666021Y-62238399D02*
X119054101Y-62238399D01*
X133569970Y-67142348D02*
X128666021Y-62238399D01*
X143410150Y-67142348D02*
X133569970Y-67142348D01*
X143410150Y-74950562D02*
X143410150Y-67142348D01*
X147452052Y-78992464D02*
X143410150Y-74950562D01*
X149960048Y-78992464D02*
X147452052Y-78992464D01*
X124500100Y-110132400D02*
X118910100Y-115722400D01*
X137260100Y-110132400D02*
X124500100Y-110132400D01*
D29*
X141590100Y-105802400D02*
X137260100Y-110132400D01*
D28*
X142600100Y-81702400D02*
X142600100Y-78872400D01*
X142600100Y-78872400D02*
X142780100Y-78692400D01*
X137768100Y-109624400D02*
X137260100Y-110132400D01*
X149452100Y-109624400D02*
X137768100Y-109624400D01*
X149452100Y-109624400D02*
X153132100Y-109624400D01*
X155555054Y-112047354D02*
X155555054Y-114372492D01*
X153132100Y-109624400D02*
X155555054Y-112047354D01*
X155555054Y-117472308D02*
X155555054Y-121747354D01*
X155555054Y-121747354D02*
X157100100Y-123292400D01*
X155555054Y-117472308D02*
X155555054Y-114372492D01*
D31*
X141590100Y-99552400D02*
X141610100Y-99552400D01*
D29*
X141590100Y-99552400D02*
X141590100Y-105802400D01*
D28*
X155570100Y-80102400D02*
X157020100Y-80102400D01*
X157020100Y-80102400D02*
X158580100Y-81662400D01*
X158580100Y-81662400D02*
X158580100Y-87742400D01*
X158580100Y-87742400D02*
X155040100Y-87742400D01*
X146580100Y-96202400D02*
X141590100Y-96202400D01*
X155040100Y-87742400D02*
X146580100Y-96202400D01*
D29*
X141590100Y-96202400D02*
X141590100Y-99552400D01*
X141590100Y-91857400D02*
X141590100Y-96202400D01*
D28*
%TO.N,DBG_SWCLK*%
X129619986Y-75282286D02*
X129460100Y-75122400D01*
X133960080Y-75282286D02*
X129619986Y-75282286D01*
D29*
X135214078Y-75282286D02*
X133960080Y-75282286D01*
X140320100Y-80388308D02*
X135214078Y-75282286D01*
X140320100Y-81632400D02*
X140320100Y-82162400D01*
X140320100Y-90587400D02*
X140320100Y-81632400D01*
X140320100Y-81632400D02*
X140320100Y-80388308D01*
X154710100Y-96162400D02*
X157100100Y-98552400D01*
X154710100Y-94392400D02*
X154710100Y-96162400D01*
D28*
%TO.N,DBG_SWDIO*%
X130450058Y-73572358D02*
X129460100Y-72582400D01*
X133960080Y-73572358D02*
X130450058Y-73572358D01*
D29*
X135214078Y-73572358D02*
X133960080Y-73572358D01*
X141590100Y-79948380D02*
X135214078Y-73572358D01*
X141590100Y-85332400D02*
X141600100Y-85332400D01*
X141590100Y-90587400D02*
X141590100Y-85332400D01*
X141590100Y-85332400D02*
X141590100Y-79948380D01*
X151240100Y-96882400D02*
X157100100Y-102742400D01*
X151240100Y-95402400D02*
X151240100Y-96882400D01*
D28*
%TO.N,DBG_SWO*%
X131280130Y-71862430D02*
X129460100Y-70042400D01*
X133960080Y-71862430D02*
X131280130Y-71862430D01*
D29*
X142860100Y-91857400D02*
X142860100Y-93342400D01*
X142860100Y-93342400D02*
X145010100Y-93342400D01*
X145010100Y-93342400D02*
X148390100Y-89962400D01*
X148390100Y-89962400D02*
X148390100Y-84062400D01*
D28*
%TO.N,RESETn*%
X132940020Y-68442320D02*
X129460100Y-64962400D01*
X133960080Y-68442320D02*
X132940020Y-68442320D01*
D31*
X144837206Y-91857400D02*
X146700100Y-89994506D01*
X144130100Y-91857400D02*
X144837206Y-91857400D01*
X146700100Y-85672400D02*
X145280100Y-84252400D01*
X146700100Y-89994506D02*
X146700100Y-85672400D01*
X134234948Y-68442320D02*
X133960080Y-68442320D01*
X143750100Y-77957472D02*
X134234948Y-68442320D01*
X143750100Y-82802400D02*
X143750100Y-77957472D01*
D28*
%TO.N,/Sheet5FB19A08/I2C_SDA*%
X154120224Y-71392276D02*
X155570100Y-69942400D01*
X149960048Y-71392276D02*
X154120224Y-71392276D01*
%TO.N,/Sheet5FB19A08/I2C_SCL*%
X154760050Y-73292450D02*
X155570100Y-72482400D01*
X149960048Y-73292450D02*
X154760050Y-73292450D01*
%TO.N,/Sheet5FB19A08/PB12*%
X155400130Y-75192370D02*
X155570100Y-75022400D01*
X149960048Y-75192370D02*
X155400130Y-75192370D01*
%TO.N,/Sheet5FB19A08/PB13*%
X155099990Y-77092290D02*
X155570100Y-77562400D01*
X149960048Y-77092290D02*
X155099990Y-77092290D01*
%TO.N,/Sheet5FB19A08/PC10*%
X130960104Y-78702396D02*
X129460100Y-80202400D01*
X133960080Y-78702396D02*
X130960104Y-78702396D01*
%TO.N,/Sheet5FB19A08/PC11*%
X130130032Y-76992468D02*
X129460100Y-77662400D01*
X133960080Y-76992468D02*
X130130032Y-76992468D01*
%TO.N,/Sheet5FB19A08/DBG_TDI*%
X132110202Y-70152502D02*
X129460100Y-67502400D01*
X133960080Y-70152502D02*
X132110202Y-70152502D01*
%TO.N,Net-(C1-Pad2)*%
X151660100Y-113864400D02*
X149452100Y-111656400D01*
X151660100Y-114189900D02*
X151660100Y-113864400D01*
%TO.N,Net-(C1-Pad1)*%
X153996376Y-115914900D02*
X154005146Y-115923670D01*
X151660100Y-115914900D02*
X153996376Y-115914900D01*
%TD*%
M02*
