%TF.GenerationSoftware,KiCad,Pcbnew,(5.1.9-0-10_14)*%
%TF.CreationDate,2021-02-17T21:02:51+08:00*%
%TF.ProjectId,bbb_multirouter,6262625f-6d75-46c7-9469-726f75746572,rev?*%
%TF.SameCoordinates,Original*%
%TF.FileFunction,Copper,L1,Top*%
%TF.FilePolarity,Positive*%
%FSLAX46Y46*%
G04 Gerber Fmt 4.6, Leading zero omitted, Abs format (unit mm)*
G04 Created by KiCad (PCBNEW (5.1.9-0-10_14)) date 2021-02-17 21:02:51*
%MOMM*%
%LPD*%
G01*
G04 APERTURE LIST*
%TA.AperFunction,ComponentPad*%
%ADD10O,1.700000X1.700000*%
%TD*%
%TA.AperFunction,ComponentPad*%
%ADD11R,1.700000X1.700000*%
%TD*%
%TA.AperFunction,ComponentPad*%
%ADD12O,1.000000X1.000000*%
%TD*%
%TA.AperFunction,ComponentPad*%
%ADD13R,1.000000X1.000000*%
%TD*%
%TA.AperFunction,SMDPad,CuDef*%
%ADD14R,0.899998X1.699997*%
%TD*%
%TA.AperFunction,ComponentPad*%
%ADD15O,1.000000X2.100000*%
%TD*%
%TA.AperFunction,ComponentPad*%
%ADD16O,1.000000X1.600000*%
%TD*%
%TA.AperFunction,ComponentPad*%
%ADD17R,1.727200X1.727200*%
%TD*%
%TA.AperFunction,ComponentPad*%
%ADD18O,1.727200X1.727200*%
%TD*%
%TA.AperFunction,ViaPad*%
%ADD19C,0.600000*%
%TD*%
%TA.AperFunction,Conductor*%
%ADD20C,0.508000*%
%TD*%
%TA.AperFunction,Conductor*%
%ADD21C,0.250000*%
%TD*%
%TA.AperFunction,Conductor*%
%ADD22C,0.254000*%
%TD*%
%TA.AperFunction,Conductor*%
%ADD23C,0.200000*%
%TD*%
%TA.AperFunction,Conductor*%
%ADD24C,1.016000*%
%TD*%
G04 APERTURE END LIST*
D10*
%TO.P,J5,10*%
%TO.N,RESETn*%
X156870100Y-117862400D03*
%TO.P,J5,9*%
%TO.N,/Sheet5FB19A08/DBG_TDI*%
X156870100Y-115322400D03*
%TO.P,J5,8*%
%TO.N,DBG_SWO*%
X156870100Y-112782400D03*
%TO.P,J5,7*%
%TO.N,DBG_SWDIO*%
X156870100Y-110242400D03*
%TO.P,J5,6*%
%TO.N,DBG_SWCLK*%
X156870100Y-107702400D03*
%TO.P,J5,5*%
%TO.N,/Sheet5FB19A08/PC11*%
X156870100Y-105162400D03*
%TO.P,J5,4*%
%TO.N,/Sheet5FB19A08/PC10*%
X156870100Y-102622400D03*
%TO.P,J5,3*%
%TO.N,UART1_TXD*%
X156870100Y-100082400D03*
%TO.P,J5,2*%
%TO.N,UART1_RXD*%
X156870100Y-97542400D03*
D11*
%TO.P,J5,1*%
%TO.N,GND*%
X156870100Y-95002400D03*
%TD*%
D10*
%TO.P,J4,6*%
%TO.N,/Sheet5FB19A08/I2C_SDA*%
X147320100Y-95282400D03*
%TO.P,J4,5*%
%TO.N,/Sheet5FB19A08/I2C_SCL*%
X147320100Y-92742400D03*
%TO.P,J4,4*%
%TO.N,/Sheet5FB19A08/PB12*%
X147320100Y-90202400D03*
%TO.P,J4,3*%
%TO.N,/Sheet5FB19A08/PB13*%
X147320100Y-87662400D03*
%TO.P,J4,2*%
%TO.N,GND*%
X147320100Y-85122400D03*
D11*
%TO.P,J4,1*%
%TO.N,+3V3*%
X147320100Y-82582400D03*
%TD*%
D12*
%TO.P,CON1,9*%
%TO.N,GND*%
X157310100Y-76717400D03*
%TO.P,CON1,10*%
%TO.N,UART0_TX*%
X157310100Y-75447400D03*
%TO.P,CON1,7*%
%TO.N,DBG_SWCLK*%
X156040100Y-76717400D03*
%TO.P,CON1,8*%
%TO.N,UART0_RX*%
X156040100Y-75447400D03*
%TO.P,CON1,5*%
%TO.N,DBG_SWDIO*%
X154770100Y-76717400D03*
%TO.P,CON1,6*%
%TO.N,GND*%
X154770100Y-75447400D03*
%TO.P,CON1,3*%
%TO.N,+3V3*%
X153500100Y-76717400D03*
%TO.P,CON1,4*%
%TO.N,DBG_SWO*%
X153500100Y-75447400D03*
%TO.P,CON1,2*%
%TO.N,RESETn*%
X152230100Y-75447400D03*
D13*
%TO.P,CON1,1*%
%TO.N,Net-(CON1-Pad1)*%
X152230100Y-76717400D03*
%TD*%
D14*
%TO.P,SW3,1*%
%TO.N,LCD_DATA2*%
X162390070Y-123712400D03*
%TO.P,SW3,2*%
%TO.N,GND*%
X157790130Y-123712400D03*
%TD*%
%TO.P,SW2,1*%
%TO.N,SYS_RESETN*%
X124120130Y-54372400D03*
%TO.P,SW2,2*%
%TO.N,GND*%
X128720070Y-54372400D03*
%TD*%
%TO.P,SW1,1*%
%TO.N,PWR_BUT*%
X124170130Y-47052400D03*
%TO.P,SW1,2*%
%TO.N,GND*%
X128770070Y-47052400D03*
%TD*%
D15*
%TO.P,J3,S1*%
%TO.N,GND*%
X165330100Y-57162400D03*
X156690100Y-57162400D03*
D16*
X156690100Y-52982400D03*
X165330100Y-52982400D03*
%TD*%
D10*
%TO.P,J2,2*%
%TO.N,USB_DP*%
X132570100Y-116039400D03*
D11*
%TO.P,J2,1*%
%TO.N,USB_DM*%
X130030100Y-116039400D03*
%TD*%
D10*
%TO.P,J1,6*%
%TO.N,Net-(J1-Pad6)*%
X122137100Y-97942400D03*
%TO.P,J1,5*%
%TO.N,UART0_TX*%
X122137100Y-95402400D03*
%TO.P,J1,4*%
%TO.N,UART0_RX*%
X122137100Y-92862400D03*
%TO.P,J1,3*%
%TO.N,Net-(J1-Pad3)*%
X122137100Y-90322400D03*
%TO.P,J1,2*%
%TO.N,Net-(J1-Pad2)*%
X122137100Y-87782400D03*
D11*
%TO.P,J1,1*%
%TO.N,GND*%
X122137100Y-85242400D03*
%TD*%
D17*
%TO.P,P8,1*%
%TO.N,GND*%
X164630100Y-62382400D03*
D18*
%TO.P,P8,2*%
X167170100Y-62382400D03*
%TO.P,P8,3*%
%TO.N,MMC1_DAT6*%
X164630100Y-64922400D03*
%TO.P,P8,4*%
%TO.N,MMC1_DAT7*%
X167170100Y-64922400D03*
%TO.P,P8,5*%
%TO.N,MMC1_DAT2*%
X164630100Y-67462400D03*
%TO.P,P8,6*%
%TO.N,MMC1_DAT3*%
X167170100Y-67462400D03*
%TO.P,P8,7*%
%TO.N,GPIO_66*%
X164630100Y-70002400D03*
%TO.P,P8,8*%
%TO.N,GPIO_67*%
X167170100Y-70002400D03*
%TO.P,P8,9*%
%TO.N,GPIO_69*%
X164630100Y-72542400D03*
%TO.P,P8,10*%
%TO.N,GPIO_68*%
X167170100Y-72542400D03*
%TO.P,P8,11*%
%TO.N,GPIO_45*%
X164630100Y-75082400D03*
%TO.P,P8,12*%
%TO.N,GPIO_44*%
X167170100Y-75082400D03*
%TO.P,P8,13*%
%TO.N,EHRPWM2B*%
X164630100Y-77622400D03*
%TO.P,P8,14*%
%TO.N,GPIO_26*%
X167170100Y-77622400D03*
%TO.P,P8,15*%
%TO.N,GPIO_47*%
X164630100Y-80162400D03*
%TO.P,P8,16*%
%TO.N,GPIO_46*%
X167170100Y-80162400D03*
%TO.P,P8,17*%
%TO.N,GPIO_27*%
X164630100Y-82702400D03*
%TO.P,P8,18*%
%TO.N,GPIO_65*%
X167170100Y-82702400D03*
%TO.P,P8,19*%
%TO.N,EHRPWM2A*%
X164630100Y-85242400D03*
%TO.P,P8,20*%
%TO.N,MMC1_CMD*%
X167170100Y-85242400D03*
%TO.P,P8,21*%
%TO.N,MMC1_CLK*%
X164630100Y-87782400D03*
%TO.P,P8,22*%
%TO.N,MMC1_DAT5*%
X167170100Y-87782400D03*
%TO.P,P8,23*%
%TO.N,MMC1_DAT4*%
X164630100Y-90322400D03*
%TO.P,P8,24*%
%TO.N,MMC1_DAT1*%
X167170100Y-90322400D03*
%TO.P,P8,25*%
%TO.N,MMC1_DAT0*%
X164630100Y-92862400D03*
%TO.P,P8,26*%
%TO.N,GPIO_61*%
X167170100Y-92862400D03*
%TO.P,P8,27*%
%TO.N,LCD_VSYNC*%
X164630100Y-95402400D03*
%TO.P,P8,28*%
%TO.N,LCD_PCLK*%
X167170100Y-95402400D03*
%TO.P,P8,29*%
%TO.N,LCD_HSYNC*%
X164630100Y-97942400D03*
%TO.P,P8,30*%
%TO.N,LCD_AC_BIAS*%
X167170100Y-97942400D03*
%TO.P,P8,31*%
%TO.N,LCD_DATA14*%
X164630100Y-100482400D03*
%TO.P,P8,32*%
%TO.N,LCD_DATA15*%
X167170100Y-100482400D03*
%TO.P,P8,33*%
%TO.N,LCD_DATA13*%
X164630100Y-103022400D03*
%TO.P,P8,34*%
%TO.N,LCD_DATA11*%
X167170100Y-103022400D03*
%TO.P,P8,35*%
%TO.N,LCD_DATA12*%
X164630100Y-105562400D03*
%TO.P,P8,36*%
%TO.N,LCD_DATA10*%
X167170100Y-105562400D03*
%TO.P,P8,37*%
%TO.N,LCD_DATA8*%
X164630100Y-108102400D03*
%TO.P,P8,38*%
%TO.N,LCD_DATA9*%
X167170100Y-108102400D03*
%TO.P,P8,39*%
%TO.N,LCD_DATA6*%
X164630100Y-110642400D03*
%TO.P,P8,40*%
%TO.N,LCD_DATA7*%
X167170100Y-110642400D03*
%TO.P,P8,41*%
%TO.N,LCD_DATA4*%
X164630100Y-113182400D03*
%TO.P,P8,42*%
%TO.N,LCD_DATA5*%
X167170100Y-113182400D03*
%TO.P,P8,43*%
%TO.N,LCD_DATA2*%
X164630100Y-115722400D03*
%TO.P,P8,44*%
%TO.N,LCD_DATA3*%
X167170100Y-115722400D03*
%TO.P,P8,45*%
%TO.N,LCD_DATA0*%
X164630100Y-118262400D03*
%TO.P,P8,46*%
%TO.N,LCD_DATA1*%
X167170100Y-118262400D03*
%TD*%
D17*
%TO.P,P9,1*%
%TO.N,GND*%
X116370100Y-62382400D03*
D18*
%TO.P,P9,2*%
X118910100Y-62382400D03*
%TO.P,P9,3*%
%TO.N,+3V3*%
X116370100Y-64922400D03*
%TO.P,P9,4*%
X118910100Y-64922400D03*
%TO.P,P9,5*%
%TO.N,+5V*%
X116370100Y-67462400D03*
%TO.P,P9,6*%
X118910100Y-67462400D03*
%TO.P,P9,7*%
%TO.N,SYS_5V*%
X116370100Y-70002400D03*
%TO.P,P9,8*%
X118910100Y-70002400D03*
%TO.P,P9,9*%
%TO.N,PWR_BUT*%
X116370100Y-72542400D03*
%TO.P,P9,10*%
%TO.N,SYS_RESETN*%
X118910100Y-72542400D03*
%TO.P,P9,11*%
%TO.N,UART4_RXD*%
X116370100Y-75082400D03*
%TO.P,P9,12*%
%TO.N,GPIO_60*%
X118910100Y-75082400D03*
%TO.P,P9,13*%
%TO.N,UART4_TXD*%
X116370100Y-77622400D03*
%TO.P,P9,14*%
%TO.N,EHRPWM1A*%
X118910100Y-77622400D03*
%TO.P,P9,15*%
%TO.N,GPIO_48*%
X116370100Y-80162400D03*
%TO.P,P9,16*%
%TO.N,EHRPWM1B*%
X118910100Y-80162400D03*
%TO.P,P9,17*%
%TO.N,SPI0_CS0*%
X116370100Y-82702400D03*
%TO.P,P9,18*%
%TO.N,SPI0_D1*%
X118910100Y-82702400D03*
%TO.P,P9,19*%
%TO.N,I2C2_SCL*%
X116370100Y-85242400D03*
%TO.P,P9,20*%
%TO.N,I2C2_SDA*%
X118910100Y-85242400D03*
%TO.P,P9,21*%
%TO.N,SPI0_D0*%
X116370100Y-87782400D03*
%TO.P,P9,22*%
%TO.N,SPI0_SCLK*%
X118910100Y-87782400D03*
%TO.P,P9,23*%
%TO.N,GPIO_49*%
X116370100Y-90322400D03*
%TO.P,P9,24*%
%TO.N,UART1_TXD*%
X118910100Y-90322400D03*
%TO.P,P9,25*%
%TO.N,GPIO_117*%
X116370100Y-92862400D03*
%TO.P,P9,26*%
%TO.N,UART1_RXD*%
X118910100Y-92862400D03*
%TO.P,P9,27*%
%TO.N,GPIO_115*%
X116370100Y-95402400D03*
%TO.P,P9,28*%
%TO.N,SPI1_CS0*%
X118910100Y-95402400D03*
%TO.P,P9,29*%
%TO.N,SPI1_D0*%
X116370100Y-97942400D03*
%TO.P,P9,30*%
%TO.N,GPIO_112*%
X118910100Y-97942400D03*
%TO.P,P9,31*%
%TO.N,SPI1_SCLK*%
X116370100Y-100482400D03*
%TO.P,P9,32*%
%TO.N,VDD_ADC*%
X118910100Y-100482400D03*
%TO.P,P9,33*%
%TO.N,AIN4*%
X116370100Y-103022400D03*
%TO.P,P9,34*%
%TO.N,GNDA_ADC*%
X118910100Y-103022400D03*
%TO.P,P9,35*%
%TO.N,AIN6*%
X116370100Y-105562400D03*
%TO.P,P9,36*%
%TO.N,AIN5*%
X118910100Y-105562400D03*
%TO.P,P9,37*%
%TO.N,AIN2*%
X116370100Y-108102400D03*
%TO.P,P9,38*%
%TO.N,AIN3*%
X118910100Y-108102400D03*
%TO.P,P9,39*%
%TO.N,AIN0*%
X116370100Y-110642400D03*
%TO.P,P9,40*%
%TO.N,AIN1*%
X118910100Y-110642400D03*
%TO.P,P9,41*%
%TO.N,GPIO_20*%
X116370100Y-113182400D03*
%TO.P,P9,42*%
%TO.N,ECAPPWM0*%
X118910100Y-113182400D03*
%TO.P,P9,43*%
%TO.N,GND*%
X116370100Y-115722400D03*
%TO.P,P9,44*%
X118910100Y-115722400D03*
%TO.P,P9,45*%
X116370100Y-118262400D03*
%TO.P,P9,46*%
X118910100Y-118262400D03*
%TD*%
D19*
%TO.N,+3V3*%
X121320100Y-67242400D03*
X147910000Y-80240000D03*
X150260000Y-80240000D03*
X137310000Y-79190000D03*
X124200000Y-69570000D03*
%TO.N,+5V*%
X158510000Y-61090000D03*
X121950000Y-71330000D03*
%TO.N,UART1_TXD*%
X150620100Y-103472400D03*
%TO.N,UART1_RXD*%
X150550100Y-101762400D03*
%TO.N,GND*%
X148240100Y-116902400D03*
X139600000Y-76910000D03*
X136280000Y-71530000D03*
X155840000Y-86330000D03*
X152820000Y-85940000D03*
X150530000Y-85680000D03*
X127916394Y-88736394D03*
%TD*%
D20*
%TO.N,+3V3*%
X116370100Y-64922400D02*
X118910100Y-64922400D01*
X119000100Y-64922400D02*
X121320100Y-67242400D01*
X118910100Y-64922400D02*
X119000100Y-64922400D01*
X147910000Y-80240000D02*
X150260000Y-80240000D01*
X127690000Y-69570000D02*
X124200000Y-69570000D01*
X137310000Y-79190000D02*
X127690000Y-69570000D01*
%TO.N,+5V*%
X116370100Y-67462400D02*
X118910100Y-67462400D01*
X121950000Y-70704078D02*
X121950000Y-71330000D01*
X123838079Y-68815999D02*
X121950000Y-70704078D01*
X150784001Y-68815999D02*
X123838079Y-68815999D01*
X158510000Y-61090000D02*
X150784001Y-68815999D01*
%TO.N,SYS_5V*%
X116370100Y-70002400D02*
X118910100Y-70002400D01*
D21*
%TO.N,PWR_BUT*%
X119480629Y-71191001D02*
X122750100Y-67921530D01*
X117721499Y-71191001D02*
X119480629Y-71191001D01*
X116370100Y-72542400D02*
X117721499Y-71191001D01*
X122750100Y-48472430D02*
X124170130Y-47052400D01*
X122750100Y-67921530D02*
X122750100Y-48472430D01*
%TO.N,SYS_RESETN*%
X124120130Y-67332370D02*
X118910100Y-72542400D01*
X124120130Y-54372400D02*
X124120130Y-67332370D01*
D22*
%TO.N,UART0_TX*%
X144077100Y-73462400D02*
X122137100Y-95402400D01*
X155325100Y-73462400D02*
X144077100Y-73462400D01*
X157310100Y-75447400D02*
X155325100Y-73462400D01*
%TO.N,UART0_RX*%
X122315099Y-92684401D02*
X122137100Y-92862400D01*
D23*
%TO.N,LCD_DATA2*%
X164350100Y-123712400D02*
X162390070Y-123712400D01*
X165793701Y-122268799D02*
X164350100Y-123712400D01*
X165793701Y-116886001D02*
X165793701Y-122268799D01*
X164630100Y-115722400D02*
X165793701Y-116886001D01*
%TO.N,UART1_TXD*%
X117746499Y-95960929D02*
X117746499Y-91486001D01*
X117746499Y-91486001D02*
X118910100Y-90322400D01*
X118351571Y-96566001D02*
X117746499Y-95960929D01*
X119255831Y-96566001D02*
X118351571Y-96566001D01*
X120073701Y-97383871D02*
X119255831Y-96566001D01*
X120073701Y-97581003D02*
X120073701Y-97383871D01*
X125965098Y-103472400D02*
X120073701Y-97581003D01*
X150620100Y-103472400D02*
X125965098Y-103472400D01*
%TO.N,UART1_RXD*%
X120073701Y-95041003D02*
X120073701Y-94026001D01*
X121585099Y-96552401D02*
X120073701Y-95041003D01*
X145340101Y-96552401D02*
X121585099Y-96552401D01*
X120073701Y-94026001D02*
X118910100Y-92862400D01*
X150550100Y-101762400D02*
X145340101Y-96552401D01*
D24*
%TO.N,GND*%
X156690100Y-57162400D02*
X156690100Y-52982400D01*
D20*
X156690100Y-52982400D02*
X165330100Y-52982400D01*
X164630100Y-62382400D02*
X167170100Y-62382400D01*
X167170100Y-62382400D02*
X167170100Y-57562400D01*
X167170100Y-57562400D02*
X165330100Y-55722400D01*
D24*
X165330100Y-55722400D02*
X165330100Y-57162400D01*
X165330100Y-52982400D02*
X165330100Y-55722400D01*
D20*
X128720070Y-47102400D02*
X128770070Y-47052400D01*
X128720070Y-54372400D02*
X128720070Y-47102400D01*
X127466071Y-45748401D02*
X126366101Y-45748401D01*
X128770070Y-47052400D02*
X127466071Y-45748401D01*
X126366101Y-45748401D02*
X125710100Y-45092400D01*
X124012931Y-45092400D02*
X119410100Y-49695231D01*
X125710100Y-45092400D02*
X124012931Y-45092400D01*
X119410100Y-61882400D02*
X118910100Y-62382400D01*
X119410100Y-49695231D02*
X119410100Y-61882400D01*
X118910100Y-62382400D02*
X116370100Y-62382400D01*
X116370100Y-115722400D02*
X118910100Y-115722400D01*
X118910100Y-115722400D02*
X118910100Y-118262400D01*
X116370100Y-115722400D02*
X116370100Y-118262400D01*
X157790130Y-123712400D02*
X156680100Y-123712400D01*
X149870100Y-116902400D02*
X148240100Y-116902400D01*
X156680100Y-123712400D02*
X149870100Y-116902400D01*
X136280000Y-73590000D02*
X136280000Y-71530000D01*
X139600000Y-76910000D02*
X136280000Y-73590000D01*
X153210000Y-86330000D02*
X152820000Y-85940000D01*
X155840000Y-86330000D02*
X153210000Y-86330000D01*
X147877700Y-85680000D02*
X147320100Y-85122400D01*
X150530000Y-85680000D02*
X147877700Y-85680000D01*
X157310100Y-84859900D02*
X155840000Y-86330000D01*
X157310100Y-76717400D02*
X157310100Y-84859900D01*
X124422400Y-85242400D02*
X122137100Y-85242400D01*
X127916394Y-88736394D02*
X124422400Y-85242400D01*
D22*
%TO.N,DBG_SWO*%
X151403099Y-107315399D02*
X156870100Y-112782400D01*
X151403099Y-75050439D02*
X151403099Y-107315399D01*
X151833139Y-74620399D02*
X151403099Y-75050439D01*
X152673099Y-74620399D02*
X151833139Y-74620399D01*
X153500100Y-75447400D02*
X152673099Y-74620399D01*
%TD*%
M02*
