%TF.GenerationSoftware,KiCad,Pcbnew,(5.1.9-0-10_14)*%
%TF.CreationDate,2021-02-17T21:02:51+08:00*%
%TF.ProjectId,bbb_multirouter,6262625f-6d75-46c7-9469-726f75746572,rev?*%
%TF.SameCoordinates,Original*%
%TF.FileFunction,Legend,Bot*%
%TF.FilePolarity,Positive*%
%FSLAX46Y46*%
G04 Gerber Fmt 4.6, Leading zero omitted, Abs format (unit mm)*
G04 Created by KiCad (PCBNEW (5.1.9-0-10_14)) date 2021-02-17 21:02:51*
%MOMM*%
%LPD*%
G01*
G04 APERTURE LIST*
%ADD10C,0.120000*%
%ADD11C,0.254000*%
%ADD12C,0.299999*%
%ADD13C,0.150114*%
%ADD14C,0.100076*%
%ADD15C,0.150000*%
G04 APERTURE END LIST*
D10*
%TO.C,C1*%
X131780100Y-75296133D02*
X131780100Y-75588667D01*
X132800100Y-75296133D02*
X132800100Y-75588667D01*
D11*
%TO.C,JP3*%
X132551372Y-70467492D02*
X132551372Y-68927490D01*
X132551372Y-68927490D02*
X132031434Y-68927490D01*
X132031434Y-68927490D02*
X132031434Y-70427360D01*
X133831278Y-69107576D02*
X133831278Y-69276232D01*
X133831278Y-71938660D02*
X133831278Y-72107570D01*
X133831278Y-72107570D02*
X133162496Y-72107570D01*
X131400244Y-72107570D02*
X130731462Y-72107570D01*
X130731462Y-72107570D02*
X130731462Y-71938660D01*
X130731462Y-69276232D02*
X130731462Y-69107576D01*
X130731462Y-69107576D02*
X133831278Y-69107576D01*
X132581090Y-70607446D02*
G75*
G03*
X132581090Y-70607446I-299720J0D01*
G01*
%TO.C,U2*%
X127890126Y-92202400D02*
X140890100Y-92202400D01*
X127890126Y-80002272D02*
X127890126Y-92202400D01*
X140890100Y-80002272D02*
X127890126Y-80002272D01*
X140890100Y-92202400D02*
X140890100Y-80002272D01*
D12*
X142206074Y-93218400D02*
G75*
G03*
X142206074Y-93218400I-299974J0D01*
G01*
D10*
%TO.C,JP2*%
X159430100Y-110892400D02*
X159430100Y-112892400D01*
X162230100Y-110892400D02*
X159430100Y-110892400D01*
X162230100Y-112892400D02*
X162230100Y-110892400D01*
X159430100Y-112892400D02*
X162230100Y-112892400D01*
%TO.C,JP1*%
X159430100Y-113742400D02*
X159430100Y-115742400D01*
X162230100Y-113742400D02*
X159430100Y-113742400D01*
X162230100Y-115742400D02*
X162230100Y-113742400D01*
X159430100Y-115742400D02*
X162230100Y-115742400D01*
D13*
%TO.C,U1*%
X139000210Y-115492264D02*
X151000186Y-115492264D01*
X139000210Y-99992422D02*
X139000210Y-115492264D01*
X151000186Y-99992422D02*
X139000210Y-99992422D01*
X151000186Y-115492264D02*
X151000186Y-99992422D01*
D14*
X138250148Y-113742458D02*
X138250148Y-118742448D01*
X135750026Y-113742458D02*
X138250148Y-113742458D01*
X135750026Y-101742482D02*
X135750026Y-113742458D01*
X138250148Y-101742482D02*
X135750026Y-101742482D01*
X138250148Y-98742488D02*
X138250148Y-101742482D01*
X152250120Y-98742488D02*
X138250148Y-98742488D01*
X152250120Y-116742452D02*
X152250120Y-98742488D01*
X148250128Y-116742452D02*
X152250120Y-116742452D01*
X148250128Y-123242312D02*
X148250128Y-116742452D01*
X134150080Y-123242312D02*
X148250128Y-123242312D01*
X134150080Y-118742448D02*
X134150080Y-123242312D01*
X138250148Y-118742448D02*
X134150080Y-118742448D01*
D10*
%TO.C,J3*%
X156310100Y-50132400D02*
X165710100Y-50132400D01*
X165710100Y-55932400D02*
X165710100Y-53932400D01*
X165710100Y-52032400D02*
X165710100Y-50132400D01*
X156310100Y-55932400D02*
X156310100Y-53932400D01*
X156310100Y-52032400D02*
X156310100Y-50132400D01*
%TO.C,C1*%
D15*
X131217242Y-75275733D02*
X131264861Y-75228114D01*
X131312480Y-75085257D01*
X131312480Y-74990019D01*
X131264861Y-74847161D01*
X131169623Y-74751923D01*
X131074385Y-74704304D01*
X130883909Y-74656685D01*
X130741052Y-74656685D01*
X130550576Y-74704304D01*
X130455338Y-74751923D01*
X130360100Y-74847161D01*
X130312480Y-74990019D01*
X130312480Y-75085257D01*
X130360100Y-75228114D01*
X130407719Y-75275733D01*
X131312480Y-76228114D02*
X131312480Y-75656685D01*
X131312480Y-75942400D02*
X130312480Y-75942400D01*
X130455338Y-75847161D01*
X130550576Y-75751923D01*
X130598195Y-75656685D01*
%TO.C,JP3*%
X135523433Y-72104780D02*
X135523433Y-72819066D01*
X135571052Y-72961923D01*
X135666290Y-73057161D01*
X135809147Y-73104780D01*
X135904385Y-73104780D01*
X135047242Y-73104780D02*
X135047242Y-72104780D01*
X134666290Y-72104780D01*
X134571052Y-72152400D01*
X134523433Y-72200019D01*
X134475814Y-72295257D01*
X134475814Y-72438114D01*
X134523433Y-72533352D01*
X134571052Y-72580971D01*
X134666290Y-72628590D01*
X135047242Y-72628590D01*
X134142480Y-72104780D02*
X133523433Y-72104780D01*
X133856766Y-72485733D01*
X133713909Y-72485733D01*
X133618671Y-72533352D01*
X133571052Y-72580971D01*
X133523433Y-72676209D01*
X133523433Y-72914304D01*
X133571052Y-73009542D01*
X133618671Y-73057161D01*
X133713909Y-73104780D01*
X133999623Y-73104780D01*
X134094861Y-73057161D01*
X134142480Y-73009542D01*
%TO.C,U2*%
X130342480Y-91440495D02*
X131152004Y-91440495D01*
X131247242Y-91488114D01*
X131294861Y-91535733D01*
X131342480Y-91630971D01*
X131342480Y-91821447D01*
X131294861Y-91916685D01*
X131247242Y-91964304D01*
X131152004Y-92011923D01*
X130342480Y-92011923D01*
X130437719Y-92440495D02*
X130390100Y-92488114D01*
X130342480Y-92583352D01*
X130342480Y-92821447D01*
X130390100Y-92916685D01*
X130437719Y-92964304D01*
X130532957Y-93011923D01*
X130628195Y-93011923D01*
X130771052Y-92964304D01*
X131342480Y-92392876D01*
X131342480Y-93011923D01*
%TO.C,JP2*%
X161773433Y-109334780D02*
X161773433Y-110049066D01*
X161821052Y-110191923D01*
X161916290Y-110287161D01*
X162059147Y-110334780D01*
X162154385Y-110334780D01*
X161297242Y-110334780D02*
X161297242Y-109334780D01*
X160916290Y-109334780D01*
X160821052Y-109382400D01*
X160773433Y-109430019D01*
X160725814Y-109525257D01*
X160725814Y-109668114D01*
X160773433Y-109763352D01*
X160821052Y-109810971D01*
X160916290Y-109858590D01*
X161297242Y-109858590D01*
X160344861Y-109430019D02*
X160297242Y-109382400D01*
X160202004Y-109334780D01*
X159963909Y-109334780D01*
X159868671Y-109382400D01*
X159821052Y-109430019D01*
X159773433Y-109525257D01*
X159773433Y-109620495D01*
X159821052Y-109763352D01*
X160392480Y-110334780D01*
X159773433Y-110334780D01*
%TO.C,JP1*%
X161713433Y-116254780D02*
X161713433Y-116969066D01*
X161761052Y-117111923D01*
X161856290Y-117207161D01*
X161999147Y-117254780D01*
X162094385Y-117254780D01*
X161237242Y-117254780D02*
X161237242Y-116254780D01*
X160856290Y-116254780D01*
X160761052Y-116302400D01*
X160713433Y-116350019D01*
X160665814Y-116445257D01*
X160665814Y-116588114D01*
X160713433Y-116683352D01*
X160761052Y-116730971D01*
X160856290Y-116778590D01*
X161237242Y-116778590D01*
X159713433Y-117254780D02*
X160284861Y-117254780D01*
X159999147Y-117254780D02*
X159999147Y-116254780D01*
X160094385Y-116397638D01*
X160189623Y-116492876D01*
X160284861Y-116540495D01*
%TO.C,U1*%
X152652480Y-110230495D02*
X153462004Y-110230495D01*
X153557242Y-110278114D01*
X153604861Y-110325733D01*
X153652480Y-110420971D01*
X153652480Y-110611447D01*
X153604861Y-110706685D01*
X153557242Y-110754304D01*
X153462004Y-110801923D01*
X152652480Y-110801923D01*
X153652480Y-111801923D02*
X153652480Y-111230495D01*
X153652480Y-111516209D02*
X152652480Y-111516209D01*
X152795338Y-111420971D01*
X152890576Y-111325733D01*
X152938195Y-111230495D01*
%TO.C,J3*%
X161343433Y-59129780D02*
X161343433Y-59844066D01*
X161391052Y-59986923D01*
X161486290Y-60082161D01*
X161629147Y-60129780D01*
X161724385Y-60129780D01*
X160962480Y-59129780D02*
X160343433Y-59129780D01*
X160676766Y-59510733D01*
X160533909Y-59510733D01*
X160438671Y-59558352D01*
X160391052Y-59605971D01*
X160343433Y-59701209D01*
X160343433Y-59939304D01*
X160391052Y-60034542D01*
X160438671Y-60082161D01*
X160533909Y-60129780D01*
X160819623Y-60129780D01*
X160914861Y-60082161D01*
X160962480Y-60034542D01*
%TD*%
M02*
