%TF.GenerationSoftware,KiCad,Pcbnew,(5.1.7-0-10_14)*%
%TF.CreationDate,2020-11-18T23:59:02+08:00*%
%TF.ProjectId,bbb_multirouter,6262625f-6d75-46c7-9469-726f75746572,rev?*%
%TF.SameCoordinates,Original*%
%TF.FileFunction,Copper,L1,Top*%
%TF.FilePolarity,Positive*%
%FSLAX46Y46*%
G04 Gerber Fmt 4.6, Leading zero omitted, Abs format (unit mm)*
G04 Created by KiCad (PCBNEW (5.1.7-0-10_14)) date 2020-11-18 23:59:02*
%MOMM*%
%LPD*%
G01*
G04 APERTURE LIST*
%TA.AperFunction,ComponentPad*%
%ADD10O,1.700000X1.700000*%
%TD*%
%TA.AperFunction,ComponentPad*%
%ADD11R,1.700000X1.700000*%
%TD*%
%TA.AperFunction,ComponentPad*%
%ADD12O,1.000000X1.000000*%
%TD*%
%TA.AperFunction,ComponentPad*%
%ADD13R,1.000000X1.000000*%
%TD*%
%TA.AperFunction,SMDPad,CuDef*%
%ADD14R,0.899998X1.699997*%
%TD*%
%TA.AperFunction,ComponentPad*%
%ADD15O,1.000000X2.100000*%
%TD*%
%TA.AperFunction,ComponentPad*%
%ADD16O,1.000000X1.600000*%
%TD*%
%TA.AperFunction,ComponentPad*%
%ADD17R,1.727200X1.727200*%
%TD*%
%TA.AperFunction,ComponentPad*%
%ADD18O,1.727200X1.727200*%
%TD*%
%TA.AperFunction,ViaPad*%
%ADD19C,0.600000*%
%TD*%
%TA.AperFunction,Conductor*%
%ADD20C,0.508000*%
%TD*%
%TA.AperFunction,Conductor*%
%ADD21C,0.250000*%
%TD*%
%TA.AperFunction,Conductor*%
%ADD22C,0.254000*%
%TD*%
%TA.AperFunction,Conductor*%
%ADD23C,0.200000*%
%TD*%
%TA.AperFunction,Conductor*%
%ADD24C,1.016000*%
%TD*%
G04 APERTURE END LIST*
D10*
%TO.P,J5,10*%
%TO.N,RESETn*%
X129460100Y-64962400D03*
%TO.P,J5,9*%
%TO.N,/Sheet5FB19A08/DBG_TDI*%
X129460100Y-67502400D03*
%TO.P,J5,8*%
%TO.N,DBG_SWO*%
X129460100Y-70042400D03*
%TO.P,J5,7*%
%TO.N,DBG_SWDIO*%
X129460100Y-72582400D03*
%TO.P,J5,6*%
%TO.N,DBG_SWCLK*%
X129460100Y-75122400D03*
%TO.P,J5,5*%
%TO.N,/Sheet5FB19A08/PC11*%
X129460100Y-77662400D03*
%TO.P,J5,4*%
%TO.N,/Sheet5FB19A08/PC10*%
X129460100Y-80202400D03*
%TO.P,J5,3*%
%TO.N,UART1_TXD*%
X129460100Y-82742400D03*
%TO.P,J5,2*%
%TO.N,UART1_RXD*%
X129460100Y-85282400D03*
D11*
%TO.P,J5,1*%
%TO.N,GND*%
X129460100Y-87822400D03*
%TD*%
D10*
%TO.P,J4,6*%
%TO.N,/Sheet5FB19A08/I2C_SDA*%
X155570100Y-69942400D03*
%TO.P,J4,5*%
%TO.N,/Sheet5FB19A08/I2C_SCL*%
X155570100Y-72482400D03*
%TO.P,J4,4*%
%TO.N,/Sheet5FB19A08/PB12*%
X155570100Y-75022400D03*
%TO.P,J4,3*%
%TO.N,/Sheet5FB19A08/PB13*%
X155570100Y-77562400D03*
%TO.P,J4,2*%
%TO.N,GND*%
X155570100Y-80102400D03*
D11*
%TO.P,J4,1*%
%TO.N,+3V3*%
X155570100Y-82642400D03*
%TD*%
D12*
%TO.P,CON1,9*%
%TO.N,GND*%
X139050100Y-90587400D03*
%TO.P,CON1,10*%
%TO.N,UART0_TX*%
X139050100Y-91857400D03*
%TO.P,CON1,7*%
%TO.N,DBG_SWCLK*%
X140320100Y-90587400D03*
%TO.P,CON1,8*%
%TO.N,UART0_RX*%
X140320100Y-91857400D03*
%TO.P,CON1,5*%
%TO.N,DBG_SWDIO*%
X141590100Y-90587400D03*
%TO.P,CON1,6*%
%TO.N,GND*%
X141590100Y-91857400D03*
%TO.P,CON1,3*%
%TO.N,+3V3*%
X142860100Y-90587400D03*
%TO.P,CON1,4*%
%TO.N,DBG_SWO*%
X142860100Y-91857400D03*
%TO.P,CON1,2*%
%TO.N,RESETn*%
X144130100Y-91857400D03*
D13*
%TO.P,CON1,1*%
%TO.N,Net-(CON1-Pad1)*%
X144130100Y-90587400D03*
%TD*%
D14*
%TO.P,SW3,1*%
%TO.N,LCD_DATA2*%
X163200070Y-123392400D03*
%TO.P,SW3,2*%
%TO.N,GND*%
X158600130Y-123392400D03*
%TD*%
%TO.P,SW2,1*%
%TO.N,SYS_RESETN*%
X124120130Y-54372400D03*
%TO.P,SW2,2*%
%TO.N,GND*%
X128720070Y-54372400D03*
%TD*%
%TO.P,SW1,1*%
%TO.N,PWR_BUT*%
X124170130Y-47052400D03*
%TO.P,SW1,2*%
%TO.N,GND*%
X128770070Y-47052400D03*
%TD*%
D15*
%TO.P,J3,S1*%
%TO.N,GND*%
X165330100Y-57162400D03*
X156690100Y-57162400D03*
D16*
X156690100Y-52982400D03*
X165330100Y-52982400D03*
%TD*%
D10*
%TO.P,J2,2*%
%TO.N,USB_DP*%
X132570100Y-116039400D03*
D11*
%TO.P,J2,1*%
%TO.N,USB_DM*%
X130030100Y-116039400D03*
%TD*%
D10*
%TO.P,J1,6*%
%TO.N,Net-(J1-Pad6)*%
X122137100Y-97942400D03*
%TO.P,J1,5*%
%TO.N,UART0_TX*%
X122137100Y-95402400D03*
%TO.P,J1,4*%
%TO.N,UART0_RX*%
X122137100Y-92862400D03*
%TO.P,J1,3*%
%TO.N,Net-(J1-Pad3)*%
X122137100Y-90322400D03*
%TO.P,J1,2*%
%TO.N,Net-(J1-Pad2)*%
X122137100Y-87782400D03*
D11*
%TO.P,J1,1*%
%TO.N,GND*%
X122137100Y-85242400D03*
%TD*%
D17*
%TO.P,P8,1*%
%TO.N,GND*%
X164630100Y-62382400D03*
D18*
%TO.P,P8,2*%
X167170100Y-62382400D03*
%TO.P,P8,3*%
%TO.N,MMC1_DAT6*%
X164630100Y-64922400D03*
%TO.P,P8,4*%
%TO.N,MMC1_DAT7*%
X167170100Y-64922400D03*
%TO.P,P8,5*%
%TO.N,MMC1_DAT2*%
X164630100Y-67462400D03*
%TO.P,P8,6*%
%TO.N,MMC1_DAT3*%
X167170100Y-67462400D03*
%TO.P,P8,7*%
%TO.N,GPIO_66*%
X164630100Y-70002400D03*
%TO.P,P8,8*%
%TO.N,GPIO_67*%
X167170100Y-70002400D03*
%TO.P,P8,9*%
%TO.N,GPIO_69*%
X164630100Y-72542400D03*
%TO.P,P8,10*%
%TO.N,GPIO_68*%
X167170100Y-72542400D03*
%TO.P,P8,11*%
%TO.N,GPIO_45*%
X164630100Y-75082400D03*
%TO.P,P8,12*%
%TO.N,GPIO_44*%
X167170100Y-75082400D03*
%TO.P,P8,13*%
%TO.N,EHRPWM2B*%
X164630100Y-77622400D03*
%TO.P,P8,14*%
%TO.N,GPIO_26*%
X167170100Y-77622400D03*
%TO.P,P8,15*%
%TO.N,GPIO_47*%
X164630100Y-80162400D03*
%TO.P,P8,16*%
%TO.N,GPIO_46*%
X167170100Y-80162400D03*
%TO.P,P8,17*%
%TO.N,GPIO_27*%
X164630100Y-82702400D03*
%TO.P,P8,18*%
%TO.N,GPIO_65*%
X167170100Y-82702400D03*
%TO.P,P8,19*%
%TO.N,EHRPWM2A*%
X164630100Y-85242400D03*
%TO.P,P8,20*%
%TO.N,MMC1_CMD*%
X167170100Y-85242400D03*
%TO.P,P8,21*%
%TO.N,MMC1_CLK*%
X164630100Y-87782400D03*
%TO.P,P8,22*%
%TO.N,MMC1_DAT5*%
X167170100Y-87782400D03*
%TO.P,P8,23*%
%TO.N,MMC1_DAT4*%
X164630100Y-90322400D03*
%TO.P,P8,24*%
%TO.N,MMC1_DAT1*%
X167170100Y-90322400D03*
%TO.P,P8,25*%
%TO.N,MMC1_DAT0*%
X164630100Y-92862400D03*
%TO.P,P8,26*%
%TO.N,GPIO_61*%
X167170100Y-92862400D03*
%TO.P,P8,27*%
%TO.N,LCD_VSYNC*%
X164630100Y-95402400D03*
%TO.P,P8,28*%
%TO.N,LCD_PCLK*%
X167170100Y-95402400D03*
%TO.P,P8,29*%
%TO.N,LCD_HSYNC*%
X164630100Y-97942400D03*
%TO.P,P8,30*%
%TO.N,LCD_AC_BIAS*%
X167170100Y-97942400D03*
%TO.P,P8,31*%
%TO.N,LCD_DATA14*%
X164630100Y-100482400D03*
%TO.P,P8,32*%
%TO.N,LCD_DATA15*%
X167170100Y-100482400D03*
%TO.P,P8,33*%
%TO.N,LCD_DATA13*%
X164630100Y-103022400D03*
%TO.P,P8,34*%
%TO.N,LCD_DATA11*%
X167170100Y-103022400D03*
%TO.P,P8,35*%
%TO.N,LCD_DATA12*%
X164630100Y-105562400D03*
%TO.P,P8,36*%
%TO.N,LCD_DATA10*%
X167170100Y-105562400D03*
%TO.P,P8,37*%
%TO.N,LCD_DATA8*%
X164630100Y-108102400D03*
%TO.P,P8,38*%
%TO.N,LCD_DATA9*%
X167170100Y-108102400D03*
%TO.P,P8,39*%
%TO.N,LCD_DATA6*%
X164630100Y-110642400D03*
%TO.P,P8,40*%
%TO.N,LCD_DATA7*%
X167170100Y-110642400D03*
%TO.P,P8,41*%
%TO.N,LCD_DATA4*%
X164630100Y-113182400D03*
%TO.P,P8,42*%
%TO.N,LCD_DATA5*%
X167170100Y-113182400D03*
%TO.P,P8,43*%
%TO.N,LCD_DATA2*%
X164630100Y-115722400D03*
%TO.P,P8,44*%
%TO.N,LCD_DATA3*%
X167170100Y-115722400D03*
%TO.P,P8,45*%
%TO.N,LCD_DATA0*%
X164630100Y-118262400D03*
%TO.P,P8,46*%
%TO.N,LCD_DATA1*%
X167170100Y-118262400D03*
%TD*%
D17*
%TO.P,P9,1*%
%TO.N,GND*%
X116370100Y-62382400D03*
D18*
%TO.P,P9,2*%
X118910100Y-62382400D03*
%TO.P,P9,3*%
%TO.N,+3V3*%
X116370100Y-64922400D03*
%TO.P,P9,4*%
X118910100Y-64922400D03*
%TO.P,P9,5*%
%TO.N,+5V*%
X116370100Y-67462400D03*
%TO.P,P9,6*%
X118910100Y-67462400D03*
%TO.P,P9,7*%
%TO.N,SYS_5V*%
X116370100Y-70002400D03*
%TO.P,P9,8*%
X118910100Y-70002400D03*
%TO.P,P9,9*%
%TO.N,PWR_BUT*%
X116370100Y-72542400D03*
%TO.P,P9,10*%
%TO.N,SYS_RESETN*%
X118910100Y-72542400D03*
%TO.P,P9,11*%
%TO.N,UART4_RXD*%
X116370100Y-75082400D03*
%TO.P,P9,12*%
%TO.N,GPIO_60*%
X118910100Y-75082400D03*
%TO.P,P9,13*%
%TO.N,UART4_TXD*%
X116370100Y-77622400D03*
%TO.P,P9,14*%
%TO.N,EHRPWM1A*%
X118910100Y-77622400D03*
%TO.P,P9,15*%
%TO.N,GPIO_48*%
X116370100Y-80162400D03*
%TO.P,P9,16*%
%TO.N,EHRPWM1B*%
X118910100Y-80162400D03*
%TO.P,P9,17*%
%TO.N,SPI0_CS0*%
X116370100Y-82702400D03*
%TO.P,P9,18*%
%TO.N,SPI0_D1*%
X118910100Y-82702400D03*
%TO.P,P9,19*%
%TO.N,I2C2_SCL*%
X116370100Y-85242400D03*
%TO.P,P9,20*%
%TO.N,I2C2_SDA*%
X118910100Y-85242400D03*
%TO.P,P9,21*%
%TO.N,SPI0_D0*%
X116370100Y-87782400D03*
%TO.P,P9,22*%
%TO.N,SPI0_SCLK*%
X118910100Y-87782400D03*
%TO.P,P9,23*%
%TO.N,GPIO_49*%
X116370100Y-90322400D03*
%TO.P,P9,24*%
%TO.N,UART1_TXD*%
X118910100Y-90322400D03*
%TO.P,P9,25*%
%TO.N,GPIO_117*%
X116370100Y-92862400D03*
%TO.P,P9,26*%
%TO.N,UART1_RXD*%
X118910100Y-92862400D03*
%TO.P,P9,27*%
%TO.N,GPIO_115*%
X116370100Y-95402400D03*
%TO.P,P9,28*%
%TO.N,SPI1_CS0*%
X118910100Y-95402400D03*
%TO.P,P9,29*%
%TO.N,SPI1_D0*%
X116370100Y-97942400D03*
%TO.P,P9,30*%
%TO.N,GPIO_112*%
X118910100Y-97942400D03*
%TO.P,P9,31*%
%TO.N,SPI1_SCLK*%
X116370100Y-100482400D03*
%TO.P,P9,32*%
%TO.N,VDD_ADC*%
X118910100Y-100482400D03*
%TO.P,P9,33*%
%TO.N,AIN4*%
X116370100Y-103022400D03*
%TO.P,P9,34*%
%TO.N,GNDA_ADC*%
X118910100Y-103022400D03*
%TO.P,P9,35*%
%TO.N,AIN6*%
X116370100Y-105562400D03*
%TO.P,P9,36*%
%TO.N,AIN5*%
X118910100Y-105562400D03*
%TO.P,P9,37*%
%TO.N,AIN2*%
X116370100Y-108102400D03*
%TO.P,P9,38*%
%TO.N,AIN3*%
X118910100Y-108102400D03*
%TO.P,P9,39*%
%TO.N,AIN0*%
X116370100Y-110642400D03*
%TO.P,P9,40*%
%TO.N,AIN1*%
X118910100Y-110642400D03*
%TO.P,P9,41*%
%TO.N,GPIO_20*%
X116370100Y-113182400D03*
%TO.P,P9,42*%
%TO.N,ECAPPWM0*%
X118910100Y-113182400D03*
%TO.P,P9,43*%
%TO.N,GND*%
X116370100Y-115722400D03*
%TO.P,P9,44*%
X118910100Y-115722400D03*
%TO.P,P9,45*%
X116370100Y-118262400D03*
%TO.P,P9,46*%
X118910100Y-118262400D03*
%TD*%
D19*
%TO.N,+3V3*%
X121320100Y-67242400D03*
X125830100Y-83852400D03*
X140200100Y-118642400D03*
%TO.N,+5V*%
X150750100Y-69772400D03*
X126830100Y-62992400D03*
%TO.N,GND*%
X142600100Y-81702400D03*
X142780100Y-78692400D03*
X157100100Y-123292400D03*
%TO.N,DBG_SWCLK*%
X140320100Y-82162400D03*
X154710100Y-94392400D03*
%TO.N,DBG_SWDIO*%
X141600100Y-85332400D03*
X151240100Y-95402400D03*
%TO.N,DBG_SWO*%
X148390100Y-84062400D03*
%TO.N,RESETn*%
X145280100Y-84252400D03*
X143750100Y-82802400D03*
%TD*%
D20*
%TO.N,+3V3*%
X116370100Y-64922400D02*
X118910100Y-64922400D01*
X119000100Y-64922400D02*
X121320100Y-67242400D01*
X118910100Y-64922400D02*
X119000100Y-64922400D01*
X125830100Y-83852400D02*
X125830100Y-87902400D01*
X125830100Y-87902400D02*
X128210100Y-90282400D01*
X128859101Y-89633399D02*
X138629101Y-89633399D01*
X128210100Y-90282400D02*
X128859101Y-89633399D01*
X138629101Y-89633399D02*
X139600100Y-88662400D01*
X142860100Y-89542400D02*
X142860100Y-90587400D01*
X141980100Y-88662400D02*
X142860100Y-89542400D01*
X139600100Y-88662400D02*
X141980100Y-88662400D01*
X142860100Y-89542400D02*
X142860100Y-89492400D01*
X142860100Y-89492400D02*
X143600100Y-88752400D01*
X143600100Y-88752400D02*
X144112302Y-88752400D01*
X144112302Y-88752400D02*
X145360100Y-88752400D01*
X145360100Y-88752400D02*
X147240100Y-90632400D01*
X147240100Y-90632400D02*
X147240100Y-104202400D01*
X147240100Y-104202400D02*
X143240100Y-108202400D01*
X143240100Y-115602400D02*
X140200100Y-118642400D01*
X143240100Y-108202400D02*
X143240100Y-115602400D01*
%TO.N,+5V*%
X150750100Y-69772400D02*
X148870100Y-71652400D01*
X148870100Y-71652400D02*
X134960100Y-71652400D01*
X134960100Y-71652400D02*
X130850100Y-67542400D01*
X130850100Y-64422478D02*
X129420022Y-62992400D01*
X130850100Y-67542400D02*
X130850100Y-64422478D01*
X129420022Y-62992400D02*
X126830100Y-62992400D01*
X116370100Y-67462400D02*
X118910100Y-67462400D01*
%TO.N,SYS_5V*%
X116370100Y-70002400D02*
X118910100Y-70002400D01*
D21*
%TO.N,PWR_BUT*%
X119480629Y-71191001D02*
X122750100Y-67921530D01*
X117721499Y-71191001D02*
X119480629Y-71191001D01*
X116370100Y-72542400D02*
X117721499Y-71191001D01*
X122750100Y-48472430D02*
X124170130Y-47052400D01*
X122750100Y-67921530D02*
X122750100Y-48472430D01*
%TO.N,SYS_RESETN*%
X124120130Y-67332370D02*
X118910100Y-72542400D01*
X124120130Y-54372400D02*
X124120130Y-67332370D01*
D22*
%TO.N,UART0_RX*%
X122315099Y-92684401D02*
X122137100Y-92862400D01*
X139493099Y-92684401D02*
X122315099Y-92684401D01*
X140320100Y-91857400D02*
X139493099Y-92684401D01*
D23*
%TO.N,LCD_DATA2*%
X165793701Y-116886001D02*
X164630100Y-115722400D01*
X165793701Y-120798769D02*
X165793701Y-116886001D01*
X163200070Y-123392400D02*
X165793701Y-120798769D01*
D24*
%TO.N,GND*%
X156690100Y-57162400D02*
X156690100Y-52982400D01*
D20*
X156690100Y-52982400D02*
X165330100Y-52982400D01*
X164630100Y-62382400D02*
X167170100Y-62382400D01*
X167170100Y-62382400D02*
X167170100Y-57562400D01*
X167170100Y-57562400D02*
X165330100Y-55722400D01*
D24*
X165330100Y-55722400D02*
X165330100Y-57162400D01*
X165330100Y-52982400D02*
X165330100Y-55722400D01*
D20*
X128720070Y-47102400D02*
X128770070Y-47052400D01*
X128720070Y-54372400D02*
X128720070Y-47102400D01*
X127466071Y-45748401D02*
X126366101Y-45748401D01*
X128770070Y-47052400D02*
X127466071Y-45748401D01*
X126366101Y-45748401D02*
X125710100Y-45092400D01*
X124012931Y-45092400D02*
X119410100Y-49695231D01*
X125710100Y-45092400D02*
X124012931Y-45092400D01*
X119410100Y-61882400D02*
X118910100Y-62382400D01*
X119410100Y-49695231D02*
X119410100Y-61882400D01*
X118910100Y-62382400D02*
X116370100Y-62382400D01*
X116370100Y-115722400D02*
X118910100Y-115722400D01*
X118910100Y-115722400D02*
X118910100Y-118262400D01*
X116370100Y-115722400D02*
X116370100Y-118262400D01*
X129460100Y-87822400D02*
X131210100Y-87822400D01*
X142306099Y-81408399D02*
X142600100Y-81702400D01*
X137624101Y-81408399D02*
X142306099Y-81408399D01*
X131210100Y-87822400D02*
X137624101Y-81408399D01*
X142780100Y-78692400D02*
X143090100Y-79002400D01*
X154470100Y-79002400D02*
X155570100Y-80102400D01*
X143090100Y-79002400D02*
X154470100Y-79002400D01*
D22*
X129460100Y-87822400D02*
X127180100Y-85542400D01*
X127180100Y-84274438D02*
X127140100Y-84234438D01*
X127180100Y-85542400D02*
X127180100Y-84274438D01*
X127140100Y-84234438D02*
X127140100Y-82672400D01*
X127140100Y-82672400D02*
X126050100Y-81582400D01*
X126050100Y-81582400D02*
X123830100Y-81582400D01*
X122137100Y-83275400D02*
X122137100Y-85242400D01*
X123830100Y-81582400D02*
X122137100Y-83275400D01*
D20*
X158500130Y-123292400D02*
X158600130Y-123392400D01*
X157100100Y-123292400D02*
X158500130Y-123292400D01*
D22*
%TO.N,DBG_SWCLK*%
X140744364Y-82162400D02*
X152974364Y-94392400D01*
X140320100Y-82162400D02*
X140744364Y-82162400D01*
X152974364Y-94392400D02*
X154710100Y-94392400D01*
%TO.N,DBG_SWDIO*%
X141600100Y-85332400D02*
X143240100Y-85332400D01*
X151240100Y-93332400D02*
X151240100Y-95402400D01*
X143240100Y-85332400D02*
X151240100Y-93332400D01*
%TO.N,DBG_SWO*%
X148390100Y-84062400D02*
X148390100Y-83322400D01*
X132528428Y-70042400D02*
X129460100Y-70042400D01*
X145808428Y-83322400D02*
X132528428Y-70042400D01*
X148390100Y-83322400D02*
X145808428Y-83322400D01*
D21*
%TO.N,RESETn*%
X145200100Y-84252400D02*
X143750100Y-82802400D01*
X145280100Y-84252400D02*
X145200100Y-84252400D01*
%TD*%
M02*
