M48
; DRILL file {KiCad (5.1.9-0-10_14)} date Wednesday, February 17, 2021 at 09:02:54 PM
; FORMAT={-:-/ absolute / inch / decimal}
; #@! TF.CreationDate,2021-02-17T21:02:54+08:00
; #@! TF.GenerationSoftware,Kicad,Pcbnew,(5.1.9-0-10_14)
; #@! TF.FileFunction,Plated,1,2,PTH
FMAT,2
INCH
T1C0.0157
T2C0.0197
T3C0.0236
T4C0.0394
T5C0.0400
%
G90
G05
T1
X4.7764Y-2.6473
X4.8012Y-2.8083
X4.8898Y-2.739
X5.0361Y-3.4936
X5.3654Y-2.8161
X5.4059Y-3.1177
X5.4961Y-3.028
X5.8232Y-3.1591
X5.8362Y-4.6025
X5.9157Y-3.1591
X5.9264Y-3.3732
X5.9272Y-4.0064
X5.9299Y-4.0737
X6.0165Y-3.3835
X6.1354Y-3.3988
X6.2406Y-2.4051
T2
X5.9933Y-2.9704
X5.9933Y-3.0204
X6.0433Y-2.9704
X6.0433Y-3.0204
X6.0933Y-2.9704
X6.0933Y-3.0204
X6.1433Y-2.9704
X6.1433Y-3.0204
X6.1933Y-2.9704
X6.1933Y-3.0204
T4
X4.8085Y-3.356
X4.8085Y-3.456
X4.8085Y-3.556
X4.8085Y-3.656
X4.8085Y-3.756
X4.8085Y-3.856
X5.1193Y-4.5685
X5.2193Y-4.5685
X5.8Y-3.2513
X5.8Y-3.3513
X5.8Y-3.4513
X5.8Y-3.5513
X5.8Y-3.6513
X5.8Y-3.7513
X6.176Y-3.7403
X6.176Y-3.8403
X6.176Y-3.9403
X6.176Y-4.0403
X6.176Y-4.1403
X6.176Y-4.2403
X6.176Y-4.3403
X6.176Y-4.4403
X6.176Y-4.5403
X6.176Y-4.6403
T5
X4.5815Y-2.456
X4.5815Y-2.556
X4.5815Y-2.656
X4.5815Y-2.756
X4.5815Y-2.856
X4.5815Y-2.956
X4.5815Y-3.056
X4.5815Y-3.156
X4.5815Y-3.256
X4.5815Y-3.356
X4.5815Y-3.456
X4.5815Y-3.556
X4.5815Y-3.656
X4.5815Y-3.756
X4.5815Y-3.856
X4.5815Y-3.956
X4.5815Y-4.056
X4.5815Y-4.156
X4.5815Y-4.256
X4.5815Y-4.356
X4.5815Y-4.456
X4.5815Y-4.556
X4.5815Y-4.656
X4.6815Y-2.456
X4.6815Y-2.556
X4.6815Y-2.656
X4.6815Y-2.756
X4.6815Y-2.856
X4.6815Y-2.956
X4.6815Y-3.056
X4.6815Y-3.156
X4.6815Y-3.256
X4.6815Y-3.356
X4.6815Y-3.456
X4.6815Y-3.556
X4.6815Y-3.656
X4.6815Y-3.756
X4.6815Y-3.856
X4.6815Y-3.956
X4.6815Y-4.056
X4.6815Y-4.156
X4.6815Y-4.256
X4.6815Y-4.356
X4.6815Y-4.456
X4.6815Y-4.556
X4.6815Y-4.656
X6.4815Y-2.456
X6.4815Y-2.556
X6.4815Y-2.656
X6.4815Y-2.756
X6.4815Y-2.856
X6.4815Y-2.956
X6.4815Y-3.056
X6.4815Y-3.156
X6.4815Y-3.256
X6.4815Y-3.356
X6.4815Y-3.456
X6.4815Y-3.556
X6.4815Y-3.656
X6.4815Y-3.756
X6.4815Y-3.856
X6.4815Y-3.956
X6.4815Y-4.056
X6.4815Y-4.156
X6.4815Y-4.256
X6.4815Y-4.356
X6.4815Y-4.456
X6.4815Y-4.556
X6.4815Y-4.656
X6.5815Y-2.456
X6.5815Y-2.556
X6.5815Y-2.656
X6.5815Y-2.756
X6.5815Y-2.856
X6.5815Y-2.956
X6.5815Y-3.056
X6.5815Y-3.156
X6.5815Y-3.256
X6.5815Y-3.356
X6.5815Y-3.456
X6.5815Y-3.556
X6.5815Y-3.656
X6.5815Y-3.756
X6.5815Y-3.856
X6.5815Y-3.956
X6.5815Y-4.056
X6.5815Y-4.156
X6.5815Y-4.256
X6.5815Y-4.356
X6.5815Y-4.456
X6.5815Y-4.556
X6.5815Y-4.656
T3
G00X6.1689Y-2.0741
M15
G01X6.1689Y-2.0977
M16
G05
G00X6.1689Y-2.2288
M15
G01X6.1689Y-2.2721
M16
G05
G00X6.5091Y-2.0741
M15
G01X6.5091Y-2.0977
M16
G05
G00X6.5091Y-2.2288
M15
G01X6.5091Y-2.2721
M16
G05
T0
M30
