%TF.GenerationSoftware,KiCad,Pcbnew,(5.1.7-0-10_14)*%
%TF.CreationDate,2020-11-18T23:59:02+08:00*%
%TF.ProjectId,bbb_multirouter,6262625f-6d75-46c7-9469-726f75746572,rev?*%
%TF.SameCoordinates,Original*%
%TF.FileFunction,Legend,Top*%
%TF.FilePolarity,Positive*%
%FSLAX46Y46*%
G04 Gerber Fmt 4.6, Leading zero omitted, Abs format (unit mm)*
G04 Created by KiCad (PCBNEW (5.1.7-0-10_14)) date 2020-11-18 23:59:02*
%MOMM*%
%LPD*%
G01*
G04 APERTURE LIST*
%ADD10C,0.150000*%
%ADD11C,0.120000*%
%ADD12C,0.254000*%
%ADD13C,0.152400*%
G04 APERTURE END LIST*
D10*
X132288195Y-113894780D02*
X132288195Y-112894780D01*
X132526290Y-112894780D01*
X132669147Y-112942400D01*
X132764385Y-113037638D01*
X132812004Y-113132876D01*
X132859623Y-113323352D01*
X132859623Y-113466209D01*
X132812004Y-113656685D01*
X132764385Y-113751923D01*
X132669147Y-113847161D01*
X132526290Y-113894780D01*
X132288195Y-113894780D01*
X133288195Y-113894780D02*
X133288195Y-112894780D01*
X133669147Y-112894780D01*
X133764385Y-112942400D01*
X133812004Y-112990019D01*
X133859623Y-113085257D01*
X133859623Y-113228114D01*
X133812004Y-113323352D01*
X133764385Y-113370971D01*
X133669147Y-113418590D01*
X133288195Y-113418590D01*
X128956766Y-113874780D02*
X128956766Y-112874780D01*
X129194861Y-112874780D01*
X129337719Y-112922400D01*
X129432957Y-113017638D01*
X129480576Y-113112876D01*
X129528195Y-113303352D01*
X129528195Y-113446209D01*
X129480576Y-113636685D01*
X129432957Y-113731923D01*
X129337719Y-113827161D01*
X129194861Y-113874780D01*
X128956766Y-113874780D01*
X129956766Y-113874780D02*
X129956766Y-112874780D01*
X130290100Y-113589066D01*
X130623433Y-112874780D01*
X130623433Y-113874780D01*
X124417242Y-94620971D02*
X125274385Y-94620971D01*
X124845814Y-96120971D02*
X124845814Y-94620971D01*
X125631528Y-94620971D02*
X126631528Y-96120971D01*
X126631528Y-94620971D02*
X125631528Y-96120971D01*
X125160100Y-93650971D02*
X124660100Y-92936685D01*
X124302957Y-93650971D02*
X124302957Y-92150971D01*
X124874385Y-92150971D01*
X125017242Y-92222400D01*
X125088671Y-92293828D01*
X125160100Y-92436685D01*
X125160100Y-92650971D01*
X125088671Y-92793828D01*
X125017242Y-92865257D01*
X124874385Y-92936685D01*
X124302957Y-92936685D01*
X125660100Y-92150971D02*
X126660100Y-93650971D01*
X126660100Y-92150971D02*
X125660100Y-93650971D01*
X125057242Y-84622400D02*
X124914385Y-84550971D01*
X124700100Y-84550971D01*
X124485814Y-84622400D01*
X124342957Y-84765257D01*
X124271528Y-84908114D01*
X124200100Y-85193828D01*
X124200100Y-85408114D01*
X124271528Y-85693828D01*
X124342957Y-85836685D01*
X124485814Y-85979542D01*
X124700100Y-86050971D01*
X124842957Y-86050971D01*
X125057242Y-85979542D01*
X125128671Y-85908114D01*
X125128671Y-85408114D01*
X124842957Y-85408114D01*
X125771528Y-86050971D02*
X125771528Y-84550971D01*
X126628671Y-86050971D01*
X126628671Y-84550971D01*
X127342957Y-86050971D02*
X127342957Y-84550971D01*
X127700100Y-84550971D01*
X127914385Y-84622400D01*
X128057242Y-84765257D01*
X128128671Y-84908114D01*
X128200100Y-85193828D01*
X128200100Y-85408114D01*
X128128671Y-85693828D01*
X128057242Y-85836685D01*
X127914385Y-85979542D01*
X127700100Y-86050971D01*
X127342957Y-86050971D01*
D11*
%TO.C,J5*%
X130790100Y-63632400D02*
X128130100Y-63632400D01*
X130790100Y-86552400D02*
X130790100Y-63632400D01*
X128130100Y-86552400D02*
X128130100Y-63632400D01*
X130790100Y-86552400D02*
X128130100Y-86552400D01*
X130790100Y-87822400D02*
X130790100Y-89152400D01*
X130790100Y-89152400D02*
X129460100Y-89152400D01*
%TO.C,J4*%
X156900100Y-68612400D02*
X154240100Y-68612400D01*
X156900100Y-81372400D02*
X156900100Y-68612400D01*
X154240100Y-81372400D02*
X154240100Y-68612400D01*
X156900100Y-81372400D02*
X154240100Y-81372400D01*
X156900100Y-82642400D02*
X156900100Y-83972400D01*
X156900100Y-83972400D02*
X155570100Y-83972400D01*
%TO.C,CON1*%
X144040100Y-89642400D02*
X144870100Y-90412400D01*
X144030100Y-89642400D02*
X138365100Y-89602400D01*
X138365100Y-92129930D02*
X138365100Y-92772400D01*
X138365100Y-89602400D02*
X138370100Y-92152400D01*
X143505100Y-92772400D02*
X138365100Y-92772400D01*
X144100100Y-92772400D02*
X143505100Y-92772400D01*
X144900100Y-92772400D02*
X144140100Y-92772400D01*
X144900100Y-90442400D02*
X144900100Y-92772400D01*
X147915100Y-88722400D02*
X147915100Y-93722400D01*
X147915100Y-93722400D02*
X135265100Y-93722400D01*
X135265100Y-93722400D02*
X135265100Y-88722400D01*
X135265100Y-88722400D02*
X140590100Y-88722400D01*
X140590100Y-88722400D02*
X140590100Y-89222400D01*
X140590100Y-89222400D02*
X142590100Y-89222400D01*
X142590100Y-89222400D02*
X142590100Y-88722400D01*
X142590100Y-88722400D02*
X147915100Y-88722400D01*
D12*
%TO.C,SW3*%
X162850058Y-124842486D02*
X158950142Y-124842486D01*
X158950142Y-124842486D02*
X158950142Y-121942568D01*
X158950142Y-121942568D02*
X162850058Y-121942568D01*
X162850058Y-121942568D02*
X162850058Y-124842486D01*
X161755826Y-121932408D02*
X160055804Y-121932408D01*
%TO.C,SW2*%
X124470142Y-52922314D02*
X128370058Y-52922314D01*
X128370058Y-52922314D02*
X128370058Y-55822232D01*
X128370058Y-55822232D02*
X124470142Y-55822232D01*
X124470142Y-55822232D02*
X124470142Y-52922314D01*
X125564374Y-55832392D02*
X127264396Y-55832392D01*
%TO.C,SW1*%
X124520142Y-45602314D02*
X128420058Y-45602314D01*
X128420058Y-45602314D02*
X128420058Y-48502232D01*
X128420058Y-48502232D02*
X124520142Y-48502232D01*
X124520142Y-48502232D02*
X124520142Y-45602314D01*
X125614374Y-48512392D02*
X127314396Y-48512392D01*
D11*
%TO.C,J2*%
X131300100Y-117369400D02*
X131300100Y-114709400D01*
X131300100Y-117369400D02*
X133900100Y-117369400D01*
X133900100Y-117369400D02*
X133900100Y-114709400D01*
X131300100Y-114709400D02*
X133900100Y-114709400D01*
X128700100Y-114709400D02*
X130030100Y-114709400D01*
X128700100Y-116039400D02*
X128700100Y-114709400D01*
%TO.C,J1*%
X120807100Y-86512400D02*
X123467100Y-86512400D01*
X120807100Y-86512400D02*
X120807100Y-99272400D01*
X120807100Y-99272400D02*
X123467100Y-99272400D01*
X123467100Y-86512400D02*
X123467100Y-99272400D01*
X123467100Y-83912400D02*
X123467100Y-85242400D01*
X122137100Y-83912400D02*
X123467100Y-83912400D01*
D10*
%TO.C,P8*%
X163080100Y-60832400D02*
X163080100Y-62382400D01*
X165900100Y-63652400D02*
X163360100Y-63652400D01*
X165900100Y-61112400D02*
X165900100Y-63652400D01*
X164630100Y-60832400D02*
X163080100Y-60832400D01*
X168440100Y-61112400D02*
X165900100Y-61112400D01*
X168440100Y-119532400D02*
X163360100Y-119532400D01*
X163360100Y-119532400D02*
X163360100Y-63652400D01*
X168440100Y-119532400D02*
X168440100Y-61112400D01*
%TO.C,P9*%
X114820100Y-60832400D02*
X114820100Y-62382400D01*
X117640100Y-63652400D02*
X115100100Y-63652400D01*
X117640100Y-61112400D02*
X117640100Y-63652400D01*
X116370100Y-60832400D02*
X114820100Y-60832400D01*
X120180100Y-61112400D02*
X117640100Y-61112400D01*
X120180100Y-119532400D02*
X115100100Y-119532400D01*
X115100100Y-119532400D02*
X115100100Y-63652400D01*
X120180100Y-119532400D02*
X120180100Y-61112400D01*
%TO.C,J5*%
X129126766Y-89604780D02*
X129126766Y-90319066D01*
X129079147Y-90461923D01*
X128983909Y-90557161D01*
X128841052Y-90604780D01*
X128745814Y-90604780D01*
X130079147Y-89604780D02*
X129602957Y-89604780D01*
X129555338Y-90080971D01*
X129602957Y-90033352D01*
X129698195Y-89985733D01*
X129936290Y-89985733D01*
X130031528Y-90033352D01*
X130079147Y-90080971D01*
X130126766Y-90176209D01*
X130126766Y-90414304D01*
X130079147Y-90509542D01*
X130031528Y-90557161D01*
X129936290Y-90604780D01*
X129698195Y-90604780D01*
X129602957Y-90557161D01*
X129555338Y-90509542D01*
%TO.C,J4*%
X155236766Y-84424780D02*
X155236766Y-85139066D01*
X155189147Y-85281923D01*
X155093909Y-85377161D01*
X154951052Y-85424780D01*
X154855814Y-85424780D01*
X156141528Y-84758114D02*
X156141528Y-85424780D01*
X155903433Y-84377161D02*
X155665338Y-85091447D01*
X156284385Y-85091447D01*
%TO.C,CON1*%
X147187242Y-92286685D02*
X147234861Y-92334304D01*
X147282480Y-92477161D01*
X147282480Y-92572400D01*
X147234861Y-92715257D01*
X147139623Y-92810495D01*
X147044385Y-92858114D01*
X146853909Y-92905733D01*
X146711052Y-92905733D01*
X146520576Y-92858114D01*
X146425338Y-92810495D01*
X146330100Y-92715257D01*
X146282480Y-92572400D01*
X146282480Y-92477161D01*
X146330100Y-92334304D01*
X146377719Y-92286685D01*
X146282480Y-91667638D02*
X146282480Y-91477161D01*
X146330100Y-91381923D01*
X146425338Y-91286685D01*
X146615814Y-91239066D01*
X146949147Y-91239066D01*
X147139623Y-91286685D01*
X147234861Y-91381923D01*
X147282480Y-91477161D01*
X147282480Y-91667638D01*
X147234861Y-91762876D01*
X147139623Y-91858114D01*
X146949147Y-91905733D01*
X146615814Y-91905733D01*
X146425338Y-91858114D01*
X146330100Y-91762876D01*
X146282480Y-91667638D01*
X147282480Y-90810495D02*
X146282480Y-90810495D01*
X147282480Y-90239066D01*
X146282480Y-90239066D01*
X147282480Y-89239066D02*
X147282480Y-89810495D01*
X147282480Y-89524780D02*
X146282480Y-89524780D01*
X146425338Y-89620019D01*
X146520576Y-89715257D01*
X146568195Y-89810495D01*
%TO.C,SW3*%
D13*
X157535325Y-126685364D02*
X157698611Y-126739793D01*
X157970754Y-126739793D01*
X158079611Y-126685364D01*
X158134040Y-126630936D01*
X158188468Y-126522079D01*
X158188468Y-126413222D01*
X158134040Y-126304364D01*
X158079611Y-126249936D01*
X157970754Y-126195507D01*
X157753040Y-126141079D01*
X157644182Y-126086650D01*
X157589754Y-126032222D01*
X157535325Y-125923364D01*
X157535325Y-125814507D01*
X157589754Y-125705650D01*
X157644182Y-125651222D01*
X157753040Y-125596793D01*
X158025182Y-125596793D01*
X158188468Y-125651222D01*
X158569468Y-125596793D02*
X158841611Y-126739793D01*
X159059325Y-125923364D01*
X159277040Y-126739793D01*
X159549182Y-125596793D01*
X159875754Y-125596793D02*
X160583325Y-125596793D01*
X160202325Y-126032222D01*
X160365611Y-126032222D01*
X160474468Y-126086650D01*
X160528897Y-126141079D01*
X160583325Y-126249936D01*
X160583325Y-126522079D01*
X160528897Y-126630936D01*
X160474468Y-126685364D01*
X160365611Y-126739793D01*
X160039040Y-126739793D01*
X159930182Y-126685364D01*
X159875754Y-126630936D01*
%TO.C,SW2*%
X119294874Y-55099542D02*
X119509160Y-55170971D01*
X119866302Y-55170971D01*
X120009160Y-55099542D01*
X120080588Y-55028114D01*
X120152017Y-54885257D01*
X120152017Y-54742400D01*
X120080588Y-54599542D01*
X120009160Y-54528114D01*
X119866302Y-54456685D01*
X119580588Y-54385257D01*
X119437731Y-54313828D01*
X119366302Y-54242400D01*
X119294874Y-54099542D01*
X119294874Y-53956685D01*
X119366302Y-53813828D01*
X119437731Y-53742400D01*
X119580588Y-53670971D01*
X119937731Y-53670971D01*
X120152017Y-53742400D01*
X120652017Y-53670971D02*
X121009160Y-55170971D01*
X121294874Y-54099542D01*
X121580588Y-55170971D01*
X121937731Y-53670971D01*
X122437731Y-53813828D02*
X122509160Y-53742400D01*
X122652017Y-53670971D01*
X123009160Y-53670971D01*
X123152017Y-53742400D01*
X123223445Y-53813828D01*
X123294874Y-53956685D01*
X123294874Y-54099542D01*
X123223445Y-54313828D01*
X122366302Y-55170971D01*
X123294874Y-55170971D01*
%TO.C,SW1*%
X118824874Y-47679542D02*
X119039160Y-47750971D01*
X119396302Y-47750971D01*
X119539160Y-47679542D01*
X119610588Y-47608114D01*
X119682017Y-47465257D01*
X119682017Y-47322400D01*
X119610588Y-47179542D01*
X119539160Y-47108114D01*
X119396302Y-47036685D01*
X119110588Y-46965257D01*
X118967731Y-46893828D01*
X118896302Y-46822400D01*
X118824874Y-46679542D01*
X118824874Y-46536685D01*
X118896302Y-46393828D01*
X118967731Y-46322400D01*
X119110588Y-46250971D01*
X119467731Y-46250971D01*
X119682017Y-46322400D01*
X120182017Y-46250971D02*
X120539160Y-47750971D01*
X120824874Y-46679542D01*
X121110588Y-47750971D01*
X121467731Y-46250971D01*
X122824874Y-47750971D02*
X121967731Y-47750971D01*
X122396302Y-47750971D02*
X122396302Y-46250971D01*
X122253445Y-46465257D01*
X122110588Y-46608114D01*
X121967731Y-46679542D01*
%TO.C,J2*%
D10*
X126712480Y-116372733D02*
X127426766Y-116372733D01*
X127569623Y-116420352D01*
X127664861Y-116515590D01*
X127712480Y-116658447D01*
X127712480Y-116753685D01*
X126807719Y-115944161D02*
X126760100Y-115896542D01*
X126712480Y-115801304D01*
X126712480Y-115563209D01*
X126760100Y-115467971D01*
X126807719Y-115420352D01*
X126902957Y-115372733D01*
X126998195Y-115372733D01*
X127141052Y-115420352D01*
X127712480Y-115991780D01*
X127712480Y-115372733D01*
%TO.C,J1*%
X121803766Y-81924780D02*
X121803766Y-82639066D01*
X121756147Y-82781923D01*
X121660909Y-82877161D01*
X121518052Y-82924780D01*
X121422814Y-82924780D01*
X122803766Y-82924780D02*
X122232338Y-82924780D01*
X122518052Y-82924780D02*
X122518052Y-81924780D01*
X122422814Y-82067638D01*
X122327576Y-82162876D01*
X122232338Y-82210495D01*
%TO.C,P8*%
X163892004Y-57734780D02*
X163892004Y-56734780D01*
X164272957Y-56734780D01*
X164368195Y-56782400D01*
X164415814Y-56830019D01*
X164463433Y-56925257D01*
X164463433Y-57068114D01*
X164415814Y-57163352D01*
X164368195Y-57210971D01*
X164272957Y-57258590D01*
X163892004Y-57258590D01*
X165034861Y-57163352D02*
X164939623Y-57115733D01*
X164892004Y-57068114D01*
X164844385Y-56972876D01*
X164844385Y-56925257D01*
X164892004Y-56830019D01*
X164939623Y-56782400D01*
X165034861Y-56734780D01*
X165225338Y-56734780D01*
X165320576Y-56782400D01*
X165368195Y-56830019D01*
X165415814Y-56925257D01*
X165415814Y-56972876D01*
X165368195Y-57068114D01*
X165320576Y-57115733D01*
X165225338Y-57163352D01*
X165034861Y-57163352D01*
X164939623Y-57210971D01*
X164892004Y-57258590D01*
X164844385Y-57353828D01*
X164844385Y-57544304D01*
X164892004Y-57639542D01*
X164939623Y-57687161D01*
X165034861Y-57734780D01*
X165225338Y-57734780D01*
X165320576Y-57687161D01*
X165368195Y-57639542D01*
X165415814Y-57544304D01*
X165415814Y-57353828D01*
X165368195Y-57258590D01*
X165320576Y-57210971D01*
X165225338Y-57163352D01*
%TO.C,P9*%
X115632004Y-57734780D02*
X115632004Y-56734780D01*
X116012957Y-56734780D01*
X116108195Y-56782400D01*
X116155814Y-56830019D01*
X116203433Y-56925257D01*
X116203433Y-57068114D01*
X116155814Y-57163352D01*
X116108195Y-57210971D01*
X116012957Y-57258590D01*
X115632004Y-57258590D01*
X116679623Y-57734780D02*
X116870100Y-57734780D01*
X116965338Y-57687161D01*
X117012957Y-57639542D01*
X117108195Y-57496685D01*
X117155814Y-57306209D01*
X117155814Y-56925257D01*
X117108195Y-56830019D01*
X117060576Y-56782400D01*
X116965338Y-56734780D01*
X116774861Y-56734780D01*
X116679623Y-56782400D01*
X116632004Y-56830019D01*
X116584385Y-56925257D01*
X116584385Y-57163352D01*
X116632004Y-57258590D01*
X116679623Y-57306209D01*
X116774861Y-57353828D01*
X116965338Y-57353828D01*
X117060576Y-57306209D01*
X117108195Y-57258590D01*
X117155814Y-57163352D01*
%TD*%
M02*
