M48
; DRILL file {KiCad (5.1.7-0-10_14)} date Wednesday, November 18, 2020 at 11:45:55 PM
; FORMAT={-:-/ absolute / inch / decimal}
; #@! TF.CreationDate,2020-11-18T23:45:55+08:00
; #@! TF.GenerationSoftware,Kicad,Pcbnew,(5.1.7-0-10_14)
; #@! TF.FileFunction,Plated,1,2,PTH
FMAT,2
INCH
T1C0.0157
T2C0.0197
T3C0.0236
T4C0.0394
T5C0.0400
%
G90
G05
T1
X4.7764Y-2.6473
X4.9539Y-3.3013
X4.9933Y-2.48
X5.5197Y-4.671
X5.5244Y-3.2347
X5.5748Y-3.3595
X5.6142Y-3.2166
X5.6213Y-3.0981
X5.6595Y-3.2599
X5.7197Y-3.317
X5.8421Y-3.3095
X5.935Y-2.7469
X5.9543Y-3.756
X6.0909Y-3.7162
X6.185Y-4.854
T2
X5.4744Y-3.5664
X5.4744Y-3.6164
X5.5244Y-3.5664
X5.5244Y-3.6164
X5.5744Y-3.5664
X5.5744Y-3.6164
X5.6244Y-3.5664
X5.6244Y-3.6164
X5.6744Y-3.5664
X5.6744Y-3.6164
T4
X5.1193Y-4.5685
X5.2193Y-4.5685
X6.1248Y-2.7536
X6.1248Y-2.8536
X6.1248Y-2.9536
X6.1248Y-3.0536
X6.1248Y-3.1536
X6.1248Y-3.2536
X5.0969Y-2.5576
X5.0969Y-2.6576
X5.0969Y-2.7576
X5.0969Y-2.8576
X5.0969Y-2.9576
X5.0969Y-3.0576
X5.0969Y-3.1576
X5.0969Y-3.2576
X5.0969Y-3.3576
X5.0969Y-3.4576
X4.8085Y-3.356
X4.8085Y-3.456
X4.8085Y-3.556
X4.8085Y-3.656
X4.8085Y-3.756
X4.8085Y-3.856
T5
X4.5815Y-2.456
X4.5815Y-2.556
X4.5815Y-2.656
X4.5815Y-2.756
X4.5815Y-2.856
X4.5815Y-2.956
X4.5815Y-3.056
X4.5815Y-3.156
X4.5815Y-3.256
X4.5815Y-3.356
X4.5815Y-3.456
X4.5815Y-3.556
X4.5815Y-3.656
X4.5815Y-3.756
X4.5815Y-3.856
X4.5815Y-3.956
X4.5815Y-4.056
X4.5815Y-4.156
X4.5815Y-4.256
X4.5815Y-4.356
X4.5815Y-4.456
X4.5815Y-4.556
X4.5815Y-4.656
X4.6815Y-2.456
X4.6815Y-2.556
X4.6815Y-2.656
X4.6815Y-2.756
X4.6815Y-2.856
X4.6815Y-2.956
X4.6815Y-3.056
X4.6815Y-3.156
X4.6815Y-3.256
X4.6815Y-3.356
X4.6815Y-3.456
X4.6815Y-3.556
X4.6815Y-3.656
X4.6815Y-3.756
X4.6815Y-3.856
X4.6815Y-3.956
X4.6815Y-4.056
X4.6815Y-4.156
X4.6815Y-4.256
X4.6815Y-4.356
X4.6815Y-4.456
X4.6815Y-4.556
X4.6815Y-4.656
X6.4815Y-2.456
X6.4815Y-2.556
X6.4815Y-2.656
X6.4815Y-2.756
X6.4815Y-2.856
X6.4815Y-2.956
X6.4815Y-3.056
X6.4815Y-3.156
X6.4815Y-3.256
X6.4815Y-3.356
X6.4815Y-3.456
X6.4815Y-3.556
X6.4815Y-3.656
X6.4815Y-3.756
X6.4815Y-3.856
X6.4815Y-3.956
X6.4815Y-4.056
X6.4815Y-4.156
X6.4815Y-4.256
X6.4815Y-4.356
X6.4815Y-4.456
X6.4815Y-4.556
X6.4815Y-4.656
X6.5815Y-2.456
X6.5815Y-2.556
X6.5815Y-2.656
X6.5815Y-2.756
X6.5815Y-2.856
X6.5815Y-2.956
X6.5815Y-3.056
X6.5815Y-3.156
X6.5815Y-3.256
X6.5815Y-3.356
X6.5815Y-3.456
X6.5815Y-3.556
X6.5815Y-3.656
X6.5815Y-3.756
X6.5815Y-3.856
X6.5815Y-3.956
X6.5815Y-4.056
X6.5815Y-4.156
X6.5815Y-4.256
X6.5815Y-4.356
X6.5815Y-4.456
X6.5815Y-4.556
X6.5815Y-4.656
T3
G00X6.1689Y-2.0741
M15
G01X6.1689Y-2.0977
M16
G05
G00X6.1689Y-2.2288
M15
G01X6.1689Y-2.2721
M16
G05
G00X6.5091Y-2.0741
M15
G01X6.5091Y-2.0977
M16
G05
G00X6.5091Y-2.2288
M15
G01X6.5091Y-2.2721
M16
G05
T0
M30
