%TF.GenerationSoftware,KiCad,Pcbnew,(5.1.7-0-10_14)*%
%TF.CreationDate,2020-11-18T23:59:02+08:00*%
%TF.ProjectId,bbb_multirouter,6262625f-6d75-46c7-9469-726f75746572,rev?*%
%TF.SameCoordinates,Original*%
%TF.FileFunction,Soldermask,Bot*%
%TF.FilePolarity,Negative*%
%FSLAX46Y46*%
G04 Gerber Fmt 4.6, Leading zero omitted, Abs format (unit mm)*
G04 Created by KiCad (PCBNEW (5.1.7-0-10_14)) date 2020-11-18 23:59:02*
%MOMM*%
%LPD*%
G01*
G04 APERTURE LIST*
%ADD10O,1.700000X1.700000*%
%ADD11R,1.700000X1.700000*%
%ADD12R,2.199996X1.199896*%
%ADD13R,1.299997X1.299997*%
%ADD14R,2.999994X1.500124*%
%ADD15R,1.000000X1.500000*%
%ADD16O,1.000000X1.000000*%
%ADD17R,1.000000X1.000000*%
%ADD18R,8.400034X3.499866*%
%ADD19R,1.999996X0.800100*%
%ADD20R,3.999992X0.800100*%
%ADD21R,0.600000X1.450000*%
%ADD22R,0.300000X1.450000*%
%ADD23O,1.000000X2.100000*%
%ADD24C,0.650000*%
%ADD25O,1.000000X1.600000*%
%ADD26R,1.727200X1.727200*%
%ADD27O,1.727200X1.727200*%
G04 APERTURE END LIST*
D10*
%TO.C,J5*%
X129460100Y-64962400D03*
X129460100Y-67502400D03*
X129460100Y-70042400D03*
X129460100Y-72582400D03*
X129460100Y-75122400D03*
X129460100Y-77662400D03*
X129460100Y-80202400D03*
X129460100Y-82742400D03*
X129460100Y-85282400D03*
D11*
X129460100Y-87822400D03*
%TD*%
D10*
%TO.C,J4*%
X155570100Y-69942400D03*
X155570100Y-72482400D03*
X155570100Y-75022400D03*
X155570100Y-77562400D03*
X155570100Y-80102400D03*
D11*
X155570100Y-82642400D03*
%TD*%
%TO.C,C1*%
G36*
G01*
X151897600Y-114727400D02*
X151422600Y-114727400D01*
G75*
G02*
X151185100Y-114489900I0J237500D01*
G01*
X151185100Y-113889900D01*
G75*
G02*
X151422600Y-113652400I237500J0D01*
G01*
X151897600Y-113652400D01*
G75*
G02*
X152135100Y-113889900I0J-237500D01*
G01*
X152135100Y-114489900D01*
G75*
G02*
X151897600Y-114727400I-237500J0D01*
G01*
G37*
G36*
G01*
X151897600Y-116452400D02*
X151422600Y-116452400D01*
G75*
G02*
X151185100Y-116214900I0J237500D01*
G01*
X151185100Y-115614900D01*
G75*
G02*
X151422600Y-115377400I237500J0D01*
G01*
X151897600Y-115377400D01*
G75*
G02*
X152135100Y-115614900I0J-237500D01*
G01*
X152135100Y-116214900D01*
G75*
G02*
X151897600Y-116452400I-237500J0D01*
G01*
G37*
%TD*%
D12*
%TO.C,JP3*%
X155555054Y-114372492D03*
D13*
X154005146Y-115923670D03*
D12*
X155555054Y-117472308D03*
%TD*%
D14*
%TO.C,U2*%
X149452100Y-111656400D03*
X149452100Y-109624400D03*
X137260100Y-110132400D03*
X137260100Y-112672400D03*
X137260100Y-116228400D03*
X137260100Y-118768400D03*
%TD*%
D15*
%TO.C,JP2*%
X157100100Y-98552400D03*
X158400100Y-98552400D03*
%TD*%
%TO.C,JP1*%
X157100100Y-102742400D03*
X158400100Y-102742400D03*
%TD*%
D16*
%TO.C,CON1*%
X139050100Y-90587400D03*
X139050100Y-91857400D03*
X140320100Y-90587400D03*
X140320100Y-91857400D03*
X141590100Y-90587400D03*
X141590100Y-91857400D03*
X142860100Y-90587400D03*
X142860100Y-91857400D03*
X144130100Y-91857400D03*
D17*
X144130100Y-90587400D03*
%TD*%
D18*
%TO.C,U1*%
X143410150Y-67142348D03*
D19*
X137810212Y-65392542D03*
D20*
X149960048Y-71392276D03*
X149960048Y-73292450D03*
X149960048Y-75192370D03*
X149960048Y-77092290D03*
X149960048Y-78992464D03*
X149960048Y-80892384D03*
D19*
X133960080Y-83832434D03*
X133960080Y-82122506D03*
X133960080Y-80412324D03*
X133960080Y-78702396D03*
X133960080Y-76992468D03*
X133960080Y-75282286D03*
X133960080Y-73572358D03*
X133960080Y-71862430D03*
X133960080Y-70152502D03*
X133960080Y-68442320D03*
%TD*%
D21*
%TO.C,J3*%
X164260100Y-58077400D03*
X163460100Y-58077400D03*
X158560100Y-58077400D03*
X157760100Y-58077400D03*
X157760100Y-58077400D03*
X158560100Y-58077400D03*
X163460100Y-58077400D03*
X164260100Y-58077400D03*
D22*
X159260100Y-58077400D03*
X159760100Y-58077400D03*
X160260100Y-58077400D03*
X161260100Y-58077400D03*
X161760100Y-58077400D03*
X162260100Y-58077400D03*
X162760100Y-58077400D03*
X160760100Y-58077400D03*
D23*
X165330100Y-57162400D03*
X156690100Y-57162400D03*
D24*
X158120100Y-56632400D03*
D25*
X156690100Y-52982400D03*
D24*
X163900100Y-56632400D03*
D25*
X165330100Y-52982400D03*
%TD*%
D10*
%TO.C,J2*%
X132570100Y-116039400D03*
D11*
X130030100Y-116039400D03*
%TD*%
D10*
%TO.C,J1*%
X122137100Y-97942400D03*
X122137100Y-95402400D03*
X122137100Y-92862400D03*
X122137100Y-90322400D03*
X122137100Y-87782400D03*
D11*
X122137100Y-85242400D03*
%TD*%
D26*
%TO.C,P8*%
X164630100Y-62382400D03*
D27*
X167170100Y-62382400D03*
X164630100Y-64922400D03*
X167170100Y-64922400D03*
X164630100Y-67462400D03*
X167170100Y-67462400D03*
X164630100Y-70002400D03*
X167170100Y-70002400D03*
X164630100Y-72542400D03*
X167170100Y-72542400D03*
X164630100Y-75082400D03*
X167170100Y-75082400D03*
X164630100Y-77622400D03*
X167170100Y-77622400D03*
X164630100Y-80162400D03*
X167170100Y-80162400D03*
X164630100Y-82702400D03*
X167170100Y-82702400D03*
X164630100Y-85242400D03*
X167170100Y-85242400D03*
X164630100Y-87782400D03*
X167170100Y-87782400D03*
X164630100Y-90322400D03*
X167170100Y-90322400D03*
X164630100Y-92862400D03*
X167170100Y-92862400D03*
X164630100Y-95402400D03*
X167170100Y-95402400D03*
X164630100Y-97942400D03*
X167170100Y-97942400D03*
X164630100Y-100482400D03*
X167170100Y-100482400D03*
X164630100Y-103022400D03*
X167170100Y-103022400D03*
X164630100Y-105562400D03*
X167170100Y-105562400D03*
X164630100Y-108102400D03*
X167170100Y-108102400D03*
X164630100Y-110642400D03*
X167170100Y-110642400D03*
X164630100Y-113182400D03*
X167170100Y-113182400D03*
X164630100Y-115722400D03*
X167170100Y-115722400D03*
X164630100Y-118262400D03*
X167170100Y-118262400D03*
%TD*%
D26*
%TO.C,P9*%
X116370100Y-62382400D03*
D27*
X118910100Y-62382400D03*
X116370100Y-64922400D03*
X118910100Y-64922400D03*
X116370100Y-67462400D03*
X118910100Y-67462400D03*
X116370100Y-70002400D03*
X118910100Y-70002400D03*
X116370100Y-72542400D03*
X118910100Y-72542400D03*
X116370100Y-75082400D03*
X118910100Y-75082400D03*
X116370100Y-77622400D03*
X118910100Y-77622400D03*
X116370100Y-80162400D03*
X118910100Y-80162400D03*
X116370100Y-82702400D03*
X118910100Y-82702400D03*
X116370100Y-85242400D03*
X118910100Y-85242400D03*
X116370100Y-87782400D03*
X118910100Y-87782400D03*
X116370100Y-90322400D03*
X118910100Y-90322400D03*
X116370100Y-92862400D03*
X118910100Y-92862400D03*
X116370100Y-95402400D03*
X118910100Y-95402400D03*
X116370100Y-97942400D03*
X118910100Y-97942400D03*
X116370100Y-100482400D03*
X118910100Y-100482400D03*
X116370100Y-103022400D03*
X118910100Y-103022400D03*
X116370100Y-105562400D03*
X118910100Y-105562400D03*
X116370100Y-108102400D03*
X118910100Y-108102400D03*
X116370100Y-110642400D03*
X118910100Y-110642400D03*
X116370100Y-113182400D03*
X118910100Y-113182400D03*
X116370100Y-115722400D03*
X118910100Y-115722400D03*
X116370100Y-118262400D03*
X118910100Y-118262400D03*
%TD*%
M02*
